<svg xmlns="http://www.w3.org/2000/svg" xmlns:xlink="http://www.w3.org/1999/xlink" width="300" zoomAndPan="magnify" viewBox="0 0 224.87999 225" height="300" preserveAspectRatio="xMidYMid meet" version="1.0"><defs><clipPath id="0b8bf9c193"><path d="M 0 0.0585938 L 224.761719 0.0585938 L 224.761719 224.9375 L 0 224.9375 Z M 0 0.0585938 " clip-rule="nonzero"/></clipPath><clipPath id="9bc3af7f2b"><path d="M 80.917969 46 L 144.261719 46 L 144.261719 178.332031 L 80.917969 178.332031 Z M 80.917969 46 " clip-rule="nonzero"/></clipPath></defs><g clip-path="url(#0b8bf9c193)"><path fill="#6563ff" d="M 216.523438 -4.0625 L 7.488281 -4.0625 C 1.074219 -4.0625 -4.125 1.136719 -4.125 7.550781 L -4.125 216.582031 C -4.125 222.996094 1.074219 228.195312 7.488281 228.195312 L 216.523438 228.195312 C 222.9375 228.195312 228.136719 222.996094 228.136719 216.582031 L 228.136719 7.550781 C 228.136719 1.136719 222.9375 -4.0625 216.523438 -4.0625 Z M 216.523438 -4.0625 " fill-opacity="1" fill-rule="nonzero"/><path stroke-linecap="butt" transform="matrix(1.919493, 0, 0, 1.919493, -4.118025, -4.058054)" fill="none" stroke-linejoin="miter" d="M 0.00043631 -0.000281249 L 0.00043631 121.343227 L 121.343945 121.343227 L 121.343945 -0.000281249 L 0.00043631 -0.000281249 " stroke="#6563ff" stroke-width="3.124159" stroke-opacity="1" stroke-miterlimit="4"/></g><g clip-path="url(#9bc3af7f2b)"><path fill="#ffffff" d="M 129.648438 67.855469 L 144.261719 67.855469 L 144.261719 46.085938 L 125.601562 46.085938 L 125.601562 46.171875 C 101.066406 47.058594 96.007812 60.636719 95.585938 74.988281 L 95.53125 74.988281 L 95.53125 90.09375 L 80.917969 90.09375 L 80.917969 111.886719 L 95.53125 111.886719 L 95.53125 178.132812 L 121.75 178.132812 L 121.75 111.886719 L 140.550781 111.886719 L 144.261719 90.09375 L 121.75 90.09375 L 121.75 76.570312 C 121.75 71.769531 125.011719 67.855469 129.648438 67.855469 Z M 129.648438 67.855469 " fill-opacity="1" fill-rule="nonzero"/></g></svg>