<svg xmlns="http://www.w3.org/2000/svg" xmlns:xlink="http://www.w3.org/1999/xlink" width="300" zoomAndPan="magnify" viewBox="0 0 224.87999 225" height="300" preserveAspectRatio="xMidYMid meet" version="1.0"><defs><clipPath id="0f7564653c"><path d="M 0 0.0585938 L 224.761719 0.0585938 L 224.761719 224.9375 L 0 224.9375 Z M 0 0.0585938 " clip-rule="nonzero"/></clipPath></defs><g clip-path="url(#0f7564653c)"><path fill="#f00073" d="M 236.558594 198.847656 C 236.558594 219.707031 219.652344 236.617188 198.792969 236.617188 L 25.792969 236.617188 C 4.933594 236.617188 -11.972656 219.707031 -11.972656 198.847656 L -11.972656 25.851562 C -11.972656 4.992188 4.933594 -11.914062 25.792969 -11.914062 L 198.792969 -11.914062 C 219.652344 -11.914062 236.558594 4.992188 236.558594 25.851562 Z M 236.558594 198.847656 " fill-opacity="1" fill-rule="nonzero"/></g><path fill="#ffffff" d="M 60.285156 43.179688 L 167.722656 43.179688 C 177.929688 43.179688 186.273438 51.523438 186.273438 61.734375 L 186.273438 169.175781 C 186.273438 179.378906 177.929688 187.71875 167.722656 187.71875 L 60.285156 187.71875 C 50.074219 187.71875 41.722656 179.378906 41.722656 169.175781 L 41.722656 61.734375 C 41.722656 51.523438 50.074219 43.179688 60.285156 43.179688 Z M 147.027344 59.230469 C 143.445312 59.230469 140.519531 62.167969 140.519531 65.75 L 140.519531 81.316406 C 140.519531 84.902344 143.445312 87.828125 147.027344 87.828125 L 163.363281 87.828125 C 166.941406 87.828125 169.871094 84.902344 169.871094 81.316406 L 169.871094 65.75 C 169.871094 62.167969 166.941406 59.230469 163.363281 59.230469 Z M 169.933594 104.300781 L 157.214844 104.300781 C 158.421875 108.246094 159.074219 112.394531 159.074219 116.714844 C 159.074219 140.75 138.949219 160.246094 114.136719 160.246094 C 89.324219 160.246094 69.199219 140.75 69.199219 116.714844 C 69.199219 112.394531 69.859375 108.246094 71.0625 104.300781 L 57.792969 104.300781 L 57.792969 165.367188 C 57.792969 168.53125 60.375 171.097656 63.53125 171.097656 L 164.191406 171.097656 C 167.355469 171.097656 169.933594 168.53125 169.933594 165.367188 Z M 114.136719 87.011719 C 98.109375 87.011719 85.109375 99.597656 85.109375 115.140625 C 85.109375 130.671875 98.109375 143.269531 114.136719 143.269531 C 130.167969 143.269531 143.171875 130.671875 143.171875 115.140625 C 143.171875 99.597656 130.167969 87.011719 114.136719 87.011719 Z M 114.136719 87.011719 " fill-opacity="1" fill-rule="nonzero"/></svg>