<svg xmlns="http://www.w3.org/2000/svg" xmlns:xlink="http://www.w3.org/1999/xlink" width="300" zoomAndPan="magnify" viewBox="0 0 224.87999 225" height="300" preserveAspectRatio="xMidYMid meet" version="1.0"><defs><clipPath id="b15c2899af"><path d="M 0 0.0585938 L 224.761719 0.0585938 L 224.761719 224.9375 L 0 224.9375 Z M 0 0.0585938 " clip-rule="nonzero"/></clipPath></defs><g clip-path="url(#b15c2899af)"><path fill="#2197bd" d="M 236.109375 198.445312 C 236.109375 219.265625 219.230469 236.144531 198.40625 236.144531 L 25.703125 236.144531 C 4.878906 236.144531 -12 219.265625 -12 198.445312 L -12 25.738281 C -12 4.914062 4.878906 -11.964844 25.703125 -11.964844 L 198.40625 -11.964844 C 219.230469 -11.964844 236.109375 4.914062 236.109375 25.738281 Z M 236.109375 198.445312 " fill-opacity="1" fill-rule="nonzero"/></g><path fill="#ffffff" d="M 86.109375 76.554688 C 86.109375 77.164062 86.078125 77.769531 86.019531 78.371094 C 85.960938 78.976562 85.871094 79.574219 85.753906 80.171875 C 85.632812 80.765625 85.488281 81.355469 85.3125 81.933594 C 85.132812 82.515625 84.929688 83.085938 84.699219 83.648438 C 84.464844 84.207031 84.207031 84.757812 83.921875 85.292969 C 83.632812 85.828125 83.324219 86.347656 82.984375 86.851562 C 82.648438 87.355469 82.285156 87.84375 81.902344 88.3125 C 81.515625 88.78125 81.109375 89.230469 80.679688 89.660156 C 80.25 90.089844 79.800781 90.496094 79.332031 90.882812 C 78.863281 91.269531 78.375 91.628906 77.871094 91.964844 C 77.367188 92.304688 76.847656 92.613281 76.3125 92.902344 C 75.777344 93.1875 75.226562 93.445312 74.667969 93.679688 C 74.105469 93.910156 73.535156 94.117188 72.953125 94.292969 C 72.375 94.46875 71.785156 94.613281 71.191406 94.734375 C 70.59375 94.851562 69.996094 94.941406 69.390625 95 C 68.785156 95.058594 68.179688 95.089844 67.574219 95.089844 C 66.96875 95.089844 66.363281 95.058594 65.757812 95 C 65.152344 94.941406 64.554688 94.851562 63.957031 94.734375 C 63.363281 94.613281 62.773438 94.46875 62.195312 94.292969 C 61.613281 94.117188 61.042969 93.910156 60.480469 93.679688 C 59.921875 93.445312 59.371094 93.1875 58.835938 92.902344 C 58.300781 92.613281 57.78125 92.304688 57.277344 91.964844 C 56.773438 91.628906 56.285156 91.269531 55.816406 90.882812 C 55.347656 90.496094 54.898438 90.089844 54.46875 89.660156 C 54.039062 89.230469 53.632812 88.78125 53.246094 88.3125 C 52.863281 87.84375 52.5 87.355469 52.164062 86.851562 C 51.828125 86.347656 51.515625 85.828125 51.226562 85.292969 C 50.941406 84.757812 50.683594 84.207031 50.449219 83.648438 C 50.21875 83.085938 50.015625 82.515625 49.839844 81.933594 C 49.660156 81.355469 49.515625 80.765625 49.394531 80.171875 C 49.277344 79.574219 49.1875 78.976562 49.128906 78.371094 C 49.070312 77.769531 49.039062 77.164062 49.039062 76.554688 C 49.039062 75.949219 49.070312 75.34375 49.128906 74.738281 C 49.1875 74.132812 49.277344 73.535156 49.394531 72.9375 C 49.515625 72.34375 49.660156 71.757812 49.839844 71.175781 C 50.015625 70.59375 50.21875 70.023438 50.449219 69.460938 C 50.683594 68.902344 50.941406 68.351562 51.226562 67.816406 C 51.515625 67.28125 51.828125 66.761719 52.164062 66.257812 C 52.5 65.753906 52.863281 65.265625 53.246094 64.796875 C 53.632812 64.328125 54.039062 63.878906 54.46875 63.449219 C 54.898438 63.019531 55.347656 62.613281 55.816406 62.226562 C 56.285156 61.84375 56.773438 61.480469 57.277344 61.144531 C 57.78125 60.808594 58.300781 60.496094 58.835938 60.210938 C 59.371094 59.921875 59.921875 59.664062 60.480469 59.429688 C 61.042969 59.199219 61.613281 58.996094 62.195312 58.820312 C 62.773438 58.644531 63.363281 58.496094 63.957031 58.375 C 64.554688 58.257812 65.152344 58.167969 65.757812 58.109375 C 66.363281 58.050781 66.96875 58.019531 67.574219 58.019531 C 68.179688 58.019531 68.785156 58.050781 69.390625 58.109375 C 69.996094 58.167969 70.59375 58.257812 71.191406 58.375 C 71.785156 58.496094 72.375 58.644531 72.953125 58.820312 C 73.535156 58.996094 74.105469 59.199219 74.667969 59.429688 C 75.226562 59.664062 75.777344 59.921875 76.3125 60.210938 C 76.847656 60.496094 77.367188 60.808594 77.871094 61.144531 C 78.375 61.480469 78.863281 61.84375 79.332031 62.226562 C 79.800781 62.613281 80.25 63.019531 80.679688 63.449219 C 81.109375 63.878906 81.515625 64.328125 81.902344 64.796875 C 82.285156 65.265625 82.648438 65.753906 82.984375 66.257812 C 83.324219 66.761719 83.632812 67.28125 83.921875 67.816406 C 84.207031 68.351562 84.464844 68.902344 84.699219 69.460938 C 84.929688 70.023438 85.132812 70.59375 85.3125 71.175781 C 85.488281 71.757812 85.632812 72.34375 85.753906 72.9375 C 85.871094 73.535156 85.960938 74.132812 86.019531 74.738281 C 86.078125 75.34375 86.109375 75.949219 86.109375 76.554688 Z M 86.109375 76.554688 " fill-opacity="1" fill-rule="nonzero"/><path fill="#ffffff" d="M 51.597656 108.753906 L 83.4375 108.753906 L 83.4375 211.1875 L 51.597656 211.1875 Z M 51.597656 108.753906 " fill-opacity="1" fill-rule="nonzero"/><path fill="#ffffff" d="M 103.464844 108.753906 L 133.769531 108.753906 L 133.769531 211.1875 L 103.464844 211.1875 Z M 103.464844 108.753906 " fill-opacity="1" fill-rule="nonzero"/><path fill="#ffffff" d="M 104.773438 163.292969 L 135.082031 163.292969 L 135.082031 211.1875 L 104.773438 211.1875 Z M 104.773438 163.292969 " fill-opacity="1" fill-rule="nonzero"/><path fill="#ffffff" d="M 135.082031 163.292969 C 135.082031 163.292969 134.605469 150.007812 138.109375 143.097656 C 138.109375 143.097656 141.613281 134.589844 152.628906 134.539062 C 152.628906 134.539062 165.546875 132.285156 169.25 145.101562 C 169.25 145.101562 170.652344 152.210938 170.652344 155.214844 C 170.652344 158.222656 170.753906 211.1875 170.753906 211.1875 L 202.492188 211.1875 L 202.492188 152.511719 C 202.492188 152.511719 204.796875 119.367188 184.902344 110.289062 C 184.902344 110.289062 152.195312 95.605469 134.441406 122.574219 C 134.441406 122.574219 130.566406 125.242188 130.03125 117.765625 C 129.5 110.289062 124.960938 129.246094 124.824219 129.648438 C 124.691406 130.050781 130.03125 167.429688 130.03125 167.429688 Z M 135.082031 163.292969 " fill-opacity="1" fill-rule="nonzero"/></svg>