<svg xmlns="http://www.w3.org/2000/svg" xmlns:xlink="http://www.w3.org/1999/xlink" width="300" zoomAndPan="magnify" viewBox="0 0 224.87999 225" height="300" preserveAspectRatio="xMidYMid meet" version="1.0"><defs><clipPath id="426e523ff5"><path d="M 0 28 L 224.761719 28 L 224.761719 131 L 0 131 Z M 0 28 " clip-rule="nonzero"/></clipPath><clipPath id="c96b5cc018"><path d="M 0 75 L 224.761719 75 L 224.761719 197 L 0 197 Z M 0 75 " clip-rule="nonzero"/></clipPath></defs><g clip-path="url(#426e523ff5)"><path fill="#121212" d="M 16.074219 28.871094 C 4.875 31.597656 -2.152344 43.015625 0.660156 53.863281 C 1.539062 57.160156 3.164062 60.144531 5.359375 62.429688 C 7.335938 64.449219 100.886719 127.039062 104.3125 128.574219 C 109.542969 130.945312 115.734375 130.859375 121.09375 128.355469 C 125.265625 126.378906 216.929688 65.019531 219.257812 62.648438 C 230.195312 51.492188 224.222656 32.519531 208.585938 28.828125 C 204.457031 27.863281 20.117188 27.90625 16.074219 28.871094 Z M 16.074219 28.871094 " fill-opacity="1" fill-rule="nonzero"/></g><g clip-path="url(#c96b5cc018)"><path fill="#121212" d="M 0 126.730469 C 0 162.308594 0.132812 178.601562 0.484375 180.226562 C 2.109375 187.957031 8.34375 194.28125 16.296875 196.171875 C 20.421875 197.136719 203.710938 197.136719 208.320312 196.171875 C 216.316406 194.503906 222.773438 188.089844 224.398438 180.226562 C 224.96875 177.546875 225.097656 75.429688 224.527344 75.695312 C 224.351562 75.738281 203.136719 89.878906 177.355469 107.097656 C 151.574219 124.316406 129.085938 139.117188 127.328125 139.953125 C 122.5 142.410156 118.371094 143.332031 112.441406 143.332031 C 106.511719 143.332031 102.382812 142.410156 97.550781 139.953125 C 95.792969 139.117188 73.304688 124.316406 47.523438 107.097656 C 21.742188 89.878906 0.527344 75.738281 0.351562 75.695312 C 0.132812 75.605469 0 98.578125 0 126.730469 Z M 0 126.730469 " fill-opacity="1" fill-rule="nonzero"/></g></svg>