<svg xmlns="http://www.w3.org/2000/svg" xmlns:xlink="http://www.w3.org/1999/xlink" width="300" zoomAndPan="magnify" viewBox="0 0 224.87999 225" height="300" preserveAspectRatio="xMidYMid meet" version="1.0"><defs><clipPath id="d9f15752a7"><path d="M 0 0.0585938 L 224.761719 0.0585938 L 224.761719 224.9375 L 0 224.9375 Z M 0 0.0585938 " clip-rule="nonzero"/></clipPath></defs><g clip-path="url(#d9f15752a7)"><path fill="#ffffff" d="M 223.867188 179.300781 L 222.75 175.925781 C 220.097656 168.046875 211.410156 159.828125 203.425781 157.664062 L 173.882812 149.59375 C 165.871094 147.414062 154.441406 150.34375 148.578125 156.207031 L 137.886719 166.898438 C 99.027344 156.398438 68.554688 125.925781 58.070312 87.074219 L 68.761719 76.382812 C 74.625 70.519531 77.554688 59.105469 75.375 51.09375 L 67.316406 21.535156 C 65.136719 13.535156 56.90625 4.847656 49.039062 2.226562 L 45.667969 1.09375 C 37.789062 -1.53125 26.550781 1.121094 20.691406 6.984375 L 4.695312 22.992188 C 1.835938 25.835938 0.0117188 33.964844 0.0117188 33.996094 C -0.546875 84.777344 19.363281 133.703125 55.285156 169.625 C 91.117188 205.457031 139.859375 225.339844 190.496094 224.914062 C 190.757812 224.914062 199.125 223.113281 201.980469 220.273438 L 217.976562 204.277344 C 223.839844 198.417969 226.488281 187.179688 223.867188 179.300781 Z M 223.867188 179.300781 " fill-opacity="1" fill-rule="nonzero"/></g></svg>