<svg xmlns="http://www.w3.org/2000/svg" xmlns:xlink="http://www.w3.org/1999/xlink" width="300" zoomAndPan="magnify" viewBox="0 0 224.87999 225" height="300" preserveAspectRatio="xMidYMid meet" version="1.0"><path fill="#ffffff" d="M 100.316406 7.746094 C 72.734375 11.789062 49.761719 30.9375 41.109375 57.160156 C 33.554688 79.996094 37.246094 101.300781 54.417969 134.679688 C 64.695312 154.621094 77.125 174.035156 94.386719 197.050781 C 101.589844 206.667969 110.15625 217.472656 110.59375 217.472656 C 110.769531 217.472656 113.097656 214.664062 115.777344 211.238281 C 147.621094 170.257812 171.777344 129.320312 179.859375 102.617188 C 182.933594 92.515625 183.375 89.484375 183.375 79.558594 C 183.328125 71.871094 183.199219 69.894531 182.363281 65.941406 C 176.300781 37.964844 156.316406 16.75 129.085938 9.460938 C 120.566406 7.175781 108.96875 6.515625 100.316406 7.746094 Z M 119.027344 49.472656 C 129.527344 52.679688 137.300781 60.496094 140.59375 71.214844 C 142.042969 75.914062 142.042969 83.246094 140.59375 87.902344 C 137.035156 99.457031 129.085938 107.097656 117.710938 109.910156 C 110.550781 111.710938 101.460938 110.4375 95.089844 106.789062 C 88.589844 103.011719 83.671875 97.082031 80.902344 89.574219 C 79.851562 86.628906 79.71875 85.839844 79.71875 79.777344 C 79.71875 73.671875 79.804688 72.925781 80.949219 69.675781 C 83.714844 61.769531 89.511719 55.183594 96.804688 51.667969 C 102.207031 49.078125 105.71875 48.332031 111.78125 48.59375 C 114.460938 48.679688 117.667969 49.078125 119.027344 49.472656 Z M 119.027344 49.472656 " fill-opacity="1" fill-rule="nonzero"/></svg>