<svg xmlns="http://www.w3.org/2000/svg" xmlns:xlink="http://www.w3.org/1999/xlink" width="300" zoomAndPan="magnify" viewBox="0 0 224.87999 225" height="300" preserveAspectRatio="xMidYMid meet" version="1.0"><defs><clipPath id="8a048effb2"><path d="M 20 0.0585938 L 205 0.0585938 L 205 224.9375 L 20 224.9375 Z M 20 0.0585938 " clip-rule="nonzero"/></clipPath></defs><g clip-path="url(#8a048effb2)"><path fill="#e72d32" d="M 112.703125 -0.0390625 C 110.105469 -0.0390625 108.296875 0.964844 106.285156 2.066406 C 104.273438 3.164062 102.210938 4.519531 100.195312 5.894531 C 98.179688 7.265625 96.199219 8.671875 94.542969 9.730469 C 92.886719 10.785156 91.375 11.488281 91.179688 11.542969 C 90.980469 11.605469 89.324219 11.710938 87.359375 11.628906 C 85.390625 11.546875 83.011719 11.335938 80.574219 11.148438 C 78.136719 10.964844 75.640625 10.773438 73.34375 10.824219 C 71.046875 10.863281 68.972656 10.90625 66.722656 12.199219 C 64.472656 13.488281 63.40625 15.289062 62.21875 17.242188 C 61.027344 19.195312 59.9375 21.382812 58.882812 23.574219 C 57.828125 25.765625 56.824219 27.9375 55.921875 29.675781 C 55.019531 31.414062 54.074219 32.757812 53.929688 32.902344 C 53.785156 33.046875 52.390625 34.019531 50.640625 34.914062 C 48.894531 35.8125 46.710938 36.816406 44.503906 37.863281 C 42.300781 38.910156 40.097656 39.992188 38.132812 41.175781 C 36.167969 42.355469 34.394531 43.417969 33.097656 45.65625 C 31.796875 47.890625 31.761719 49.953125 31.714844 52.234375 C 31.667969 54.515625 31.800781 56.996094 31.992188 59.417969 C 32.183594 61.839844 32.386719 64.203125 32.480469 66.15625 C 32.570312 68.109375 32.453125 69.757812 32.40625 69.953125 C 32.347656 70.160156 31.640625 71.65625 30.578125 73.300781 C 29.511719 74.949219 28.140625 76.90625 26.757812 78.90625 C 25.375 80.910156 23.964844 82.925781 22.859375 84.921875 C 21.753906 86.925781 20.75 88.761719 20.75 91.339844 C 20.75 93.921875 21.753906 95.714844 22.859375 97.714844 C 23.964844 99.714844 25.375 101.765625 26.757812 103.769531 C 28.140625 105.769531 29.511719 107.734375 30.578125 109.378906 C 31.640625 111.027344 32.355469 112.496094 32.40625 112.691406 C 32.464844 112.898438 32.574219 114.574219 32.480469 116.527344 C 32.390625 118.480469 32.183594 120.84375 31.992188 123.265625 C 31.804688 125.6875 31.664062 128.132812 31.714844 130.414062 C 31.757812 132.695312 31.800781 134.792969 33.097656 137.027344 C 34.394531 139.265625 36.167969 140.328125 38.132812 141.507812 C 40.097656 142.691406 42.300781 143.765625 44.503906 144.8125 C 46.710938 145.859375 48.894531 146.863281 50.640625 147.761719 C 52.390625 148.65625 53.785156 149.597656 53.929688 149.742188 C 54.0625 149.878906 54.914062 151.101562 55.769531 152.699219 L 29.019531 198.785156 C 28.65625 199.40625 28.484375 200.074219 28.492188 200.789062 C 28.5 201.503906 28.695312 202.167969 29.070312 202.777344 C 29.445312 203.386719 29.949219 203.855469 30.585938 204.1875 C 31.21875 204.519531 31.894531 204.664062 32.609375 204.621094 L 55.230469 203.269531 L 65.363281 223.386719 C 65.683594 224.023438 66.144531 224.53125 66.746094 224.914062 C 67.347656 225.296875 68.003906 225.5 68.714844 225.519531 C 69.425781 225.542969 70.09375 225.378906 70.71875 225.035156 C 71.339844 224.6875 71.832031 224.207031 72.191406 223.59375 L 99.632812 176.363281 C 99.820312 176.496094 100.003906 176.613281 100.195312 176.746094 C 102.210938 178.117188 104.273438 179.480469 106.285156 180.582031 C 108.296875 181.679688 110.105469 182.675781 112.703125 182.675781 C 115.300781 182.675781 117.109375 181.679688 119.121094 180.582031 C 121.132812 179.480469 123.195312 178.117188 125.214844 176.746094 C 125.40625 176.613281 125.589844 176.488281 125.785156 176.355469 L 153.203125 223.59375 C 153.5625 224.210938 154.050781 224.691406 154.675781 225.039062 C 155.300781 225.386719 155.96875 225.550781 156.683594 225.527344 C 157.394531 225.507812 158.054688 225.304688 158.65625 224.921875 C 159.257812 224.535156 159.71875 224.027344 160.039062 223.386719 L 170.171875 203.269531 L 192.789062 204.621094 C 193.507812 204.667969 194.1875 204.527344 194.824219 204.199219 C 195.464844 203.871094 195.976562 203.402344 196.355469 202.792969 C 196.734375 202.179688 196.929688 201.515625 196.941406 200.796875 C 196.949219 200.078125 196.773438 199.40625 196.414062 198.785156 L 169.632812 152.710938 C 170.488281 151.109375 171.339844 149.878906 171.476562 149.742188 C 171.625 149.597656 173.015625 148.65625 174.765625 147.761719 C 176.515625 146.863281 178.691406 145.859375 180.894531 144.8125 C 183.101562 143.765625 185.3125 142.691406 187.277344 141.507812 C 189.242188 140.328125 191.011719 139.265625 192.3125 137.027344 C 193.609375 134.792969 193.644531 132.695312 193.695312 130.414062 C 193.738281 128.132812 193.605469 125.6875 193.414062 123.265625 C 193.222656 120.84375 193.015625 118.480469 192.921875 116.527344 C 192.832031 114.574219 192.949219 112.890625 193.007812 112.691406 C 193.066406 112.484375 193.777344 111.027344 194.839844 109.378906 C 195.902344 107.734375 197.269531 105.769531 198.652344 103.769531 C 200.035156 101.765625 201.449219 99.714844 202.554688 97.714844 C 203.664062 95.714844 204.621094 93.921875 204.621094 91.339844 C 204.621094 88.761719 203.660156 86.921875 202.554688 84.921875 C 201.449219 82.921875 200.035156 80.910156 198.652344 78.90625 C 197.269531 76.90625 195.902344 74.949219 194.839844 73.300781 C 193.773438 71.65625 193.0625 70.148438 193.007812 69.953125 C 192.949219 69.746094 192.832031 68.109375 192.921875 66.15625 C 193.007812 64.203125 193.222656 61.839844 193.414062 59.417969 C 193.605469 56.996094 193.742188 54.515625 193.695312 52.234375 C 193.652344 49.953125 193.605469 47.890625 192.3125 45.65625 C 191.011719 43.417969 189.242188 42.355469 187.277344 41.175781 C 185.3125 39.992188 183.101562 38.910156 180.894531 37.863281 C 178.691406 36.816406 176.515625 35.8125 174.765625 34.914062 C 173.015625 34.019531 171.621094 33.046875 171.476562 32.902344 C 171.332031 32.757812 170.390625 31.410156 169.488281 29.675781 C 168.585938 27.9375 167.570312 25.765625 166.519531 23.574219 C 165.464844 21.382812 164.378906 19.191406 163.191406 17.242188 C 162 15.289062 160.929688 13.488281 158.679688 12.199219 C 156.429688 10.90625 154.359375 10.871094 152.0625 10.824219 C 149.765625 10.78125 147.269531 10.972656 144.832031 11.148438 C 142.394531 11.335938 140.015625 11.535156 138.050781 11.628906 C 136.085938 11.710938 134.425781 11.605469 134.230469 11.542969 C 134.03125 11.480469 132.511719 10.785156 130.855469 9.726562 C 129.199219 8.671875 127.230469 7.265625 125.214844 5.894531 C 123.199219 4.519531 121.132812 3.164062 119.121094 2.066406 C 117.109375 0.964844 115.300781 -0.0390625 112.703125 -0.0390625 Z M 112.695312 7.730469 C 112.855469 7.804688 114.042969 8.105469 115.386719 8.839844 C 116.949219 9.695312 118.867188 10.980469 120.824219 12.3125 C 122.777344 13.644531 124.753906 15.03125 126.632812 16.230469 C 128.515625 17.429688 130.128906 18.457031 132.203125 19.011719 C 134.273438 19.5625 136.183594 19.480469 138.414062 19.375 C 140.648438 19.273438 143.078125 19.035156 145.441406 18.851562 C 147.804688 18.664062 150.113281 18.53125 151.894531 18.570312 C 153.429688 18.605469 154.605469 18.941406 154.773438 18.957031 C 154.894531 19.113281 155.75 19.953125 156.53125 21.234375 C 157.453125 22.753906 158.46875 24.800781 159.492188 26.925781 C 160.515625 29.050781 161.511719 31.25 162.539062 33.222656 C 163.5625 35.195312 164.4375 36.878906 165.957031 38.386719 C 167.472656 39.894531 169.164062 40.753906 171.152344 41.773438 C 173.136719 42.792969 175.390625 43.828125 177.53125 44.84375 C 179.667969 45.859375 181.730469 46.871094 183.257812 47.789062 C 184.558594 48.570312 185.40625 49.429688 185.550781 49.535156 C 185.566406 49.71875 185.863281 50.882812 185.894531 52.390625 C 185.9375 54.164062 185.792969 56.460938 185.613281 58.808594 C 185.429688 61.160156 185.234375 63.574219 185.128906 65.789062 C 185.023438 68.007812 184.890625 69.90625 185.445312 71.964844 C 186 74.027344 187.042969 75.625 188.25 77.496094 C 189.457031 79.363281 190.886719 81.324219 192.230469 83.265625 C 193.570312 85.210938 194.824219 87.121094 195.683594 88.675781 C 196.417969 89.996094 196.726562 91.164062 196.800781 91.332031 C 196.726562 91.484375 196.421875 92.628906 195.683594 93.960938 C 194.824219 95.515625 193.570312 97.425781 192.230469 99.371094 C 190.886719 101.3125 189.457031 103.3125 188.25 105.179688 C 187.039062 107.046875 186 108.648438 185.445312 110.710938 C 184.890625 112.769531 185.019531 114.667969 185.128906 116.886719 C 185.230469 119.101562 185.429688 121.515625 185.613281 123.863281 C 185.796875 126.214844 185.933594 128.472656 185.894531 130.246094 C 185.863281 131.753906 185.566406 132.917969 185.550781 133.101562 C 185.402344 133.207031 184.558594 134.0625 183.257812 134.847656 C 181.730469 135.765625 179.667969 136.816406 177.53125 137.832031 C 175.390625 138.851562 173.136719 139.84375 171.152344 140.863281 C 169.164062 141.882812 167.472656 142.742188 165.957031 144.25 C 164.4375 145.757812 163.5625 147.441406 162.539062 149.417969 C 161.511719 151.390625 160.515625 153.625 159.492188 155.75 C 158.46875 157.875 157.453125 159.882812 156.53125 161.402344 C 155.746094 162.6875 154.890625 163.554688 154.773438 163.71875 C 154.609375 163.726562 153.429688 164.035156 151.894531 164.066406 C 150.113281 164.109375 147.804688 163.964844 145.441406 163.785156 C 143.078125 163.601562 140.648438 163.367188 138.414062 163.261719 C 136.183594 163.160156 134.273438 163.070312 132.203125 163.621094 C 130.128906 164.171875 128.515625 165.207031 126.632812 166.40625 C 124.753906 167.609375 122.777344 169.03125 120.824219 170.363281 C 118.867188 171.695312 116.949219 172.941406 115.386719 173.796875 C 114.042969 174.53125 112.851562 174.832031 112.695312 174.90625 C 112.523438 174.832031 111.351562 174.523438 110.023438 173.796875 C 108.460938 172.941406 106.53125 171.695312 104.578125 170.363281 C 102.621094 169.03125 100.652344 167.605469 98.773438 166.40625 C 96.894531 165.207031 95.28125 164.171875 93.207031 163.621094 C 91.132812 163.066406 89.226562 163.15625 86.992188 163.261719 C 84.761719 163.367188 82.332031 163.605469 79.96875 163.785156 C 77.605469 163.972656 75.289062 164.105469 73.503906 164.066406 C 71.996094 164.03125 70.839844 163.742188 70.640625 163.726562 C 70.539062 163.582031 69.671875 162.703125 68.878906 161.402344 C 67.953125 159.886719 66.929688 157.875 65.910156 155.75 C 64.886719 153.625 63.886719 151.390625 62.863281 149.417969 C 61.839844 147.441406 60.96875 145.757812 59.453125 144.25 C 57.933594 142.742188 56.199219 141.882812 54.210938 140.863281 C 52.226562 139.84375 50.015625 138.847656 47.878906 137.832031 C 45.738281 136.816406 43.675781 135.765625 42.148438 134.847656 C 40.855469 134.070312 40.011719 133.214844 39.855469 133.101562 C 39.84375 132.917969 39.539062 131.753906 39.507812 130.246094 C 39.460938 128.472656 39.609375 126.214844 39.792969 123.863281 C 39.976562 121.515625 40.175781 119.101562 40.28125 116.886719 C 40.382812 114.667969 40.511719 112.769531 39.953125 110.710938 C 39.398438 108.648438 38.359375 107.046875 37.152344 105.179688 C 35.945312 103.3125 34.511719 101.3125 33.171875 99.371094 C 31.832031 97.425781 30.582031 95.515625 29.722656 93.960938 C 28.988281 92.632812 28.679688 91.484375 28.605469 91.332031 C 28.679688 91.160156 28.992188 89.996094 29.722656 88.675781 C 30.582031 87.121094 31.832031 85.210938 33.171875 83.269531 C 34.511719 81.324219 35.945312 79.363281 37.152344 77.496094 C 38.359375 75.628906 39.398438 74.027344 39.953125 71.964844 C 40.511719 69.90625 40.386719 68.007812 40.28125 65.789062 C 40.179688 63.574219 39.976562 61.160156 39.792969 58.808594 C 39.609375 56.460938 39.46875 54.164062 39.507812 52.390625 C 39.535156 50.882812 39.84375 49.71875 39.855469 49.535156 C 40.011719 49.421875 40.855469 48.570312 42.148438 47.789062 C 43.675781 46.871094 45.738281 45.859375 47.878906 44.84375 C 50.015625 43.824219 52.226562 42.792969 54.210938 41.773438 C 56.199219 40.753906 57.933594 39.894531 59.453125 38.386719 C 60.96875 36.878906 61.839844 35.195312 62.863281 33.222656 C 63.886719 31.246094 64.886719 29.050781 65.910156 26.925781 C 66.933594 24.800781 67.953125 22.753906 68.878906 21.234375 C 69.667969 19.941406 70.527344 19.097656 70.632812 18.949219 C 70.816406 18.925781 71.984375 18.601562 73.503906 18.570312 C 75.289062 18.527344 77.605469 18.671875 79.96875 18.851562 C 82.332031 19.035156 84.761719 19.269531 86.992188 19.375 C 89.226562 19.476562 91.132812 19.558594 93.207031 19.011719 C 95.28125 18.457031 96.894531 17.429688 98.773438 16.230469 C 100.652344 15.03125 102.621094 13.644531 104.578125 12.3125 C 106.53125 10.976562 108.460938 9.695312 110.023438 8.839844 C 111.351562 8.113281 112.523438 7.808594 112.695312 7.730469 Z M 112.695312 32.691406 C 80.1875 32.691406 53.734375 58.992188 53.734375 91.339844 C 53.734375 123.691406 80.1875 149.957031 112.695312 149.957031 C 145.207031 149.957031 171.667969 123.691406 171.667969 91.339844 C 171.667969 58.992188 145.207031 32.691406 112.695312 32.691406 Z M 112.695312 40.46875 C 141.03125 40.46875 163.882812 63.222656 163.882812 91.339844 C 163.882812 119.460938 141.03125 142.175781 112.695312 142.175781 C 84.363281 142.175781 61.519531 119.460938 61.519531 91.339844 C 61.519531 63.222656 84.363281 40.46875 112.695312 40.46875 Z M 112.695312 70.644531 C 112.148438 70.648438 111.625 70.761719 111.125 70.984375 C 110.625 71.210938 110.191406 71.527344 109.824219 71.933594 L 101.273438 81.375 L 86.636719 71.328125 C 86.316406 71.109375 85.972656 70.945312 85.605469 70.832031 C 85.238281 70.714844 84.863281 70.65625 84.476562 70.65625 C 84.089844 70.652344 83.714844 70.707031 83.34375 70.816406 C 82.976562 70.925781 82.628906 71.085938 82.308594 71.300781 C 81.988281 71.511719 81.703125 71.765625 81.457031 72.0625 C 81.210938 72.359375 81.015625 72.6875 80.863281 73.042969 C 80.714844 73.398438 80.621094 73.765625 80.582031 74.148438 C 80.542969 74.535156 80.5625 74.914062 80.636719 75.292969 L 87.207031 108.847656 C 87.292969 109.292969 87.449219 109.710938 87.679688 110.101562 C 87.910156 110.488281 88.199219 110.828125 88.546875 111.117188 C 88.894531 111.40625 89.285156 111.625 89.710938 111.777344 C 90.136719 111.933594 90.574219 112.007812 91.027344 112.007812 L 134.375 112.007812 C 134.828125 112.007812 135.265625 111.933594 135.691406 111.777344 C 136.117188 111.625 136.503906 111.40625 136.851562 111.117188 C 137.203125 110.828125 137.492188 110.488281 137.722656 110.101562 C 137.953125 109.710938 138.109375 109.292969 138.195312 108.847656 L 144.765625 75.292969 C 144.839844 74.914062 144.855469 74.535156 144.816406 74.148438 C 144.777344 73.765625 144.683594 73.398438 144.535156 73.042969 C 144.386719 72.6875 144.1875 72.359375 143.945312 72.0625 C 143.699219 71.765625 143.414062 71.511719 143.09375 71.300781 C 142.769531 71.085938 142.425781 70.925781 142.054688 70.816406 C 141.6875 70.707031 141.308594 70.652344 140.925781 70.65625 C 140.539062 70.65625 140.160156 70.714844 139.792969 70.832031 C 139.425781 70.945312 139.082031 71.109375 138.765625 71.328125 L 124.152344 81.375 L 115.566406 71.933594 C 115.203125 71.527344 114.769531 71.210938 114.269531 70.984375 C 113.769531 70.761719 113.246094 70.648438 112.695312 70.644531 Z M 112.695312 80.34375 L 120.648438 89.132812 C 120.964844 89.480469 121.332031 89.761719 121.75 89.976562 C 122.167969 90.195312 122.609375 90.328125 123.078125 90.382812 C 123.542969 90.441406 124.007812 90.410156 124.460938 90.296875 C 124.917969 90.1875 125.34375 89.996094 125.730469 89.730469 L 135.324219 83.128906 L 131.183594 104.230469 L 94.210938 104.230469 L 90.109375 83.128906 L 99.671875 89.730469 C 100.058594 89.996094 100.480469 90.183594 100.9375 90.296875 C 101.390625 90.40625 101.851562 90.4375 102.320312 90.382812 C 102.785156 90.328125 103.226562 90.191406 103.644531 89.976562 C 104.0625 89.761719 104.429688 89.480469 104.742188 89.132812 Z M 59.878906 161.113281 C 60.625 162.617188 61.398438 164.097656 62.21875 165.441406 C 63.40625 167.394531 64.472656 169.15625 66.722656 170.449219 C 68.972656 171.738281 71.046875 171.765625 73.34375 171.816406 C 75.640625 171.855469 78.136719 171.714844 80.574219 171.535156 C 83.011719 171.347656 85.390625 171.101562 87.359375 171.007812 C 89.324219 170.925781 90.980469 171.070312 91.179688 171.132812 C 91.3125 171.175781 92.097656 171.53125 93.101562 172.089844 L 69.089844 213.492188 L 61.023438 197.496094 C 60.855469 197.15625 60.640625 196.847656 60.378906 196.570312 C 60.121094 196.292969 59.828125 196.058594 59.496094 195.867188 C 59.167969 195.675781 58.820312 195.535156 58.449219 195.445312 C 58.082031 195.359375 57.707031 195.324219 57.324219 195.347656 L 39.386719 196.441406 Z M 165.523438 161.113281 L 186.015625 196.429688 L 168.105469 195.34375 C 167.726562 195.324219 167.347656 195.355469 166.980469 195.445312 C 166.609375 195.53125 166.257812 195.671875 165.929688 195.863281 C 165.597656 196.054688 165.304688 196.289062 165.042969 196.566406 C 164.785156 196.84375 164.566406 197.152344 164.398438 197.496094 L 156.332031 213.484375 L 132.292969 172.097656 C 133.304688 171.53125 134.09375 171.167969 134.230469 171.132812 C 134.425781 171.070312 136.085938 170.921875 138.050781 171.007812 C 140.015625 171.089844 142.394531 171.34375 144.832031 171.535156 C 147.269531 171.71875 149.765625 171.863281 152.0625 171.8125 C 154.359375 171.773438 156.429688 171.738281 158.679688 170.445312 C 160.929688 169.15625 162 167.394531 163.191406 165.441406 C 164.007812 164.097656 164.777344 162.617188 165.523438 161.113281 Z M 165.523438 161.113281 " fill-opacity="1" fill-rule="nonzero"/></g></svg>