<svg xmlns="http://www.w3.org/2000/svg" xmlns:xlink="http://www.w3.org/1999/xlink" width="300" zoomAndPan="magnify" viewBox="0 0 224.87999 225" height="300" preserveAspectRatio="xMidYMid meet" version="1.0"><defs><clipPath id="c02ef4abcc"><path d="M 0 0.0585938 L 224.761719 0.0585938 L 224.761719 224.9375 L 0 224.9375 Z M 0 0.0585938 " clip-rule="nonzero"/></clipPath></defs><g clip-path="url(#c02ef4abcc)"><path fill="#e72d32" d="M 192.925781 20.503906 L 173.769531 20.503906 L 173.769531 10.28125 C 173.769531 9.609375 173.707031 8.945312 173.574219 8.289062 C 173.445312 7.628906 173.25 6.988281 172.992188 6.371094 C 172.734375 5.75 172.421875 5.160156 172.046875 4.601562 C 171.675781 4.042969 171.25 3.527344 170.777344 3.054688 C 170.300781 2.578125 169.785156 2.15625 169.226562 1.78125 C 168.667969 1.410156 168.082031 1.09375 167.460938 0.839844 C 166.839844 0.582031 166.203125 0.386719 165.542969 0.257812 C 164.886719 0.125 164.21875 0.0585938 163.550781 0.0585938 C 162.878906 0.0585938 162.214844 0.125 161.554688 0.257812 C 160.898438 0.386719 160.257812 0.582031 159.636719 0.839844 C 159.015625 1.09375 158.429688 1.410156 157.871094 1.78125 C 157.3125 2.15625 156.796875 2.578125 156.320312 3.054688 C 155.847656 3.527344 155.421875 4.042969 155.050781 4.601562 C 154.675781 5.160156 154.363281 5.75 154.105469 6.371094 C 153.847656 6.988281 153.65625 7.628906 153.523438 8.289062 C 153.394531 8.945312 153.328125 9.609375 153.328125 10.28125 L 153.328125 20.503906 L 122.660156 20.503906 L 122.660156 10.28125 C 122.660156 9.609375 122.597656 8.945312 122.464844 8.289062 C 122.335938 7.628906 122.140625 6.988281 121.882812 6.371094 C 121.625 5.75 121.3125 5.160156 120.9375 4.601562 C 120.566406 4.042969 120.140625 3.527344 119.667969 3.054688 C 119.191406 2.578125 118.675781 2.15625 118.117188 1.78125 C 117.5625 1.410156 116.972656 1.09375 116.351562 0.839844 C 115.730469 0.582031 115.09375 0.386719 114.433594 0.257812 C 113.777344 0.125 113.109375 0.0585938 112.441406 0.0585938 C 111.769531 0.0585938 111.105469 0.125 110.445312 0.257812 C 109.789062 0.386719 109.148438 0.582031 108.527344 0.839844 C 107.90625 1.09375 107.320312 1.410156 106.761719 1.78125 C 106.203125 2.15625 105.6875 2.578125 105.210938 3.054688 C 104.738281 3.527344 104.3125 4.042969 103.941406 4.601562 C 103.566406 5.160156 103.253906 5.75 102.996094 6.371094 C 102.738281 6.988281 102.546875 7.628906 102.414062 8.289062 C 102.285156 8.945312 102.21875 9.609375 102.21875 10.28125 L 102.21875 20.503906 L 71.550781 20.503906 L 71.550781 10.28125 C 71.550781 9.609375 71.488281 8.945312 71.355469 8.289062 C 71.226562 7.628906 71.03125 6.988281 70.773438 6.371094 C 70.519531 5.75 70.203125 5.160156 69.828125 4.601562 C 69.457031 4.042969 69.035156 3.527344 68.558594 3.054688 C 68.085938 2.578125 67.566406 2.15625 67.011719 1.78125 C 66.453125 1.410156 65.863281 1.09375 65.242188 0.839844 C 64.621094 0.582031 63.984375 0.386719 63.324219 0.257812 C 62.667969 0.125 62.003906 0.0585938 61.332031 0.0585938 C 60.660156 0.0585938 59.996094 0.125 59.335938 0.257812 C 58.679688 0.386719 58.039062 0.582031 57.417969 0.839844 C 56.800781 1.09375 56.210938 1.410156 55.652344 1.78125 C 55.09375 2.15625 54.578125 2.578125 54.101562 3.054688 C 53.628906 3.527344 53.203125 4.042969 52.832031 4.601562 C 52.457031 5.160156 52.144531 5.75 51.886719 6.371094 C 51.628906 6.988281 51.4375 7.628906 51.304688 8.289062 C 51.175781 8.945312 51.109375 9.609375 51.109375 10.28125 L 51.109375 20.503906 L 31.953125 20.503906 C 30.90625 20.503906 29.863281 20.558594 28.824219 20.660156 C 27.78125 20.761719 26.75 20.917969 25.722656 21.121094 C 24.695312 21.328125 23.683594 21.582031 22.683594 21.886719 C 21.683594 22.191406 20.699219 22.542969 19.734375 22.941406 C 18.765625 23.34375 17.820312 23.789062 16.898438 24.285156 C 15.976562 24.777344 15.082031 25.316406 14.210938 25.894531 C 13.34375 26.476562 12.503906 27.101562 11.695312 27.761719 C 10.886719 28.425781 10.109375 29.128906 9.371094 29.867188 C 8.632812 30.609375 7.929688 31.382812 7.265625 32.191406 C 6.601562 33 5.980469 33.835938 5.398438 34.707031 C 4.816406 35.574219 4.277344 36.472656 3.785156 37.394531 C 3.292969 38.316406 2.84375 39.261719 2.445312 40.226562 C 2.042969 41.191406 1.691406 42.175781 1.386719 43.175781 C 1.082031 44.175781 0.824219 45.191406 0.621094 46.214844 C 0.414062 47.242188 0.261719 48.277344 0.15625 49.316406 C 0.0546875 50.355469 0 51.402344 0 52.445312 L 0 192.996094 C 0 194.042969 0.0546875 195.085938 0.15625 196.128906 C 0.261719 197.167969 0.414062 198.203125 0.621094 199.226562 C 0.824219 200.253906 1.082031 201.265625 1.386719 202.265625 C 1.691406 203.265625 2.042969 204.25 2.445312 205.21875 C 2.84375 206.183594 3.292969 207.128906 3.785156 208.050781 C 4.277344 208.972656 4.816406 209.867188 5.398438 210.738281 C 5.980469 211.605469 6.601562 212.445312 7.265625 213.253906 C 7.929688 214.0625 8.632812 214.835938 9.371094 215.574219 C 10.109375 216.316406 10.886719 217.015625 11.695312 217.679688 C 12.503906 218.34375 13.34375 218.964844 14.210938 219.546875 C 15.082031 220.128906 15.976562 220.667969 16.898438 221.160156 C 17.820312 221.652344 18.765625 222.101562 19.734375 222.5 C 20.699219 222.902344 21.683594 223.253906 22.683594 223.558594 C 23.683594 223.863281 24.695312 224.117188 25.722656 224.320312 C 26.75 224.527344 27.78125 224.679688 28.824219 224.785156 C 29.863281 224.886719 30.90625 224.9375 31.953125 224.941406 L 192.925781 224.941406 C 193.972656 224.9375 195.015625 224.886719 196.058594 224.785156 C 197.097656 224.679688 198.132812 224.527344 199.15625 224.320312 C 200.183594 224.117188 201.195312 223.863281 202.195312 223.558594 C 203.199219 223.253906 204.179688 222.902344 205.148438 222.5 C 206.113281 222.101562 207.058594 221.652344 207.980469 221.160156 C 208.902344 220.667969 209.800781 220.128906 210.667969 219.546875 C 211.539062 218.964844 212.378906 218.34375 213.1875 217.679688 C 213.996094 217.015625 214.769531 216.316406 215.507812 215.574219 C 216.25 214.835938 216.949219 214.0625 217.613281 213.253906 C 218.277344 212.445312 218.898438 211.605469 219.480469 210.738281 C 220.0625 209.867188 220.601562 208.972656 221.09375 208.050781 C 221.589844 207.128906 222.035156 206.183594 222.4375 205.21875 C 222.835938 204.25 223.191406 203.265625 223.496094 202.265625 C 223.800781 201.265625 224.054688 200.253906 224.257812 199.226562 C 224.464844 198.203125 224.617188 197.167969 224.722656 196.128906 C 224.824219 195.085938 224.878906 194.042969 224.878906 192.996094 L 224.878906 52.445312 C 224.878906 51.402344 224.824219 50.355469 224.722656 49.316406 C 224.617188 48.277344 224.464844 47.242188 224.257812 46.214844 C 224.054688 45.191406 223.800781 44.175781 223.496094 43.175781 C 223.191406 42.175781 222.835938 41.191406 222.4375 40.226562 C 222.035156 39.261719 221.589844 38.316406 221.09375 37.394531 C 220.601562 36.472656 220.0625 35.574219 219.480469 34.707031 C 218.898438 33.835938 218.277344 33 217.613281 32.191406 C 216.949219 31.382812 216.25 30.609375 215.507812 29.867188 C 214.769531 29.128906 213.996094 28.425781 213.1875 27.761719 C 212.378906 27.101562 211.539062 26.476562 210.667969 25.894531 C 209.800781 25.316406 208.902344 24.777344 207.980469 24.285156 C 207.058594 23.789062 206.113281 23.34375 205.148438 22.941406 C 204.179688 22.542969 203.199219 22.191406 202.195312 21.886719 C 201.195312 21.582031 200.183594 21.328125 199.15625 21.121094 C 198.132812 20.917969 197.097656 20.761719 196.058594 20.660156 C 195.015625 20.558594 193.972656 20.503906 192.925781 20.503906 Z M 20.445312 52.445312 C 20.445312 51.691406 20.519531 50.945312 20.667969 50.203125 C 20.816406 49.464844 21.035156 48.746094 21.324219 48.046875 C 21.613281 47.351562 21.96875 46.6875 22.390625 46.058594 C 22.808594 45.433594 23.289062 44.851562 23.820312 44.316406 C 24.355469 43.785156 24.9375 43.308594 25.566406 42.886719 C 26.191406 42.46875 26.855469 42.113281 27.554688 41.824219 C 28.25 41.535156 28.96875 41.316406 29.710938 41.167969 C 30.449219 41.023438 31.199219 40.949219 31.953125 40.949219 L 51.109375 40.949219 L 51.109375 51.167969 C 51.109375 51.839844 51.175781 52.503906 51.304688 53.164062 C 51.4375 53.820312 51.628906 54.460938 51.886719 55.082031 C 52.144531 55.699219 52.457031 56.289062 52.832031 56.847656 C 53.203125 57.40625 53.628906 57.921875 54.101562 58.398438 C 54.578125 58.871094 55.09375 59.296875 55.652344 59.667969 C 56.210938 60.042969 56.800781 60.355469 57.417969 60.613281 C 58.039062 60.871094 58.679688 61.0625 59.335938 61.195312 C 59.996094 61.324219 60.660156 61.390625 61.332031 61.390625 C 62.003906 61.390625 62.667969 61.324219 63.324219 61.195312 C 63.984375 61.0625 64.621094 60.871094 65.242188 60.613281 C 65.863281 60.355469 66.453125 60.042969 67.011719 59.667969 C 67.566406 59.296875 68.085938 58.871094 68.558594 58.398438 C 69.035156 57.921875 69.457031 57.40625 69.828125 56.847656 C 70.203125 56.289062 70.519531 55.699219 70.773438 55.082031 C 71.03125 54.460938 71.226562 53.820312 71.355469 53.164062 C 71.488281 52.503906 71.550781 51.839844 71.550781 51.167969 L 71.550781 40.949219 L 102.21875 40.949219 L 102.21875 51.167969 C 102.21875 51.839844 102.285156 52.503906 102.414062 53.164062 C 102.546875 53.820312 102.738281 54.460938 102.996094 55.082031 C 103.253906 55.699219 103.566406 56.289062 103.941406 56.847656 C 104.3125 57.40625 104.738281 57.921875 105.210938 58.398438 C 105.6875 58.871094 106.203125 59.296875 106.761719 59.667969 C 107.320312 60.042969 107.90625 60.355469 108.527344 60.613281 C 109.148438 60.871094 109.789062 61.0625 110.445312 61.195312 C 111.105469 61.324219 111.769531 61.390625 112.441406 61.390625 C 113.109375 61.390625 113.777344 61.324219 114.433594 61.195312 C 115.09375 61.0625 115.730469 60.871094 116.351562 60.613281 C 116.972656 60.355469 117.5625 60.042969 118.117188 59.667969 C 118.675781 59.296875 119.191406 58.871094 119.667969 58.398438 C 120.140625 57.921875 120.566406 57.40625 120.9375 56.847656 C 121.3125 56.289062 121.625 55.699219 121.882812 55.082031 C 122.140625 54.460938 122.335938 53.820312 122.464844 53.164062 C 122.597656 52.503906 122.660156 51.839844 122.660156 51.167969 L 122.660156 40.949219 L 153.328125 40.949219 L 153.328125 51.167969 C 153.328125 51.839844 153.394531 52.503906 153.523438 53.164062 C 153.65625 53.820312 153.847656 54.460938 154.105469 55.082031 C 154.363281 55.699219 154.675781 56.289062 155.050781 56.847656 C 155.421875 57.40625 155.847656 57.921875 156.320312 58.398438 C 156.796875 58.871094 157.3125 59.296875 157.871094 59.667969 C 158.429688 60.042969 159.015625 60.355469 159.636719 60.613281 C 160.257812 60.871094 160.898438 61.0625 161.554688 61.195312 C 162.214844 61.324219 162.878906 61.390625 163.550781 61.390625 C 164.21875 61.390625 164.886719 61.324219 165.542969 61.195312 C 166.203125 61.0625 166.839844 60.871094 167.460938 60.613281 C 168.082031 60.355469 168.667969 60.042969 169.226562 59.667969 C 169.785156 59.296875 170.300781 58.871094 170.777344 58.398438 C 171.25 57.921875 171.675781 57.40625 172.046875 56.847656 C 172.421875 56.289062 172.734375 55.699219 172.992188 55.082031 C 173.25 54.460938 173.445312 53.820312 173.574219 53.164062 C 173.707031 52.503906 173.769531 51.839844 173.769531 51.167969 L 173.769531 40.949219 L 192.925781 40.949219 C 193.683594 40.949219 194.429688 41.023438 195.171875 41.167969 C 195.910156 41.316406 196.628906 41.535156 197.328125 41.824219 C 198.023438 42.113281 198.6875 42.46875 199.316406 42.886719 C 199.941406 43.308594 200.523438 43.785156 201.058594 44.316406 C 201.59375 44.851562 202.070312 45.433594 202.488281 46.058594 C 202.910156 46.6875 203.265625 47.351562 203.554688 48.046875 C 203.84375 48.746094 204.0625 49.464844 204.210938 50.203125 C 204.359375 50.945312 204.433594 51.691406 204.4375 52.445312 L 204.4375 81.835938 L 20.445312 81.835938 Z M 204.4375 192.996094 C 204.433594 193.75 204.359375 194.5 204.210938 195.238281 C 204.0625 195.980469 203.84375 196.699219 203.554688 197.398438 C 203.265625 198.09375 202.910156 198.757812 202.488281 199.382812 C 202.070312 200.011719 201.59375 200.59375 201.058594 201.125 C 200.523438 201.660156 199.945312 202.136719 199.316406 202.554688 C 198.6875 202.976562 198.023438 203.328125 197.328125 203.617188 C 196.628906 203.90625 195.910156 204.125 195.171875 204.273438 C 194.429688 204.421875 193.683594 204.496094 192.925781 204.496094 L 31.953125 204.496094 C 31.199219 204.496094 30.449219 204.421875 29.710938 204.273438 C 28.96875 204.125 28.25 203.90625 27.554688 203.617188 C 26.855469 203.328125 26.191406 202.976562 25.566406 202.554688 C 24.9375 202.136719 24.355469 201.660156 23.820312 201.125 C 23.289062 200.59375 22.808594 200.011719 22.390625 199.382812 C 21.96875 198.757812 21.613281 198.09375 21.324219 197.398438 C 21.035156 196.699219 20.816406 195.980469 20.667969 195.238281 C 20.519531 194.5 20.445312 193.75 20.445312 192.996094 L 20.445312 102.277344 L 204.4375 102.277344 Z M 204.4375 192.996094 " fill-opacity="1" fill-rule="nonzero"/></g><path fill="#e72d32" d="M 94.992188 181.058594 C 95.464844 181.53125 95.980469 181.957031 96.539062 182.328125 C 97.097656 182.703125 97.6875 183.015625 98.308594 183.273438 C 98.925781 183.53125 99.566406 183.722656 100.222656 183.855469 C 100.882812 183.984375 101.546875 184.050781 102.21875 184.050781 C 102.890625 184.050781 103.554688 183.984375 104.210938 183.855469 C 104.871094 183.722656 105.507812 183.53125 106.128906 183.273438 C 106.75 183.015625 107.339844 182.703125 107.894531 182.328125 C 108.453125 181.957031 108.96875 181.53125 109.445312 181.058594 L 150.332031 140.171875 C 150.792969 139.691406 151.203125 139.175781 151.5625 138.617188 C 151.925781 138.0625 152.226562 137.472656 152.472656 136.859375 C 152.71875 136.242188 152.902344 135.605469 153.027344 134.953125 C 153.148438 134.300781 153.207031 133.644531 153.199219 132.980469 C 153.195312 132.316406 153.125 131.660156 152.992188 131.011719 C 152.859375 130.359375 152.664062 129.730469 152.40625 129.117188 C 152.148438 128.503906 151.835938 127.921875 151.464844 127.371094 C 151.097656 126.820312 150.675781 126.3125 150.207031 125.839844 C 149.738281 125.371094 149.226562 124.953125 148.675781 124.582031 C 148.125 124.210938 147.542969 123.898438 146.933594 123.644531 C 146.320312 123.386719 145.6875 123.191406 145.039062 123.058594 C 144.390625 122.921875 143.730469 122.855469 143.070312 122.847656 C 142.40625 122.84375 141.746094 122.902344 141.09375 123.023438 C 140.441406 123.144531 139.808594 123.328125 139.191406 123.574219 C 138.574219 123.820312 137.988281 124.125 137.429688 124.484375 C 136.875 124.84375 136.355469 125.253906 135.878906 125.71875 L 102.21875 159.378906 L 89 146.160156 C 88.523438 145.699219 88.007812 145.289062 87.449219 144.929688 C 86.890625 144.566406 86.304688 144.265625 85.6875 144.019531 C 85.070312 143.773438 84.4375 143.589844 83.785156 143.464844 C 83.132812 143.34375 82.476562 143.285156 81.8125 143.292969 C 81.148438 143.296875 80.492188 143.367188 79.839844 143.5 C 79.191406 143.632812 78.558594 143.828125 77.949219 144.085938 C 77.335938 144.34375 76.753906 144.65625 76.203125 145.027344 C 75.652344 145.394531 75.140625 145.816406 74.671875 146.285156 C 74.203125 146.753906 73.78125 147.265625 73.414062 147.816406 C 73.042969 148.367188 72.730469 148.949219 72.472656 149.558594 C 72.214844 150.171875 72.023438 150.804688 71.886719 151.453125 C 71.753906 152.101562 71.683594 152.761719 71.679688 153.425781 C 71.671875 154.085938 71.730469 154.746094 71.855469 155.398438 C 71.976562 156.050781 72.160156 156.683594 72.40625 157.300781 C 72.652344 157.917969 72.957031 158.503906 73.316406 159.0625 C 73.675781 159.621094 74.085938 160.136719 74.546875 160.613281 Z M 94.992188 181.058594 " fill-opacity="1" fill-rule="nonzero"/></svg>