<svg xmlns="http://www.w3.org/2000/svg" xmlns:xlink="http://www.w3.org/1999/xlink" width="300" zoomAndPan="magnify" viewBox="0 0 224.87999 225" height="300" preserveAspectRatio="xMidYMid meet" version="1.0"><path fill="#fc2c35" d="M 145.945312 196.382812 L 8.867188 196.382812 C 5.011719 196.382812 2.011719 199.808594 2.011719 203.234375 L 2.011719 216.945312 C 2.011719 220.796875 5.011719 223.796875 8.867188 223.796875 L 145.945312 223.796875 C 149.371094 223.796875 152.800781 220.796875 152.800781 216.945312 L 152.800781 203.234375 C 152.800781 199.808594 149.371094 196.382812 145.945312 196.382812 Z M 213.199219 50.738281 L 178.5 16.039062 C 175.929688 13.46875 171.21875 13.46875 168.648438 16.039062 L 163.9375 20.75 C 161.367188 23.320312 161.367188 27.605469 163.9375 30.605469 L 180.214844 46.453125 L 180.214844 73.011719 C 180.214844 85.433594 188.78125 95.289062 200.777344 97 L 200.777344 165.539062 C 200.777344 171.535156 196.0625 175.820312 190.496094 175.820312 C 184.5 175.820312 180.214844 171.535156 180.214844 165.539062 L 180.214844 151.832031 C 180.214844 131.269531 163.078125 114.136719 142.519531 114.136719 L 139.089844 114.136719 L 139.089844 31.890625 C 139.089844 16.894531 126.667969 4.472656 111.675781 4.472656 L 43.136719 4.472656 C 27.714844 4.472656 15.722656 16.894531 15.722656 31.890625 L 15.722656 182.675781 L 139.089844 182.675781 L 139.089844 134.699219 L 142.519531 134.699219 C 151.941406 134.699219 159.652344 142.40625 159.652344 151.832031 L 159.652344 163.828125 C 159.652344 180.105469 171.21875 194.667969 187.070312 196.382812 C 205.488281 198.097656 221.335938 183.960938 221.335938 165.539062 L 221.335938 70.011719 C 221.335938 62.730469 218.339844 55.878906 213.199219 50.738281 Z M 111.675781 86.71875 L 43.136719 86.71875 L 43.136719 31.890625 L 111.675781 31.890625 Z M 111.675781 86.71875 " fill-opacity="1" fill-rule="nonzero"/></svg>