<svg xmlns="http://www.w3.org/2000/svg" xmlns:xlink="http://www.w3.org/1999/xlink" width="300" zoomAndPan="magnify" viewBox="0 0 224.87999 225" height="300" preserveAspectRatio="xMidYMid meet" version="1.0"><defs><clipPath id="cfc76fb43d"><path d="M 0 0.0585938 L 224.761719 0.0585938 L 224.761719 224.9375 L 0 224.9375 Z M 0 0.0585938 " clip-rule="nonzero"/></clipPath></defs><g clip-path="url(#cfc76fb43d)"><path fill="#e72d32" d="M 224.878906 112.5 C 224.878906 174.496094 174.4375 224.941406 112.441406 224.941406 C 50.441406 224.941406 0 174.496094 0 112.5 C 0 50.503906 50.441406 0.0585938 112.441406 0.0585938 C 174.4375 0.0585938 224.878906 50.503906 224.878906 112.5 Z M 152.597656 132.109375 C 152.597656 116.988281 143.492188 108.503906 122.371094 104.292969 L 111.878906 102.148438 C 100.070312 99.804688 95.316406 96.007812 95.316406 89.863281 C 95.316406 82.722656 101.851562 77.980469 111.730469 77.757812 C 111.972656 77.78125 112.1875 77.902344 112.441406 77.902344 C 112.65625 77.902344 112.835938 77.800781 113.046875 77.78125 C 121.28125 77.9375 127.488281 81.027344 130.714844 88.351562 C 133.058594 92.632812 135.957031 94.492188 140.644531 94.492188 C 145.964844 94.492188 149.554688 91.109375 149.554688 86.136719 C 149.554688 84.339844 149.277344 82.894531 148.792969 81.511719 C 145.109375 70.699219 134.910156 63.648438 121.082031 61.574219 L 121.082031 51.957031 C 121.082031 47.179688 117.214844 43.304688 112.429688 43.304688 C 107.648438 43.304688 103.78125 47.179688 103.78125 51.957031 L 103.78125 61.574219 C 86.265625 64.316406 74.390625 75.4375 74.390625 91.179688 C 74.390625 106.023438 84.121094 115.542969 104 119.480469 L 114.566406 121.554688 C 127.058594 124.105469 131.746094 127.835938 131.746094 134.390625 C 131.746094 141.707031 124.152344 147.089844 112.976562 147.089844 C 103.445312 147.089844 95.644531 143.644531 92.398438 136.050781 C 89.917969 131.632812 87.089844 129.980469 82.808594 129.980469 C 77.429688 129.980469 73.632812 133.640625 73.632812 139.164062 C 73.632812 141.023438 74.046875 142.953125 74.730469 144.753906 C 78.128906 154.015625 88.222656 161.28125 103.78125 163.28125 L 103.789062 173.042969 C 103.789062 177.820312 107.664062 181.695312 112.441406 181.695312 C 112.441406 181.695312 112.441406 181.695312 112.449219 181.695312 C 117.222656 181.695312 121.089844 177.820312 121.089844 173.042969 L 121.082031 163.3125 C 140.800781 160.753906 152.597656 149.214844 152.597656 132.109375 Z M 152.597656 132.109375 " fill-opacity="1" fill-rule="nonzero"/></g></svg>