<svg xmlns="http://www.w3.org/2000/svg" xmlns:xlink="http://www.w3.org/1999/xlink" width="300" zoomAndPan="magnify" viewBox="0 0 224.87999 225" height="300" preserveAspectRatio="xMidYMid meet" version="1.0"><path fill="#e72d32" d="M 112.761719 26.605469 C 51 26.605469 1.589844 76.402344 1.589844 137.777344 C 1.589844 158.238281 6.992188 177.539062 16.644531 193.75 C 18.574219 197.609375 22.820312 199.542969 27.066406 199.542969 L 198.074219 199.542969 C 202.320312 199.542969 206.566406 197.609375 208.496094 193.75 C 218.144531 177.539062 223.9375 158.238281 223.9375 137.777344 C 223.9375 76.402344 174.140625 26.605469 112.761719 26.605469 Z M 112.761719 51.3125 C 118.167969 51.3125 122.800781 55.558594 124.34375 60.574219 C 123.957031 61.347656 123.183594 62.121094 122.800781 63.277344 L 119.324219 73.699219 C 117.394531 75.242188 115.078125 76.015625 112.761719 76.015625 C 105.816406 76.015625 100.410156 70.613281 100.410156 63.664062 C 100.410156 57.101562 105.816406 51.3125 112.761719 51.3125 Z M 38.648438 162.484375 C 31.699219 162.484375 26.296875 157.078125 26.296875 150.132812 C 26.296875 143.570312 31.699219 137.777344 38.648438 137.777344 C 45.210938 137.777344 51 143.570312 51 150.132812 C 51 157.078125 45.210938 162.484375 38.648438 162.484375 Z M 57.175781 100.722656 C 50.226562 100.722656 44.824219 95.316406 44.824219 88.367188 C 44.824219 81.804688 50.226562 76.015625 57.175781 76.015625 C 63.738281 76.015625 69.527344 81.804688 69.527344 88.367188 C 69.527344 95.316406 63.738281 100.722656 57.175781 100.722656 Z M 152.136719 72.929688 L 128.589844 143.957031 C 133.992188 148.585938 137.46875 155.148438 137.46875 162.484375 C 137.46875 167.117188 135.925781 171.363281 133.992188 174.835938 L 91.144531 174.835938 C 89.214844 171.363281 88.058594 167.117188 88.058594 162.484375 C 88.058594 149.746094 98.09375 138.9375 110.832031 138.164062 L 134.765625 67.136719 C 136.308594 62.121094 141.328125 59.417969 146.347656 61.347656 C 151.363281 62.890625 153.679688 68.296875 152.136719 72.929688 Z M 157.925781 94.929688 L 163.71875 77.175781 C 165.261719 76.402344 166.804688 76.402344 168.347656 76.402344 C 174.910156 76.402344 180.703125 81.804688 180.703125 88.753906 C 180.703125 95.316406 174.910156 101.105469 168.347656 101.105469 C 163.71875 100.722656 160.242188 98.40625 157.925781 94.929688 Z M 186.878906 162.484375 C 179.929688 162.484375 174.527344 157.078125 174.527344 150.132812 C 174.527344 143.570312 179.929688 137.777344 186.878906 137.777344 C 193.441406 137.777344 199.230469 143.570312 199.230469 150.132812 C 199.230469 157.078125 193.441406 162.484375 186.878906 162.484375 Z M 186.878906 162.484375 " fill-opacity="1" fill-rule="nonzero"/></svg>