<svg xmlns="http://www.w3.org/2000/svg" xmlns:xlink="http://www.w3.org/1999/xlink" width="300" zoomAndPan="magnify" viewBox="0 0 224.87999 225" height="300" preserveAspectRatio="xMidYMid meet" version="1.0"><defs><clipPath id="ccf7b7fe6d"><path d="M 0 0.0585938 L 224.761719 0.0585938 L 224.761719 224.9375 L 0 224.9375 Z M 0 0.0585938 " clip-rule="nonzero"/></clipPath></defs><g clip-path="url(#ccf7b7fe6d)"><path fill="#e72d32" d="M 224.863281 112.492188 C 224.863281 114.332031 224.820312 116.171875 224.730469 118.007812 C 224.640625 119.847656 224.503906 121.683594 224.324219 123.511719 C 224.144531 125.34375 223.917969 127.171875 223.648438 128.988281 C 223.378906 130.808594 223.0625 132.621094 222.703125 134.425781 C 222.34375 136.230469 221.941406 138.027344 221.496094 139.8125 C 221.046875 141.597656 220.558594 143.371094 220.023438 145.128906 C 219.488281 146.890625 218.914062 148.636719 218.292969 150.371094 C 217.671875 152.101562 217.011719 153.820312 216.304688 155.519531 C 215.601562 157.21875 214.855469 158.902344 214.070312 160.5625 C 213.285156 162.226562 212.457031 163.871094 211.589844 165.492188 C 210.722656 167.117188 209.816406 168.714844 208.867188 170.292969 C 207.921875 171.875 206.9375 173.425781 205.917969 174.957031 C 204.894531 176.488281 203.835938 177.992188 202.738281 179.46875 C 201.644531 180.945312 200.511719 182.398438 199.34375 183.820312 C 198.175781 185.242188 196.976562 186.632812 195.738281 188 C 194.503906 189.363281 193.234375 190.695312 191.933594 191.996094 C 190.632812 193.296875 189.300781 194.5625 187.9375 195.800781 C 186.574219 197.035156 185.179688 198.238281 183.757812 199.40625 C 182.335938 200.570312 180.886719 201.703125 179.40625 202.800781 C 177.929688 203.894531 176.425781 204.953125 174.894531 205.976562 C 173.367188 207 171.8125 207.984375 170.234375 208.929688 C 168.65625 209.875 167.054688 210.78125 165.433594 211.648438 C 163.808594 212.515625 162.167969 213.34375 160.503906 214.128906 C 158.839844 214.917969 157.15625 215.664062 155.457031 216.367188 C 153.757812 217.070312 152.042969 217.734375 150.308594 218.351562 C 148.578125 218.972656 146.832031 219.550781 145.070312 220.085938 C 143.308594 220.617188 141.535156 221.109375 139.75 221.554688 C 137.964844 222.003906 136.171875 222.40625 134.367188 222.765625 C 132.5625 223.125 130.75 223.4375 128.929688 223.707031 C 127.109375 223.980469 125.285156 224.203125 123.453125 224.382812 C 121.621094 224.566406 119.785156 224.699219 117.949219 224.789062 C 116.109375 224.878906 114.273438 224.925781 112.433594 224.925781 C 110.59375 224.925781 108.753906 224.878906 106.914062 224.789062 C 105.078125 224.699219 103.242188 224.566406 101.410156 224.382812 C 99.582031 224.203125 97.753906 223.980469 95.933594 223.707031 C 94.113281 223.4375 92.300781 223.125 90.496094 222.765625 C 88.691406 222.40625 86.898438 222.003906 85.113281 221.554688 C 83.328125 221.109375 81.554688 220.617188 79.792969 220.085938 C 78.035156 219.550781 76.285156 218.972656 74.554688 218.351562 C 72.820312 217.734375 71.105469 217.070312 69.40625 216.367188 C 67.707031 215.664062 66.023438 214.917969 64.359375 214.128906 C 62.699219 213.34375 61.054688 212.515625 59.429688 211.648438 C 57.808594 210.78125 56.207031 209.875 54.628906 208.929688 C 53.050781 207.984375 51.496094 207 49.96875 205.976562 C 48.4375 204.953125 46.933594 203.894531 45.457031 202.800781 C 43.976562 201.703125 42.527344 200.570312 41.105469 199.40625 C 39.683594 198.238281 38.289062 197.035156 36.925781 195.800781 C 35.5625 194.5625 34.230469 193.296875 32.929688 191.996094 C 31.628906 190.695312 30.359375 189.363281 29.125 188 C 27.890625 186.632812 26.6875 185.242188 25.519531 183.820312 C 24.351562 182.398438 23.222656 180.945312 22.125 179.46875 C 21.027344 177.992188 19.96875 176.488281 18.949219 174.957031 C 17.925781 173.425781 16.941406 171.875 15.996094 170.292969 C 15.050781 168.714844 14.140625 167.117188 13.273438 165.492188 C 12.40625 163.871094 11.582031 162.226562 10.792969 160.5625 C 10.007812 158.902344 9.261719 157.21875 8.558594 155.519531 C 7.855469 153.820312 7.191406 152.101562 6.570312 150.371094 C 5.953125 148.636719 5.375 146.890625 4.839844 145.128906 C 4.304688 143.371094 3.816406 141.597656 3.367188 139.8125 C 2.921875 138.027344 2.519531 136.230469 2.160156 134.425781 C 1.800781 132.621094 1.484375 130.808594 1.214844 128.988281 C 0.945312 127.171875 0.722656 125.34375 0.539062 123.511719 C 0.359375 121.683594 0.226562 119.847656 0.132812 118.007812 C 0.0429688 116.171875 0 114.332031 0 112.492188 C 0 110.652344 0.0429688 108.8125 0.132812 106.976562 C 0.226562 105.136719 0.359375 103.304688 0.539062 101.472656 C 0.722656 99.640625 0.945312 97.816406 1.214844 95.996094 C 1.484375 94.175781 1.800781 92.363281 2.160156 90.558594 C 2.519531 88.753906 2.921875 86.957031 3.367188 85.175781 C 3.816406 83.390625 4.304688 81.617188 4.839844 79.855469 C 5.375 78.09375 5.953125 76.347656 6.570312 74.617188 C 7.191406 72.882812 7.855469 71.167969 8.558594 69.464844 C 9.261719 67.765625 10.007812 66.085938 10.792969 64.421875 C 11.582031 62.757812 12.40625 61.113281 13.273438 59.492188 C 14.140625 57.871094 15.050781 56.269531 15.996094 54.691406 C 16.941406 53.113281 17.925781 51.558594 18.949219 50.027344 C 19.96875 48.5 21.027344 46.996094 22.125 45.515625 C 23.222656 44.039062 24.351562 42.589844 25.519531 41.167969 C 26.6875 39.742188 27.890625 38.351562 29.125 36.988281 C 30.359375 35.625 31.628906 34.292969 32.929688 32.992188 C 34.230469 31.691406 35.5625 30.421875 36.925781 29.1875 C 38.289062 27.949219 39.683594 26.75 41.105469 25.582031 C 42.527344 24.414062 43.976562 23.28125 45.457031 22.1875 C 46.933594 21.089844 48.4375 20.03125 49.96875 19.007812 C 51.496094 17.984375 53.050781 17.003906 54.628906 16.054688 C 56.207031 15.109375 57.808594 14.203125 59.429688 13.335938 C 61.054688 12.46875 62.699219 11.640625 64.359375 10.855469 C 66.023438 10.066406 67.707031 9.324219 69.40625 8.617188 C 71.105469 7.914062 72.820312 7.253906 74.554688 6.632812 C 76.285156 6.011719 78.035156 5.4375 79.792969 4.902344 C 81.554688 4.367188 83.328125 3.875 85.113281 3.429688 C 86.898438 2.984375 88.691406 2.578125 90.496094 2.21875 C 92.300781 1.863281 94.113281 1.546875 95.933594 1.277344 C 97.753906 1.007812 99.582031 0.78125 101.410156 0.601562 C 103.242188 0.421875 105.078125 0.285156 106.914062 0.195312 C 108.753906 0.105469 110.59375 0.0585938 112.433594 0.0585938 C 114.273438 0.0585938 116.109375 0.105469 117.949219 0.195312 C 119.785156 0.285156 121.621094 0.421875 123.453125 0.601562 C 125.285156 0.78125 127.109375 1.007812 128.929688 1.277344 C 130.75 1.546875 132.5625 1.863281 134.367188 2.21875 C 136.171875 2.578125 137.964844 2.984375 139.75 3.429688 C 141.535156 3.875 143.308594 4.367188 145.070312 4.902344 C 146.832031 5.4375 148.578125 6.011719 150.308594 6.632812 C 152.042969 7.253906 153.757812 7.914062 155.457031 8.617188 C 157.15625 9.324219 158.839844 10.066406 160.503906 10.855469 C 162.167969 11.640625 163.808594 12.46875 165.433594 13.335938 C 167.054688 14.203125 168.65625 15.109375 170.234375 16.054688 C 171.8125 17.003906 173.367188 17.984375 174.894531 19.007812 C 176.425781 20.03125 177.929688 21.089844 179.40625 22.1875 C 180.886719 23.28125 182.335938 24.414062 183.757812 25.582031 C 185.179688 26.75 186.574219 27.949219 187.9375 29.1875 C 189.300781 30.421875 190.632812 31.691406 191.933594 32.992188 C 193.234375 34.292969 194.503906 35.625 195.738281 36.988281 C 196.976562 38.351562 198.175781 39.742188 199.34375 41.167969 C 200.511719 42.589844 201.644531 44.039062 202.738281 45.515625 C 203.835938 46.996094 204.894531 48.5 205.917969 50.027344 C 206.9375 51.558594 207.921875 53.113281 208.867188 54.691406 C 209.816406 56.269531 210.722656 57.871094 211.589844 59.492188 C 212.457031 61.113281 213.285156 62.757812 214.070312 64.421875 C 214.855469 66.085938 215.601562 67.765625 216.304688 69.464844 C 217.011719 71.167969 217.671875 72.882812 218.292969 74.617188 C 218.914062 76.347656 219.488281 78.09375 220.023438 79.855469 C 220.558594 81.617188 221.046875 83.390625 221.496094 85.175781 C 221.941406 86.957031 222.34375 88.753906 222.703125 90.558594 C 223.0625 92.363281 223.378906 94.175781 223.648438 95.996094 C 223.917969 97.816406 224.144531 99.640625 224.324219 101.472656 C 224.503906 103.304688 224.640625 105.136719 224.730469 106.976562 C 224.820312 108.8125 224.863281 110.652344 224.863281 112.492188 Z M 224.863281 112.492188 " fill-opacity="1" fill-rule="nonzero"/></g><path fill="#ffffff" d="M 130.777344 35.820312 C 130.066406 36.101562 129.5625 36.589844 129.261719 37.289062 C 129.113281 37.625 129.039062 37.972656 129.03125 38.335938 C 129.027344 38.703125 129.089844 39.054688 129.222656 39.394531 C 129.355469 39.734375 129.550781 40.035156 129.804688 40.296875 C 130.058594 40.558594 130.351562 40.761719 130.6875 40.910156 C 142.527344 46.050781 153.296875 53.375 162.421875 62.503906 C 171.550781 71.632812 178.878906 82.394531 184.019531 94.238281 C 184.164062 94.570312 184.367188 94.867188 184.628906 95.117188 C 184.894531 95.371094 185.195312 95.566406 185.535156 95.699219 C 185.871094 95.832031 186.226562 95.898438 186.589844 95.890625 C 186.953125 95.882812 187.304688 95.808594 187.640625 95.664062 C 187.972656 95.519531 188.265625 95.3125 188.519531 95.050781 C 188.773438 94.789062 188.96875 94.488281 189.101562 94.148438 C 189.234375 93.808594 189.300781 93.457031 189.292969 93.09375 C 189.285156 92.726562 189.210938 92.378906 189.066406 92.042969 C 183.648438 79.566406 175.933594 68.226562 166.316406 58.609375 C 156.699219 48.992188 145.355469 41.273438 132.878906 35.859375 C 132.183594 35.554688 131.484375 35.542969 130.777344 35.820312 Z M 125.410156 59.273438 C 125.082031 59.117188 124.734375 59.03125 124.371094 59.015625 C 124.003906 58.996094 123.652344 59.050781 123.308594 59.175781 C 122.964844 59.300781 122.65625 59.484375 122.386719 59.730469 C 122.117188 59.976562 121.90625 60.261719 121.75 60.59375 C 121.59375 60.925781 121.507812 61.273438 121.492188 61.636719 C 121.476562 62 121.527344 62.355469 121.652344 62.699219 C 121.777344 63.042969 121.960938 63.347656 122.207031 63.617188 C 122.453125 63.886719 122.742188 64.101562 123.070312 64.253906 C 131.058594 68.003906 138.539062 73.175781 145.144531 79.78125 C 151.75 86.386719 156.917969 93.867188 160.667969 101.851562 C 160.824219 102.183594 161.035156 102.472656 161.304688 102.71875 C 161.574219 102.964844 161.882812 103.148438 162.222656 103.273438 C 162.566406 103.398438 162.921875 103.453125 163.285156 103.433594 C 163.652344 103.417969 164 103.332031 164.328125 103.175781 C 164.660156 103.023438 164.949219 102.808594 165.195312 102.539062 C 165.441406 102.269531 165.625 101.964844 165.75 101.621094 C 165.875 101.277344 165.929688 100.921875 165.910156 100.558594 C 165.894531 100.195312 165.808594 99.847656 165.65625 99.515625 C 161.648438 90.980469 156.117188 82.980469 149.078125 75.933594 C 149.078125 75.929688 149.074219 75.929688 149.074219 75.925781 L 149.070312 75.925781 C 149.058594 75.914062 149.050781 75.902344 149.039062 75.890625 C 141.976562 68.828125 133.964844 63.289062 125.410156 59.273438 Z M 118.019531 82.929688 C 117.699219 82.753906 117.355469 82.648438 116.992188 82.609375 C 116.628906 82.574219 116.273438 82.605469 115.925781 82.710938 C 115.574219 82.816406 115.257812 82.984375 114.972656 83.214844 C 114.691406 83.445312 114.464844 83.71875 114.289062 84.042969 C 114.117188 84.363281 114.011719 84.703125 113.972656 85.066406 C 113.933594 85.429688 113.96875 85.789062 114.074219 86.136719 C 114.179688 86.488281 114.34375 86.804688 114.574219 87.085938 C 114.804688 87.371094 115.082031 87.597656 115.402344 87.773438 C 119.984375 90.25 124.183594 93.378906 127.867188 97.0625 C 131.558594 100.753906 134.695312 104.964844 137.175781 109.5625 C 137.347656 109.882812 137.578125 110.15625 137.859375 110.386719 C 138.144531 110.617188 138.460938 110.785156 138.808594 110.886719 C 139.160156 110.992188 139.515625 111.027344 139.878906 110.988281 C 140.238281 110.953125 140.582031 110.847656 140.902344 110.675781 C 141.222656 110.5 141.5 110.273438 141.730469 109.992188 C 141.960938 109.707031 142.128906 109.390625 142.234375 109.039062 C 142.339844 108.691406 142.371094 108.335938 142.335938 107.972656 C 142.296875 107.609375 142.195312 107.265625 142.019531 106.945312 C 139.285156 101.878906 135.824219 97.238281 131.753906 93.167969 C 127.695312 89.109375 123.070312 85.660156 118.019531 82.929688 Z M 118.019531 82.929688 " fill-opacity="1" fill-rule="nonzero"/><path fill="#ffffff" d="M 83.949219 79.058594 C 95.089844 72.363281 95.089844 57.089844 85.667969 47.667969 C 76.246094 38.25 60.972656 38.25 52.417969 48.535156 C 28.359375 74.320312 35.519531 121.890625 69.277344 155.648438 C 103.035156 189.40625 150.605469 196.566406 176.390625 172.507812 C 186.675781 163.953125 186.675781 148.675781 177.253906 139.257812 C 167.835938 129.835938 152.5625 129.835938 145.867188 140.976562 C 135.125 156.160156 109.351562 152.222656 91.027344 133.898438 C 72.703125 115.574219 68.765625 89.800781 83.949219 79.058594 Z M 83.949219 79.058594 " fill-opacity="1" fill-rule="nonzero"/></svg>