<svg xmlns="http://www.w3.org/2000/svg" xmlns:xlink="http://www.w3.org/1999/xlink" width="300" zoomAndPan="magnify" viewBox="0 0 224.87999 225" height="300" preserveAspectRatio="xMidYMid meet" version="1.0"><defs><clipPath id="3852778673"><path d="M 0 0.0585938 L 224.761719 0.0585938 L 224.761719 224.9375 L 0 224.9375 Z M 0 0.0585938 " clip-rule="nonzero"/></clipPath></defs><path fill="#e72d32" d="M 108.390625 106.429688 C 108.96875 106.882812 109.605469 107.230469 110.296875 107.472656 C 110.992188 107.714844 111.707031 107.832031 112.441406 107.832031 C 113.175781 107.832031 113.886719 107.714844 114.582031 107.472656 C 115.277344 107.230469 115.910156 106.882812 116.488281 106.429688 L 148.496094 81.167969 L 154.566406 76.445312 L 70.386719 76.445312 L 77.507812 82.066406 Z M 108.390625 106.429688 " fill-opacity="1" fill-rule="nonzero"/><path fill="#e72d32" d="M 112.441406 120.96875 C 110.234375 120.964844 108.089844 120.597656 106.003906 119.863281 C 103.921875 119.132812 102.019531 118.074219 100.296875 116.699219 L 58.019531 83.339844 L 58.019531 142.035156 C 58.019531 142.460938 58.0625 142.886719 58.144531 143.304688 C 58.230469 143.726562 58.351562 144.132812 58.515625 144.527344 C 58.679688 144.925781 58.882812 145.300781 59.121094 145.65625 C 59.359375 146.011719 59.628906 146.339844 59.929688 146.644531 C 60.234375 146.945312 60.5625 147.21875 60.917969 147.457031 C 61.273438 147.691406 61.648438 147.894531 62.046875 148.058594 C 62.441406 148.222656 62.847656 148.347656 63.269531 148.429688 C 63.6875 148.511719 64.113281 148.554688 64.539062 148.554688 L 160.339844 148.554688 C 160.765625 148.554688 161.191406 148.511719 161.613281 148.429688 C 162.03125 148.347656 162.4375 148.222656 162.835938 148.058594 C 163.230469 147.894531 163.605469 147.691406 163.960938 147.457031 C 164.316406 147.21875 164.648438 146.945312 164.949219 146.644531 C 165.253906 146.339844 165.523438 146.011719 165.761719 145.65625 C 166 145.300781 166.199219 144.925781 166.363281 144.527344 C 166.527344 144.132812 166.652344 143.726562 166.734375 143.304688 C 166.820312 142.886719 166.859375 142.460938 166.859375 142.035156 L 166.859375 83.339844 L 124.582031 116.699219 C 122.859375 118.074219 120.957031 119.132812 118.875 119.863281 C 116.792969 120.597656 114.648438 120.964844 112.441406 120.96875 Z M 112.441406 120.96875 " fill-opacity="1" fill-rule="nonzero"/><g clip-path="url(#3852778673)"><path fill="#e72d32" d="M 112.441406 0.0585938 C 110.601562 0.0585938 108.761719 0.105469 106.921875 0.195312 C 105.085938 0.285156 103.25 0.421875 101.417969 0.601562 C 99.585938 0.78125 97.761719 1.007812 95.941406 1.277344 C 94.121094 1.546875 92.308594 1.863281 90.503906 2.21875 C 88.699219 2.578125 86.90625 2.984375 85.121094 3.429688 C 83.335938 3.875 81.5625 4.367188 79.800781 4.902344 C 78.039062 5.4375 76.292969 6.011719 74.558594 6.632812 C 72.828125 7.253906 71.109375 7.914062 69.410156 8.617188 C 67.710938 9.324219 66.027344 10.070312 64.367188 10.855469 C 62.703125 11.640625 61.058594 12.46875 59.4375 13.335938 C 57.8125 14.203125 56.210938 15.109375 54.632812 16.058594 C 53.054688 17.003906 51.5 17.988281 49.972656 19.007812 C 48.441406 20.03125 46.9375 21.089844 45.460938 22.1875 C 43.980469 23.285156 42.53125 24.414062 41.109375 25.582031 C 39.6875 26.75 38.292969 27.953125 36.929688 29.1875 C 35.566406 30.421875 34.234375 31.691406 32.933594 32.992188 C 31.632812 34.292969 30.363281 35.625 29.128906 36.988281 C 27.890625 38.351562 26.691406 39.746094 25.523438 41.167969 C 24.355469 42.589844 23.222656 44.042969 22.128906 45.519531 C 21.03125 46.996094 19.972656 48.5 18.949219 50.03125 C 17.925781 51.5625 16.941406 53.117188 15.996094 54.695312 C 15.050781 56.273438 14.144531 57.875 13.277344 59.496094 C 12.410156 61.117188 11.582031 62.761719 10.796875 64.425781 C 10.007812 66.089844 9.261719 67.769531 8.558594 69.472656 C 7.855469 71.171875 7.191406 72.886719 6.574219 74.621094 C 5.953125 76.351562 5.375 78.097656 4.839844 79.859375 C 4.308594 81.621094 3.816406 83.394531 3.371094 85.179688 C 2.921875 86.964844 2.519531 88.757812 2.160156 90.5625 C 1.800781 92.367188 1.488281 94.179688 1.21875 96 C 0.945312 97.820312 0.722656 99.648438 0.542969 101.480469 C 0.359375 103.308594 0.226562 105.144531 0.136719 106.984375 C 0.046875 108.820312 0 110.660156 0 112.5 C 0 114.339844 0.046875 116.179688 0.136719 118.015625 C 0.226562 119.855469 0.359375 121.691406 0.542969 123.519531 C 0.722656 125.351562 0.945312 127.179688 1.21875 129 C 1.488281 130.820312 1.800781 132.632812 2.160156 134.4375 C 2.519531 136.242188 2.921875 138.035156 3.371094 139.820312 C 3.816406 141.605469 4.308594 143.378906 4.839844 145.140625 C 5.375 146.902344 5.953125 148.648438 6.574219 150.378906 C 7.191406 152.113281 7.855469 153.828125 8.558594 155.527344 C 9.261719 157.230469 10.007812 158.910156 10.796875 160.574219 C 11.582031 162.238281 12.410156 163.882812 13.277344 165.503906 C 14.144531 167.125 15.050781 168.726562 15.996094 170.304688 C 16.941406 171.882812 17.925781 173.4375 18.949219 174.96875 C 19.972656 176.5 21.03125 178.003906 22.128906 179.480469 C 23.222656 180.957031 24.355469 182.410156 25.523438 183.832031 C 26.691406 185.253906 27.890625 186.648438 29.128906 188.011719 C 30.363281 189.375 31.632812 190.707031 32.933594 192.007812 C 34.234375 193.308594 35.566406 194.578125 36.929688 195.8125 C 38.292969 197.046875 39.6875 198.25 41.109375 199.417969 C 42.53125 200.585938 43.980469 201.714844 45.460938 202.8125 C 46.9375 203.910156 48.441406 204.96875 49.972656 205.992188 C 51.5 207.011719 53.054688 207.996094 54.632812 208.941406 C 56.210938 209.890625 57.8125 210.796875 59.4375 211.664062 C 61.058594 212.53125 62.703125 213.359375 64.367188 214.144531 C 66.027344 214.929688 67.710938 215.675781 69.410156 216.382812 C 71.109375 217.085938 72.828125 217.746094 74.558594 218.367188 C 76.292969 218.988281 78.039062 219.5625 79.800781 220.097656 C 81.5625 220.632812 83.335938 221.125 85.121094 221.570312 C 86.90625 222.015625 88.699219 222.421875 90.503906 222.78125 C 92.308594 223.136719 94.121094 223.453125 95.941406 223.722656 C 97.761719 223.992188 99.585938 224.21875 101.417969 224.398438 C 103.25 224.578125 105.085938 224.714844 106.921875 224.804688 C 108.761719 224.894531 110.601562 224.941406 112.441406 224.941406 C 114.28125 224.941406 116.121094 224.894531 117.957031 224.804688 C 119.796875 224.714844 121.628906 224.578125 123.460938 224.398438 C 125.292969 224.21875 127.117188 223.992188 128.9375 223.722656 C 130.757812 223.453125 132.570312 223.136719 134.375 222.78125 C 136.179688 222.421875 137.976562 222.015625 139.761719 221.570312 C 141.546875 221.125 143.320312 220.632812 145.078125 220.097656 C 146.839844 219.5625 148.585938 218.988281 150.320312 218.367188 C 152.050781 217.746094 153.769531 217.085938 155.46875 216.382812 C 157.167969 215.675781 158.851562 214.929688 160.515625 214.144531 C 162.179688 213.359375 163.820312 212.53125 165.445312 211.664062 C 167.066406 210.796875 168.667969 209.890625 170.246094 208.941406 C 171.824219 207.996094 173.378906 207.011719 174.910156 205.992188 C 176.4375 204.96875 177.941406 203.910156 179.421875 202.8125 C 180.898438 201.714844 182.347656 200.585938 183.769531 199.417969 C 185.195312 198.25 186.585938 197.046875 187.949219 195.8125 C 189.3125 194.578125 190.644531 193.308594 191.945312 192.007812 C 193.25 190.707031 194.515625 189.375 195.753906 188.011719 C 196.988281 186.648438 198.191406 185.253906 199.355469 183.832031 C 200.523438 182.410156 201.65625 180.957031 202.753906 179.480469 C 203.847656 178.003906 204.90625 176.5 205.929688 174.96875 C 206.953125 173.4375 207.9375 171.882812 208.882812 170.304688 C 209.828125 168.726562 210.734375 167.125 211.601562 165.503906 C 212.46875 163.882812 213.296875 162.238281 214.085938 160.574219 C 214.871094 158.910156 215.617188 157.230469 216.320312 155.527344 C 217.023438 153.828125 217.6875 152.113281 218.308594 150.378906 C 218.925781 148.648438 219.503906 146.902344 220.039062 145.140625 C 220.574219 143.378906 221.0625 141.605469 221.511719 139.820312 C 221.957031 138.035156 222.359375 136.242188 222.71875 134.4375 C 223.078125 132.632812 223.394531 130.820312 223.664062 129 C 223.933594 127.179688 224.15625 125.351562 224.339844 123.519531 C 224.519531 121.691406 224.652344 119.855469 224.746094 118.015625 C 224.835938 116.179688 224.878906 114.339844 224.878906 112.5 C 224.878906 110.660156 224.832031 108.820312 224.742188 106.984375 C 224.652344 105.144531 224.515625 103.3125 224.335938 101.480469 C 224.152344 99.648438 223.929688 97.824219 223.65625 96.003906 C 223.386719 94.183594 223.070312 92.371094 222.710938 90.566406 C 222.351562 88.761719 221.949219 86.96875 221.503906 85.183594 C 221.054688 83.398438 220.5625 81.625 220.027344 79.863281 C 219.496094 78.105469 218.917969 76.359375 218.296875 74.625 C 217.675781 72.894531 217.015625 71.175781 216.308594 69.476562 C 215.605469 67.777344 214.859375 66.097656 214.074219 64.433594 C 213.285156 62.769531 212.457031 61.125 211.589844 59.503906 C 210.722656 57.882812 209.816406 56.28125 208.871094 54.703125 C 207.925781 53.125 206.941406 51.570312 205.917969 50.042969 C 204.894531 48.511719 203.835938 47.007812 202.738281 45.53125 C 201.644531 44.050781 200.511719 42.601562 199.34375 41.179688 C 198.175781 39.757812 196.976562 38.363281 195.742188 37 C 194.503906 35.636719 193.234375 34.304688 191.933594 33.003906 C 190.632812 31.703125 189.300781 30.433594 187.9375 29.199219 C 186.574219 27.964844 185.183594 26.761719 183.761719 25.59375 C 182.339844 24.429688 180.886719 23.296875 179.410156 22.199219 C 177.933594 21.105469 176.429688 20.042969 174.898438 19.023438 C 173.367188 18 171.816406 17.015625 170.238281 16.070312 C 168.660156 15.125 167.058594 14.214844 165.4375 13.347656 C 163.8125 12.480469 162.171875 11.652344 160.507812 10.867188 C 158.84375 10.078125 157.164062 9.335938 155.460938 8.628906 C 153.761719 7.925781 152.046875 7.261719 150.316406 6.644531 C 148.582031 6.023438 146.835938 5.445312 145.074219 4.910156 C 143.3125 4.375 141.542969 3.886719 139.757812 3.4375 C 137.972656 2.988281 136.175781 2.585938 134.375 2.226562 C 132.570312 1.867188 130.757812 1.554688 128.9375 1.28125 C 127.117188 1.011719 125.289062 0.785156 123.460938 0.605469 C 121.628906 0.425781 119.792969 0.289062 117.957031 0.199219 C 116.117188 0.105469 114.28125 0.0625 112.441406 0.0585938 Z M 179.902344 142.035156 C 179.902344 142.675781 179.871094 143.316406 179.808594 143.953125 C 179.746094 144.59375 179.652344 145.226562 179.527344 145.855469 C 179.402344 146.484375 179.246094 147.109375 179.0625 147.722656 C 178.875 148.335938 178.660156 148.9375 178.414062 149.53125 C 178.171875 150.125 177.898438 150.703125 177.59375 151.269531 C 177.292969 151.835938 176.964844 152.386719 176.609375 152.921875 C 176.253906 153.457031 175.871094 153.96875 175.464844 154.46875 C 175.058594 154.964844 174.628906 155.441406 174.175781 155.894531 C 173.722656 156.347656 173.25 156.78125 172.753906 157.1875 C 172.261719 157.597656 171.746094 157.980469 171.214844 158.335938 C 170.679688 158.695312 170.132812 159.027344 169.566406 159.328125 C 169.003906 159.632812 168.421875 159.910156 167.832031 160.15625 C 167.238281 160.402344 166.636719 160.621094 166.023438 160.808594 C 165.410156 160.996094 164.789062 161.15625 164.160156 161.28125 C 163.53125 161.410156 162.898438 161.507812 162.257812 161.570312 C 161.621094 161.636719 160.980469 161.671875 160.339844 161.671875 L 64.539062 161.671875 C 63.898438 161.671875 63.257812 161.636719 62.621094 161.570312 C 61.980469 161.507812 61.347656 161.410156 60.71875 161.28125 C 60.089844 161.15625 59.46875 160.996094 58.855469 160.808594 C 58.242188 160.621094 57.640625 160.402344 57.046875 160.15625 C 56.457031 159.910156 55.878906 159.632812 55.3125 159.328125 C 54.746094 159.027344 54.199219 158.695312 53.667969 158.335938 C 53.132812 157.980469 52.621094 157.597656 52.125 157.1875 C 51.628906 156.78125 51.15625 156.347656 50.703125 155.894531 C 50.25 155.441406 49.820312 154.964844 49.414062 154.46875 C 49.007812 153.96875 48.625 153.457031 48.269531 152.921875 C 47.914062 152.386719 47.585938 151.835938 47.285156 151.269531 C 46.984375 150.703125 46.710938 150.125 46.464844 149.53125 C 46.21875 148.9375 46.003906 148.335938 45.816406 147.722656 C 45.632812 147.109375 45.476562 146.484375 45.351562 145.855469 C 45.226562 145.226562 45.132812 144.59375 45.070312 143.953125 C 45.007812 143.316406 44.976562 142.675781 44.976562 142.035156 L 44.976562 82.964844 C 44.976562 82.324219 45.007812 81.683594 45.070312 81.046875 C 45.132812 80.40625 45.226562 79.773438 45.351562 79.144531 C 45.476562 78.515625 45.632812 77.894531 45.816406 77.277344 C 46.003906 76.664062 46.21875 76.0625 46.464844 75.46875 C 46.710938 74.875 46.984375 74.296875 47.285156 73.730469 C 47.585938 73.164062 47.914062 72.613281 48.269531 72.078125 C 48.625 71.542969 49.007812 71.03125 49.414062 70.53125 C 49.820312 70.035156 50.25 69.558594 50.703125 69.105469 C 51.15625 68.652344 51.628906 68.21875 52.125 67.8125 C 52.621094 67.402344 53.132812 67.019531 53.667969 66.664062 C 54.199219 66.304688 54.746094 65.972656 55.3125 65.671875 C 55.878906 65.367188 56.457031 65.089844 57.046875 64.84375 C 57.640625 64.597656 58.242188 64.378906 58.855469 64.191406 C 59.46875 64.003906 60.089844 63.84375 60.71875 63.71875 C 61.347656 63.589844 61.980469 63.492188 62.621094 63.429688 C 63.257812 63.363281 63.898438 63.328125 64.539062 63.328125 L 160.339844 63.328125 C 160.980469 63.328125 161.621094 63.363281 162.257812 63.429688 C 162.898438 63.492188 163.53125 63.589844 164.160156 63.71875 C 164.789062 63.84375 165.410156 64.003906 166.023438 64.191406 C 166.636719 64.378906 167.238281 64.597656 167.832031 64.84375 C 168.421875 65.089844 169.003906 65.367188 169.566406 65.671875 C 170.132812 65.972656 170.679688 66.304688 171.214844 66.664062 C 171.746094 67.019531 172.261719 67.402344 172.753906 67.8125 C 173.25 68.21875 173.722656 68.652344 174.175781 69.105469 C 174.628906 69.558594 175.058594 70.035156 175.464844 70.53125 C 175.871094 71.03125 176.253906 71.542969 176.609375 72.078125 C 176.964844 72.613281 177.292969 73.164062 177.59375 73.730469 C 177.898438 74.296875 178.171875 74.875 178.414062 75.46875 C 178.660156 76.0625 178.875 76.664062 179.0625 77.277344 C 179.246094 77.894531 179.402344 78.515625 179.527344 79.144531 C 179.652344 79.773438 179.746094 80.40625 179.808594 81.046875 C 179.871094 81.683594 179.902344 82.324219 179.902344 82.964844 Z M 179.902344 142.035156 " fill-opacity="1" fill-rule="nonzero"/></g></svg>