<svg xmlns="http://www.w3.org/2000/svg" xmlns:xlink="http://www.w3.org/1999/xlink" width="300" zoomAndPan="magnify" viewBox="0 0 224.87999 225" height="300" preserveAspectRatio="xMidYMid meet" version="1.0"><defs><clipPath id="18442fa0ce"><path d="M 0 0.0585938 L 224.761719 0.0585938 L 224.761719 224.9375 L 0 224.9375 Z M 0 0.0585938 " clip-rule="nonzero"/></clipPath></defs><path fill="#e72d32" d="M 84.539062 94.367188 C 84.539062 95.28125 84.585938 96.195312 84.675781 97.105469 C 84.765625 98.011719 84.898438 98.914062 85.078125 99.8125 C 85.253906 100.707031 85.476562 101.59375 85.742188 102.46875 C 86.007812 103.34375 86.316406 104.203125 86.664062 105.046875 C 87.015625 105.890625 87.40625 106.714844 87.835938 107.519531 C 88.265625 108.328125 88.734375 109.109375 89.242188 109.867188 C 89.75 110.628906 90.292969 111.363281 90.875 112.066406 C 91.453125 112.773438 92.066406 113.449219 92.710938 114.097656 C 93.359375 114.742188 94.035156 115.355469 94.742188 115.933594 C 95.445312 116.515625 96.179688 117.058594 96.941406 117.566406 C 97.699219 118.074219 98.484375 118.542969 99.289062 118.972656 C 100.09375 119.40625 100.917969 119.792969 101.761719 120.144531 C 102.609375 120.496094 103.46875 120.800781 104.339844 121.066406 C 105.214844 121.332031 106.101562 121.554688 106.996094 121.730469 C 107.894531 121.910156 108.796875 122.042969 109.707031 122.132812 C 110.613281 122.222656 111.527344 122.269531 112.441406 122.269531 C 113.355469 122.269531 114.265625 122.222656 115.175781 122.132812 C 116.082031 122.042969 116.988281 121.910156 117.882812 121.730469 C 118.777344 121.554688 119.664062 121.332031 120.539062 121.066406 C 121.414062 120.800781 122.273438 120.496094 123.117188 120.144531 C 123.960938 119.792969 124.785156 119.40625 125.589844 118.972656 C 126.398438 118.542969 127.179688 118.074219 127.941406 117.566406 C 128.699219 117.058594 129.433594 116.515625 130.140625 115.933594 C 130.84375 115.355469 131.523438 114.742188 132.167969 114.097656 C 132.8125 113.449219 133.425781 112.773438 134.007812 112.066406 C 134.585938 111.363281 135.128906 110.628906 135.636719 109.867188 C 136.144531 109.109375 136.613281 108.328125 137.042969 107.519531 C 137.476562 106.714844 137.867188 105.890625 138.214844 105.046875 C 138.566406 104.203125 138.871094 103.34375 139.136719 102.46875 C 139.402344 101.59375 139.625 100.707031 139.804688 99.8125 C 139.980469 98.914062 140.117188 98.011719 140.203125 97.105469 C 140.292969 96.195312 140.339844 95.28125 140.339844 94.367188 C 138.828125 57.335938 86.050781 57.335938 84.539062 94.367188 Z M 112.441406 114.855469 C 111.769531 114.855469 111.097656 114.820312 110.429688 114.753906 C 109.761719 114.6875 109.097656 114.589844 108.441406 114.457031 C 107.78125 114.324219 107.132812 114.160156 106.488281 113.964844 C 105.847656 113.769531 105.214844 113.542969 104.59375 113.285156 C 103.976562 113.03125 103.367188 112.742188 102.777344 112.425781 C 102.183594 112.109375 101.609375 111.761719 101.050781 111.390625 C 100.496094 111.015625 99.957031 110.617188 99.4375 110.1875 C 98.917969 109.761719 98.421875 109.3125 97.949219 108.835938 C 97.472656 108.363281 97.023438 107.863281 96.597656 107.34375 C 96.171875 106.824219 95.773438 106.285156 95.402344 105.726562 C 95.027344 105.167969 94.683594 104.59375 94.367188 104 C 94.050781 103.410156 93.765625 102.800781 93.507812 102.179688 C 93.253906 101.5625 93.027344 100.929688 92.832031 100.285156 C 92.636719 99.644531 92.476562 98.992188 92.34375 98.335938 C 92.214844 97.675781 92.117188 97.011719 92.050781 96.34375 C 91.988281 95.675781 91.953125 95.003906 91.953125 94.332031 C 91.957031 93.664062 91.988281 92.992188 92.054688 92.324219 C 92.121094 91.65625 92.21875 90.992188 92.351562 90.335938 C 92.484375 89.675781 92.648438 89.027344 92.84375 88.382812 C 93.039062 87.742188 93.265625 87.109375 93.523438 86.488281 C 93.78125 85.867188 94.066406 85.261719 94.382812 84.671875 C 94.699219 84.078125 95.046875 83.503906 95.421875 82.945312 C 95.792969 82.386719 96.195312 81.851562 96.621094 81.332031 C 97.046875 80.8125 97.496094 80.316406 97.972656 79.839844 C 98.449219 79.367188 98.945312 78.917969 99.464844 78.492188 C 99.984375 78.066406 100.523438 77.667969 101.082031 77.292969 C 101.640625 76.921875 102.214844 76.578125 102.808594 76.261719 C 103.402344 75.945312 104.007812 75.660156 104.628906 75.402344 C 105.25 75.144531 105.878906 74.921875 106.523438 74.726562 C 107.164062 74.53125 107.816406 74.371094 108.476562 74.238281 C 109.132812 74.109375 109.796875 74.011719 110.464844 73.945312 C 111.132812 73.878906 111.804688 73.847656 112.476562 73.847656 C 113.148438 73.847656 113.816406 73.882812 114.484375 73.949219 C 115.152344 74.015625 115.816406 74.113281 116.476562 74.246094 C 117.132812 74.378906 117.785156 74.542969 118.425781 74.738281 C 119.070312 74.933594 119.699219 75.160156 120.320312 75.417969 C 120.941406 75.671875 121.546875 75.960938 122.136719 76.277344 C 122.730469 76.59375 123.304688 76.941406 123.863281 77.3125 C 124.421875 77.6875 124.960938 78.085938 125.476562 78.515625 C 125.996094 78.941406 126.492188 79.390625 126.96875 79.867188 C 127.441406 80.339844 127.890625 80.839844 128.316406 81.359375 C 128.742188 81.878906 129.140625 82.417969 129.515625 82.976562 C 129.886719 83.535156 130.230469 84.109375 130.546875 84.703125 C 130.863281 85.292969 131.148438 85.902344 131.40625 86.523438 C 131.664062 87.140625 131.886719 87.773438 132.082031 88.417969 C 132.277344 89.058594 132.4375 89.710938 132.570312 90.367188 C 132.699219 91.027344 132.796875 91.691406 132.863281 92.359375 C 132.929688 93.027344 132.960938 93.699219 132.960938 94.367188 C 132.960938 95.039062 132.925781 95.710938 132.859375 96.378906 C 132.792969 97.046875 132.695312 97.710938 132.5625 98.367188 C 132.429688 99.027344 132.269531 99.675781 132.074219 100.320312 C 131.875 100.960938 131.648438 101.59375 131.394531 102.214844 C 131.136719 102.832031 130.847656 103.441406 130.53125 104.03125 C 130.214844 104.625 129.867188 105.199219 129.496094 105.757812 C 129.121094 106.316406 128.722656 106.851562 128.296875 107.371094 C 127.867188 107.890625 127.417969 108.386719 126.941406 108.863281 C 126.46875 109.335938 125.96875 109.785156 125.449219 110.210938 C 124.929688 110.636719 124.390625 111.035156 123.832031 111.410156 C 123.273438 111.78125 122.699219 112.125 122.105469 112.441406 C 121.515625 112.757812 120.90625 113.042969 120.289062 113.300781 C 119.667969 113.554688 119.035156 113.78125 118.390625 113.976562 C 117.75 114.171875 117.097656 114.332031 116.441406 114.464844 C 115.78125 114.59375 115.117188 114.691406 114.449219 114.757812 C 113.78125 114.824219 113.113281 114.855469 112.441406 114.855469 Z M 112.441406 114.855469 " fill-opacity="1" fill-rule="nonzero"/><g clip-path="url(#18442fa0ce)"><path fill="#e72d32" d="M 112.441406 0.0585938 C 110.601562 0.0585938 108.761719 0.105469 106.921875 0.195312 C 105.085938 0.285156 103.25 0.421875 101.417969 0.601562 C 99.585938 0.78125 97.761719 1.007812 95.941406 1.277344 C 94.121094 1.546875 92.308594 1.863281 90.503906 2.21875 C 88.699219 2.578125 86.90625 2.984375 85.121094 3.429688 C 83.335938 3.875 81.5625 4.367188 79.800781 4.902344 C 78.039062 5.4375 76.292969 6.011719 74.558594 6.632812 C 72.828125 7.253906 71.109375 7.914062 69.410156 8.617188 C 67.710938 9.324219 66.027344 10.070312 64.367188 10.855469 C 62.703125 11.640625 61.058594 12.46875 59.4375 13.335938 C 57.8125 14.203125 56.210938 15.109375 54.632812 16.058594 C 53.054688 17.003906 51.5 17.988281 49.972656 19.007812 C 48.441406 20.03125 46.9375 21.089844 45.460938 22.1875 C 43.980469 23.285156 42.53125 24.414062 41.109375 25.582031 C 39.6875 26.75 38.292969 27.953125 36.929688 29.1875 C 35.566406 30.421875 34.234375 31.691406 32.933594 32.992188 C 31.632812 34.292969 30.363281 35.625 29.128906 36.988281 C 27.890625 38.351562 26.691406 39.746094 25.523438 41.167969 C 24.355469 42.589844 23.222656 44.042969 22.128906 45.519531 C 21.03125 46.996094 19.972656 48.5 18.949219 50.03125 C 17.925781 51.5625 16.941406 53.117188 15.996094 54.695312 C 15.050781 56.273438 14.144531 57.875 13.277344 59.496094 C 12.410156 61.117188 11.582031 62.761719 10.796875 64.425781 C 10.007812 66.089844 9.261719 67.769531 8.558594 69.472656 C 7.855469 71.171875 7.191406 72.886719 6.574219 74.621094 C 5.953125 76.351562 5.375 78.097656 4.839844 79.859375 C 4.308594 81.621094 3.816406 83.394531 3.371094 85.179688 C 2.921875 86.964844 2.519531 88.757812 2.160156 90.5625 C 1.800781 92.367188 1.488281 94.179688 1.21875 96 C 0.945312 97.820312 0.722656 99.648438 0.542969 101.480469 C 0.359375 103.308594 0.226562 105.144531 0.136719 106.984375 C 0.046875 108.820312 0 110.660156 0 112.5 C 0 114.339844 0.046875 116.179688 0.136719 118.015625 C 0.226562 119.855469 0.359375 121.691406 0.542969 123.519531 C 0.722656 125.351562 0.945312 127.179688 1.21875 129 C 1.488281 130.820312 1.800781 132.632812 2.160156 134.4375 C 2.519531 136.242188 2.921875 138.035156 3.371094 139.820312 C 3.816406 141.605469 4.308594 143.378906 4.839844 145.140625 C 5.375 146.902344 5.953125 148.648438 6.574219 150.378906 C 7.191406 152.113281 7.855469 153.828125 8.558594 155.527344 C 9.261719 157.230469 10.007812 158.910156 10.796875 160.574219 C 11.582031 162.238281 12.410156 163.882812 13.277344 165.503906 C 14.144531 167.125 15.050781 168.726562 15.996094 170.304688 C 16.941406 171.882812 17.925781 173.4375 18.949219 174.96875 C 19.972656 176.5 21.03125 178.003906 22.128906 179.480469 C 23.222656 180.957031 24.355469 182.410156 25.523438 183.832031 C 26.691406 185.253906 27.890625 186.648438 29.128906 188.011719 C 30.363281 189.375 31.632812 190.707031 32.933594 192.007812 C 34.234375 193.308594 35.566406 194.578125 36.929688 195.8125 C 38.292969 197.046875 39.6875 198.25 41.109375 199.417969 C 42.53125 200.585938 43.980469 201.714844 45.460938 202.8125 C 46.9375 203.910156 48.441406 204.96875 49.972656 205.992188 C 51.5 207.011719 53.054688 207.996094 54.632812 208.941406 C 56.210938 209.890625 57.8125 210.796875 59.4375 211.664062 C 61.058594 212.53125 62.703125 213.359375 64.367188 214.144531 C 66.027344 214.929688 67.710938 215.675781 69.410156 216.382812 C 71.109375 217.085938 72.828125 217.746094 74.558594 218.367188 C 76.292969 218.988281 78.039062 219.5625 79.800781 220.097656 C 81.5625 220.632812 83.335938 221.125 85.121094 221.570312 C 86.90625 222.015625 88.699219 222.421875 90.503906 222.78125 C 92.308594 223.136719 94.121094 223.453125 95.941406 223.722656 C 97.761719 223.992188 99.585938 224.21875 101.417969 224.398438 C 103.25 224.578125 105.085938 224.714844 106.921875 224.804688 C 108.761719 224.894531 110.601562 224.941406 112.441406 224.941406 C 114.28125 224.941406 116.121094 224.894531 117.957031 224.804688 C 119.796875 224.714844 121.628906 224.578125 123.460938 224.398438 C 125.292969 224.21875 127.117188 223.992188 128.9375 223.722656 C 130.757812 223.453125 132.570312 223.136719 134.375 222.78125 C 136.179688 222.421875 137.976562 222.015625 139.761719 221.570312 C 141.546875 221.125 143.320312 220.632812 145.078125 220.097656 C 146.839844 219.5625 148.585938 218.988281 150.320312 218.367188 C 152.050781 217.746094 153.769531 217.085938 155.46875 216.382812 C 157.167969 215.675781 158.851562 214.929688 160.515625 214.144531 C 162.179688 213.359375 163.820312 212.53125 165.445312 211.664062 C 167.066406 210.796875 168.667969 209.890625 170.246094 208.941406 C 171.824219 207.996094 173.378906 207.011719 174.910156 205.992188 C 176.4375 204.96875 177.941406 203.910156 179.421875 202.8125 C 180.898438 201.714844 182.347656 200.585938 183.769531 199.417969 C 185.195312 198.25 186.585938 197.046875 187.949219 195.8125 C 189.3125 194.578125 190.644531 193.308594 191.945312 192.007812 C 193.25 190.707031 194.515625 189.375 195.753906 188.011719 C 196.988281 186.648438 198.191406 185.253906 199.355469 183.832031 C 200.523438 182.410156 201.65625 180.957031 202.753906 179.480469 C 203.847656 178.003906 204.90625 176.5 205.929688 174.96875 C 206.953125 173.4375 207.9375 171.882812 208.882812 170.304688 C 209.828125 168.726562 210.734375 167.125 211.601562 165.503906 C 212.46875 163.882812 213.296875 162.238281 214.085938 160.574219 C 214.871094 158.910156 215.617188 157.230469 216.320312 155.527344 C 217.023438 153.828125 217.6875 152.113281 218.308594 150.378906 C 218.925781 148.648438 219.503906 146.902344 220.039062 145.140625 C 220.574219 143.378906 221.0625 141.605469 221.511719 139.820312 C 221.957031 138.035156 222.359375 136.242188 222.71875 134.4375 C 223.078125 132.632812 223.394531 130.820312 223.664062 129 C 223.933594 127.179688 224.15625 125.351562 224.339844 123.519531 C 224.519531 121.691406 224.652344 119.855469 224.746094 118.015625 C 224.835938 116.179688 224.878906 114.339844 224.878906 112.5 C 224.878906 110.660156 224.835938 108.820312 224.742188 106.984375 C 224.652344 105.144531 224.519531 103.3125 224.335938 101.480469 C 224.15625 99.648438 223.929688 97.824219 223.660156 96.003906 C 223.390625 94.183594 223.078125 92.371094 222.71875 90.566406 C 222.359375 88.761719 221.953125 86.964844 221.507812 85.179688 C 221.058594 83.394531 220.570312 81.621094 220.035156 79.863281 C 219.5 78.101562 218.921875 76.355469 218.304688 74.621094 C 217.683594 72.890625 217.023438 71.171875 216.316406 69.472656 C 215.613281 67.773438 214.867188 66.089844 214.082031 64.429688 C 213.292969 62.765625 212.464844 61.121094 211.597656 59.5 C 210.730469 57.875 209.824219 56.277344 208.878906 54.699219 C 207.933594 53.117188 206.949219 51.566406 205.925781 50.035156 C 204.902344 48.503906 203.84375 47 202.75 45.523438 C 201.652344 44.046875 200.519531 42.59375 199.351562 41.171875 C 198.1875 39.75 196.984375 38.355469 195.75 36.992188 C 194.511719 35.628906 193.242188 34.296875 191.941406 32.996094 C 190.640625 31.695312 189.308594 30.425781 187.945312 29.191406 C 186.582031 27.957031 185.191406 26.753906 183.765625 25.585938 C 182.34375 24.417969 180.894531 23.289062 179.417969 22.191406 C 177.9375 21.09375 176.433594 20.035156 174.90625 19.015625 C 173.375 17.992188 171.820312 17.007812 170.242188 16.0625 C 168.664062 15.113281 167.0625 14.207031 165.441406 13.339844 C 163.816406 12.472656 162.175781 11.644531 160.511719 10.859375 C 158.847656 10.074219 157.167969 9.328125 155.464844 8.621094 C 153.765625 7.917969 152.050781 7.257812 150.316406 6.636719 C 148.585938 6.015625 146.839844 5.4375 145.078125 4.90625 C 143.316406 4.371094 141.542969 3.878906 139.757812 3.433594 C 137.972656 2.984375 136.179688 2.582031 134.375 2.222656 C 132.570312 1.863281 130.757812 1.550781 128.9375 1.277344 C 127.117188 1.007812 125.292969 0.785156 123.460938 0.601562 C 121.628906 0.421875 119.792969 0.285156 117.957031 0.195312 C 116.117188 0.105469 114.28125 0.0585938 112.441406 0.0585938 Z M 114.6875 182.003906 C 114.367188 182.25 114.011719 182.4375 113.628906 182.570312 C 113.242188 182.699219 112.847656 182.765625 112.441406 182.765625 C 112.035156 182.765625 111.636719 182.699219 111.253906 182.570312 C 110.867188 182.4375 110.511719 182.25 110.191406 182.003906 C 108.152344 180.457031 60.332031 143.351562 60.332031 94.367188 C 60.332031 92.660156 60.414062 90.960938 60.582031 89.261719 C 60.746094 87.5625 60.996094 85.875 61.328125 84.199219 C 61.660156 82.527344 62.074219 80.871094 62.570312 79.238281 C 63.066406 77.605469 63.640625 76 64.292969 74.421875 C 64.945312 72.84375 65.675781 71.304688 66.476562 69.796875 C 67.28125 68.292969 68.160156 66.828125 69.105469 65.410156 C 70.054688 63.992188 71.070312 62.621094 72.152344 61.300781 C 73.234375 59.980469 74.378906 58.71875 75.585938 57.511719 C 76.792969 56.304688 78.058594 55.160156 79.375 54.074219 C 80.695312 52.992188 82.066406 51.976562 83.484375 51.027344 C 84.902344 50.078125 86.367188 49.203125 87.871094 48.398438 C 89.375 47.59375 90.917969 46.863281 92.496094 46.210938 C 94.070312 45.558594 95.675781 44.984375 97.308594 44.488281 C 98.945312 43.992188 100.597656 43.578125 102.273438 43.242188 C 103.945312 42.910156 105.632812 42.660156 107.332031 42.492188 C 109.03125 42.324219 110.734375 42.242188 112.441406 42.242188 C 114.148438 42.242188 115.851562 42.324219 117.546875 42.492188 C 119.246094 42.660156 120.933594 42.910156 122.609375 43.242188 C 124.28125 43.578125 125.9375 43.992188 127.570312 44.488281 C 129.203125 44.984375 130.808594 45.558594 132.386719 46.210938 C 133.960938 46.863281 135.503906 47.59375 137.007812 48.398438 C 138.515625 49.203125 139.976562 50.078125 141.394531 51.027344 C 142.816406 51.976562 144.183594 52.992188 145.503906 54.074219 C 146.824219 55.160156 148.085938 56.304688 149.292969 57.511719 C 150.5 58.71875 151.644531 59.980469 152.726562 61.300781 C 153.808594 62.621094 154.824219 63.992188 155.773438 65.410156 C 156.722656 66.828125 157.597656 68.292969 158.402344 69.796875 C 159.207031 71.304688 159.933594 72.84375 160.585938 74.421875 C 161.242188 76 161.8125 77.605469 162.308594 79.238281 C 162.804688 80.871094 163.21875 82.527344 163.550781 84.199219 C 163.882812 85.875 164.132812 87.5625 164.300781 89.261719 C 164.464844 90.960938 164.550781 92.660156 164.550781 94.367188 C 164.550781 143.351562 116.726562 180.457031 114.6875 182.003906 Z M 114.6875 182.003906 " fill-opacity="1" fill-rule="nonzero"/></g></svg>