<svg xmlns="http://www.w3.org/2000/svg" xmlns:xlink="http://www.w3.org/1999/xlink" width="300" zoomAndPan="magnify" viewBox="0 0 224.87999 225" height="300" preserveAspectRatio="xMidYMid meet" version="1.0"><defs><clipPath id="10994d0e97"><path d="M 18 52.300781 L 207 52.300781 L 207 173 L 18 173 Z M 18 52.300781 " clip-rule="nonzero"/></clipPath><clipPath id="f5c7bf8e61"><path d="M 0 0.0585938 L 224.761719 0.0585938 L 224.761719 224.9375 L 0 224.9375 Z M 0 0.0585938 " clip-rule="nonzero"/></clipPath></defs><g clip-path="url(#10994d0e97)"><path fill="#e72d32" d="M 175.09375 57.335938 L 156.210938 68.558594 C 162.945312 74.699219 168.191406 81.726562 172.492188 89.339844 C 176.804688 96.96875 180.15625 105.160156 183.109375 113.632812 L 202.089844 102.355469 C 199.136719 93.785156 195.800781 85.527344 191.507812 77.925781 C 187.210938 70.324219 181.9375 63.351562 175.09375 57.335938 Z M 50.648438 52.867188 L 73.382812 66.375 C 74.402344 66.976562 74.738281 68.289062 74.136719 69.308594 C 73.980469 69.574219 73.777344 69.789062 73.542969 69.960938 C 72.8125 70.578125 72.101562 71.207031 71.402344 71.84375 C 72.898438 73.5 74.527344 74.453125 76.628906 74.992188 C 79.355469 75.683594 82.933594 75.757812 87.925781 75.703125 C 90.699219 72.910156 92.867188 71.351562 97.359375 70.128906 C 99.914062 69.433594 103.167969 68.875 106.566406 68.472656 C 110.332031 68.023438 114.367188 67.75 117.855469 67.671875 C 121.132812 67.601562 123.894531 67.710938 126.355469 67.9375 C 128.875 68.171875 131.019531 68.519531 133.054688 68.917969 C 133.921875 69.089844 134.878906 69.296875 135.828125 69.5 C 138.753906 70.128906 141.613281 70.746094 144.683594 70.847656 C 146.699219 70.914062 148.886719 70.765625 150.863281 70.558594 C 151.210938 70.519531 151.554688 70.480469 151.894531 70.441406 C 151.707031 70.28125 151.519531 70.121094 151.332031 69.960938 C 151.097656 69.789062 150.894531 69.574219 150.738281 69.308594 C 150.136719 68.289062 150.472656 66.976562 151.492188 66.375 L 174.230469 52.867188 L 174.230469 52.871094 C 174.992188 52.421875 175.980469 52.476562 176.695312 53.074219 C 184.527344 59.667969 190.460938 67.386719 195.230469 75.828125 C 199.945312 84.175781 203.515625 93.191406 206.664062 102.511719 C 207.054688 103.480469 206.691406 104.609375 205.765625 105.15625 L 183.03125 118.667969 L 183.027344 118.664062 C 182.902344 118.738281 182.765625 118.800781 182.617188 118.851562 C 181.496094 119.226562 180.285156 118.621094 179.910156 117.5 L 179.636719 116.703125 C 178.078125 118.425781 176.429688 119.964844 174.671875 121.339844 C 172.785156 122.820312 170.777344 124.113281 168.628906 125.253906 C 170.34375 127.316406 170.933594 129.800781 170.671875 132.203125 C 170.515625 133.640625 170.042969 135.046875 169.316406 136.304688 C 168.585938 137.570312 167.605469 138.6875 166.433594 139.53125 C 164.8125 140.710938 162.839844 141.398438 160.6875 141.3125 C 160.734375 141.707031 160.757812 142.109375 160.757812 142.515625 C 160.757812 145.425781 159.578125 148.0625 157.667969 149.96875 C 155.761719 151.875 153.128906 153.054688 150.214844 153.054688 C 149.46875 153.054688 148.730469 152.976562 148.019531 152.820312 C 147.980469 154.554688 147.476562 156.242188 146.597656 157.707031 C 145.683594 159.230469 144.363281 160.511719 142.75 161.359375 C 141.402344 162.070312 139.859375 162.476562 138.191406 162.476562 C 137.324219 162.476562 136.484375 162.363281 135.683594 162.152344 C 135.476562 163.660156 134.902344 165.085938 134.039062 166.308594 C 132.941406 167.863281 131.367188 169.097656 129.484375 169.757812 C 128.507812 170.101562 127.460938 170.289062 126.375 170.289062 C 123.914062 170.289062 119.285156 169.914062 114.148438 168.804688 C 111.058594 168.136719 107.777344 167.199219 104.648438 165.921875 L 102.617188 168.457031 L 102.621094 168.460938 C 100.835938 170.691406 98.300781 171.988281 95.65625 172.28125 C 93.019531 172.570312 90.265625 171.859375 88.03125 170.070312 L 88.027344 170.066406 L 88.023438 170.070312 C 86.027344 168.472656 84.777344 166.273438 84.328125 163.933594 C 83.203125 164.535156 81.976562 164.898438 80.710938 165.039062 C 78.101562 165.328125 75.332031 164.644531 72.957031 163.121094 C 72.699219 162.953125 72.460938 162.789062 72.25 162.617188 C 70.105469 160.929688 69.042969 158.523438 68.855469 156.03125 C 68.835938 155.78125 68.824219 155.523438 68.824219 155.269531 C 68.144531 155.484375 67.445312 155.628906 66.742188 155.707031 C 64.011719 156.007812 61.15625 155.296875 59.039062 153.703125 C 58.980469 153.660156 59.03125 153.695312 58.828125 153.53125 L 58.824219 153.535156 C 56.523438 151.703125 55.34375 149.140625 55.136719 146.523438 C 54.996094 144.789062 55.289062 143.019531 55.96875 141.425781 C 53.671875 141.445312 51.347656 140.703125 49.414062 139.15625 C 47.179688 137.367188 45.878906 134.832031 45.585938 132.191406 C 45.296875 129.554688 46.007812 126.800781 47.796875 124.566406 L 48.496094 123.691406 C 47.992188 122.488281 47.488281 121.476562 46.777344 120.488281 C 46.238281 119.746094 45.558594 118.976562 44.648438 118.105469 C 44.109375 118.824219 43.152344 119.152344 42.257812 118.851562 C 42.109375 118.800781 41.972656 118.738281 41.847656 118.664062 L 41.84375 118.667969 L 19.109375 105.15625 C 18.183594 104.609375 17.820312 103.480469 18.210938 102.511719 C 21.359375 93.195312 24.929688 84.175781 29.644531 75.828125 C 34.414062 67.386719 40.347656 59.667969 48.179688 53.074219 C 48.894531 52.476562 49.886719 52.421875 50.644531 52.871094 Z M 68.328125 74.839844 C 63.460938 79.878906 59.480469 85.460938 56.105469 91.433594 C 52.160156 98.417969 49.023438 105.957031 46.25 113.785156 C 48.0625 115.359375 49.296875 116.675781 50.246094 117.992188 C 50.726562 118.65625 51.125 119.300781 51.480469 119.964844 L 54.257812 116.496094 L 54.253906 116.492188 C 56.039062 114.265625 58.570312 112.96875 61.210938 112.675781 C 63.847656 112.382812 66.601562 113.097656 68.835938 114.882812 L 68.847656 114.890625 L 68.847656 114.886719 L 68.863281 114.898438 L 68.863281 114.894531 L 68.960938 114.980469 C 70.671875 116.390625 71.820312 118.25 72.363281 120.253906 L 72.890625 119.589844 C 76.375 115.21875 80.546875 114.085938 84.109375 114.941406 C 85.5625 115.292969 86.894531 115.96875 88.03125 116.894531 C 89.15625 117.816406 90.097656 118.980469 90.761719 120.308594 C 92.042969 122.851562 92.355469 125.988281 91.125 129.128906 C 93.449219 129.074219 95.804688 129.792969 97.761719 131.320312 C 97.863281 131.390625 97.957031 131.46875 98.042969 131.554688 C 100.035156 133.546875 101.285156 136.078125 101.574219 138.675781 C 101.851562 141.210938 101.226562 143.789062 99.492188 145.988281 L 99.242188 146.304688 C 101.359375 146.402344 103.464844 147.144531 105.238281 148.566406 C 107.476562 150.355469 108.777344 152.890625 109.070312 155.53125 C 109.328125 157.875 108.792969 160.3125 107.414062 162.394531 C 109.949219 163.347656 112.566406 164.070312 115.054688 164.609375 C 119.84375 165.644531 124.117188 165.996094 126.375 165.996094 C 126.992188 165.996094 127.5625 165.898438 128.074219 165.714844 C 129.085938 165.363281 129.933594 164.691406 130.535156 163.839844 C 131.132812 162.992188 131.476562 161.964844 131.476562 160.890625 C 131.476562 160.679688 131.460938 160.46875 131.4375 160.257812 C 126.855469 159.050781 122.304688 157.40625 117.785156 155.328125 C 112.867188 153.0625 107.980469 150.28125 103.128906 146.976562 C 102.152344 146.3125 101.902344 144.976562 102.570312 144 C 103.234375 143.023438 104.570312 142.773438 105.546875 143.4375 C 110.195312 146.605469 114.875 149.269531 119.578125 151.4375 C 124.269531 153.59375 128.984375 155.257812 133.722656 156.417969 C 134.074219 156.503906 134.386719 156.675781 134.640625 156.902344 C 135.117188 157.300781 135.671875 157.625 136.277344 157.847656 C 136.867188 158.066406 137.511719 158.183594 138.191406 158.183594 C 139.148438 158.183594 140.015625 157.960938 140.753906 157.570312 C 141.664062 157.09375 142.410156 156.367188 142.921875 155.511719 C 143.4375 154.652344 143.726562 153.652344 143.726562 152.625 C 143.726562 152.027344 143.628906 151.425781 143.425781 150.835938 C 132.71875 147.34375 120.847656 141.449219 107.808594 133.160156 C 106.808594 132.523438 106.511719 131.199219 107.148438 130.199219 C 107.78125 129.199219 109.105469 128.902344 110.109375 129.535156 C 123.207031 137.863281 135.050781 143.699219 145.636719 147.039062 C 145.929688 147.132812 146.191406 147.28125 146.410156 147.472656 C 146.933594 147.878906 147.523438 148.199219 148.152344 148.421875 C 148.789062 148.640625 149.480469 148.761719 150.214844 148.761719 C 151.941406 148.761719 153.503906 148.0625 154.632812 146.933594 C 155.765625 145.800781 156.464844 144.238281 156.464844 142.515625 C 156.464844 141.945312 156.386719 141.394531 156.246094 140.871094 C 156.164062 140.570312 156.0625 140.285156 155.949219 140.011719 C 152.910156 138.929688 148.339844 136.796875 142.234375 133.609375 C 135.570312 130.128906 127.105469 125.417969 116.847656 119.480469 C 115.824219 118.886719 115.472656 117.574219 116.066406 116.550781 C 116.660156 115.527344 117.96875 115.179688 118.992188 115.773438 C 129.296875 121.738281 137.703125 126.417969 144.214844 129.816406 C 150.640625 133.171875 155.253906 135.300781 158.046875 136.207031 C 158.175781 136.242188 158.296875 136.289062 158.421875 136.351562 C 160.535156 137.417969 162.492188 137.09375 163.917969 136.058594 C 164.609375 135.558594 165.1875 134.90625 165.609375 134.175781 C 166.039062 133.429688 166.320312 132.597656 166.414062 131.75 C 166.605469 129.964844 165.917969 128.078125 163.953125 126.777344 L 163.949219 126.773438 L 163.9375 126.765625 L 163.929688 126.761719 L 163.925781 126.761719 L 163.917969 126.753906 L 163.882812 126.730469 L 163.882812 126.726562 C 163.851562 126.707031 163.824219 126.6875 163.796875 126.664062 L 163.792969 126.660156 L 163.75 126.625 L 163.742188 126.621094 L 163.738281 126.617188 L 163.734375 126.609375 L 163.726562 126.605469 L 163.507812 126.421875 C 163.457031 126.378906 163.402344 126.335938 163.355469 126.289062 C 159.824219 123.3125 156.285156 120.332031 152.5625 117.355469 C 148.699219 114.269531 144.652344 111.199219 140.242188 108.164062 C 131.566406 102.191406 121.300781 96.222656 111.007812 90.257812 C 109.976562 90.4375 108.945312 90.648438 107.882812 91.015625 C 106.597656 91.457031 105.234375 92.136719 103.714844 93.285156 C 102.085938 94.523438 100.171875 96.382812 98.199219 98.300781 C 96.199219 100.242188 94.140625 102.246094 92.113281 103.855469 C 89.941406 105.578125 87.804688 106.859375 85.71875 107.566406 C 83.433594 108.339844 81.21875 108.4375 79.09375 107.699219 L 79.085938 107.695312 L 79.085938 107.699219 C 76.785156 106.898438 74.652344 105.101562 73.519531 102.570312 C 72.574219 100.464844 72.324219 97.878906 73.246094 94.972656 C 74.816406 90.042969 79.882812 84.273438 83.871094 79.984375 C 80.527344 79.9375 77.859375 79.730469 75.574219 79.148438 C 72.632812 78.402344 70.375 77.09375 68.328125 74.839844 Z M 68.664062 68.558594 L 49.78125 57.335938 C 42.9375 63.351562 37.664062 70.324219 33.367188 77.925781 C 29.074219 85.527344 25.738281 93.785156 22.789062 102.355469 L 41.410156 113.421875 C 41.488281 113.222656 41.597656 113.03125 41.738281 112.855469 C 41.871094 112.691406 42.023438 112.554688 42.183594 112.441406 C 45.035156 104.390625 48.273438 96.609375 52.382812 89.335938 C 56.683594 81.726562 61.929688 74.699219 68.664062 68.558594 Z M 60.667969 134.859375 C 60.757812 134.75 60.859375 134.648438 60.964844 134.558594 L 66.929688 127.070312 C 66.988281 126.972656 67.054688 126.875 67.128906 126.785156 L 67.132812 126.78125 L 67.140625 126.789062 C 68.171875 125.484375 68.582031 123.871094 68.410156 122.316406 C 68.242188 120.796875 67.507812 119.34375 66.253906 118.296875 L 66.148438 118.214844 L 66.152344 118.210938 L 66.144531 118.203125 C 64.847656 117.171875 63.234375 116.765625 61.683594 116.9375 C 60.128906 117.109375 58.636719 117.867188 57.589844 119.175781 L 57.570312 119.195312 L 52.722656 125.246094 C 52.65625 125.34375 52.585938 125.433594 52.503906 125.523438 L 51.132812 127.230469 C 50.089844 128.539062 49.671875 130.160156 49.847656 131.722656 C 50.019531 133.285156 50.777344 134.773438 52.082031 135.820312 C 53.386719 136.863281 55.011719 137.277344 56.574219 137.105469 C 58.128906 136.933594 59.621094 136.171875 60.667969 134.859375 Z M 90.359375 150.652344 C 90.433594 150.488281 90.53125 150.328125 90.648438 150.179688 C 90.878906 149.890625 91.125 149.617188 91.378906 149.363281 L 96.121094 143.335938 C 97.113281 142.078125 97.472656 140.601562 97.3125 139.148438 C 97.136719 137.550781 96.34375 135.960938 95.078125 134.664062 C 93.785156 133.675781 92.203125 133.28125 90.679688 133.449219 C 89.273438 133.601562 87.921875 134.238281 86.917969 135.324219 L 74.835938 150.488281 C 74.757812 150.6875 74.652344 150.878906 74.515625 151.054688 C 74.390625 151.207031 74.285156 151.359375 74.1875 151.511719 C 73.414062 152.71875 73.019531 154.242188 73.132812 155.714844 C 73.234375 157.078125 73.789062 158.371094 74.898438 159.246094 C 75.023438 159.347656 75.148438 159.4375 75.269531 159.515625 C 76.824219 160.511719 78.597656 160.960938 80.242188 160.777344 C 81.6875 160.617188 83.039062 159.949219 84.015625 158.707031 L 85.496094 156.828125 C 85.761719 156.363281 86.066406 155.910156 86.414062 155.480469 C 86.5625 155.292969 86.734375 155.140625 86.921875 155.019531 Z M 89.046875 159.25 C 88.527344 160.3125 88.335938 161.488281 88.460938 162.636719 C 88.632812 164.195312 89.398438 165.683594 90.707031 166.734375 L 90.703125 166.738281 C 92.007812 167.777344 93.628906 168.191406 95.1875 168.019531 C 96.746094 167.847656 98.234375 167.085938 99.285156 165.777344 L 99.289062 165.78125 L 102.199219 162.140625 C 102.28125 162.015625 102.375 161.898438 102.476562 161.796875 L 103.523438 160.492188 C 104.566406 159.183594 104.984375 157.5625 104.808594 156 C 104.636719 154.4375 103.878906 152.949219 102.574219 151.90625 C 101.269531 150.859375 99.644531 150.445312 98.082031 150.617188 C 96.808594 150.757812 95.574219 151.296875 94.59375 152.207031 Z M 83.144531 133.183594 C 83.179688 133.128906 83.21875 133.074219 83.257812 133.023438 L 83.300781 132.972656 C 83.339844 132.921875 83.382812 132.871094 83.429688 132.824219 L 83.433594 132.820312 L 85.761719 129.894531 C 87.910156 127.203125 88 124.351562 86.9375 122.234375 C 86.539062 121.445312 85.988281 120.753906 85.328125 120.214844 C 84.675781 119.683594 83.921875 119.292969 83.121094 119.101562 C 81.050781 118.605469 78.527344 119.394531 76.246094 122.257812 L 60.722656 141.738281 L 60.628906 141.863281 C 59.722656 143.0625 59.289062 144.640625 59.414062 146.1875 C 59.53125 147.6875 60.199219 149.148438 61.492188 150.179688 L 61.488281 150.1875 L 61.492188 150.1875 C 61.585938 150.265625 61.449219 150.148438 61.621094 150.28125 C 62.867188 151.21875 64.589844 151.632812 66.273438 151.445312 C 67.800781 151.277344 69.261719 150.605469 70.242188 149.375 Z M 155.929688 74.210938 C 154.765625 74.386719 153.179688 74.617188 151.300781 74.816406 C 149.179688 75.039062 146.804688 75.195312 144.550781 75.121094 C 141.050781 75.007812 138.03125 74.359375 134.941406 73.695312 C 134.085938 73.507812 133.222656 73.324219 132.234375 73.128906 C 130.253906 72.738281 128.226562 72.40625 125.96875 72.199219 C 123.660156 71.984375 121.050781 71.882812 117.9375 71.949219 C 114.660156 72.023438 110.78125 72.289062 107.066406 72.730469 C 103.8125 73.117188 100.761719 73.632812 98.484375 74.253906 C 93.964844 75.484375 92.265625 77.296875 88.621094 81.175781 L 88.46875 81.339844 C 84.628906 85.425781 78.792969 91.644531 77.324219 96.265625 C 76.75 98.0625 76.878906 99.609375 77.425781 100.828125 C 78.050781 102.226562 79.226562 103.21875 80.496094 103.65625 L 80.492188 103.660156 C 81.65625 104.0625 82.949219 103.980469 84.34375 103.507812 C 85.9375 102.96875 87.652344 101.925781 89.449219 100.5 C 91.335938 99 93.304688 97.089844 95.214844 95.230469 C 97.257812 93.242188 99.242188 91.316406 101.132812 89.882812 C 103.09375 88.394531 104.84375 87.523438 106.492188 86.957031 C 108.105469 86.402344 109.582031 86.148438 111.054688 85.902344 C 111.53125 85.824219 112.035156 85.902344 112.480469 86.160156 L 112.566406 86.207031 C 123.113281 92.324219 133.65625 98.433594 142.675781 104.644531 C 147.21875 107.769531 151.332031 110.890625 155.226562 114.003906 C 158.644531 116.730469 161.90625 119.46875 165.152344 122.203125 C 167.667969 121 169.949219 119.609375 172.039062 117.96875 C 174.191406 116.285156 176.160156 114.328125 178 112.039062 C 175.378906 104.835938 172.421875 97.898438 168.769531 91.433594 C 165.253906 85.210938 161.082031 79.410156 155.929688 74.210938 Z M 155.929688 74.210938 " fill-opacity="1" fill-rule="nonzero"/></g><g clip-path="url(#f5c7bf8e61)"><path fill="#e72d32" d="M 112.433594 224.925781 C 50.316406 224.925781 0 174.261719 0 112.492188 C 0 50.722656 50.316406 0.0585938 112.433594 0.0585938 C 174.550781 0.0585938 224.867188 50.378906 224.867188 112.492188 C 224.867188 174.609375 174.203125 224.925781 112.433594 224.925781 Z M 112.433594 7 C 54.132812 7 6.941406 54.195312 6.941406 112.492188 C 6.941406 170.792969 54.132812 217.984375 112.433594 217.984375 C 170.730469 217.984375 217.925781 170.792969 217.925781 112.492188 C 217.925781 54.195312 170.386719 7 112.433594 7 Z M 112.433594 7 " fill-opacity="1" fill-rule="nonzero"/></g></svg>