<svg xmlns="http://www.w3.org/2000/svg" xmlns:xlink="http://www.w3.org/1999/xlink" width="300" zoomAndPan="magnify" viewBox="0 0 224.87999 225" height="300" preserveAspectRatio="xMidYMid meet" version="1.0"><defs><clipPath id="accff5d2d7"><path d="M 0 0.0585938 L 224.761719 0.0585938 L 224.761719 224.9375 L 0 224.9375 Z M 0 0.0585938 " clip-rule="nonzero"/></clipPath><clipPath id="fe39cf0cd7"><path d="M 46.992188 31.242188 L 177.5625 31.242188 L 177.5625 194 L 46.992188 194 Z M 46.992188 31.242188 " clip-rule="nonzero"/></clipPath></defs><g clip-path="url(#accff5d2d7)"><path fill="#e72d32" d="M 112.433594 224.925781 C 50.316406 224.925781 0 174.261719 0 112.492188 C 0 50.722656 50.316406 0.0585938 112.433594 0.0585938 C 174.550781 0.0585938 224.867188 50.378906 224.867188 112.492188 C 224.867188 174.609375 174.203125 224.925781 112.433594 224.925781 Z M 112.433594 7 C 54.132812 7 6.941406 54.195312 6.941406 112.492188 C 6.941406 170.792969 54.132812 217.984375 112.433594 217.984375 C 170.730469 217.984375 217.925781 170.792969 217.925781 112.492188 C 217.925781 54.195312 170.386719 7 112.433594 7 Z M 112.433594 7 " fill-opacity="1" fill-rule="nonzero"/></g><g clip-path="url(#fe39cf0cd7)"><path fill="#e72d32" d="M 153.273438 146.683594 L 130.761719 141.683594 L 130.761719 136.210938 C 134.472656 134.0625 137.707031 131.347656 140.472656 128.070312 L 149.085938 128.070312 C 149.601562 128.070312 150.109375 128.019531 150.617188 127.917969 C 151.121094 127.820312 151.613281 127.667969 152.089844 127.472656 C 152.566406 127.273438 153.019531 127.03125 153.449219 126.746094 C 153.875 126.460938 154.273438 126.132812 154.636719 125.769531 C 155.003906 125.40625 155.328125 125.007812 155.613281 124.578125 C 155.902344 124.152344 156.144531 123.699219 156.339844 123.222656 C 156.539062 122.746094 156.6875 122.253906 156.789062 121.75 C 156.886719 121.242188 156.9375 120.734375 156.9375 120.21875 L 156.9375 117.597656 C 157.453125 117.597656 157.964844 117.550781 158.46875 117.449219 C 158.976562 117.347656 159.46875 117.199219 159.941406 117 C 160.417969 116.804688 160.871094 116.5625 161.300781 116.277344 C 161.730469 115.988281 162.125 115.664062 162.492188 115.300781 C 162.855469 114.933594 163.179688 114.539062 163.46875 114.109375 C 163.753906 113.679688 163.996094 113.226562 164.195312 112.75 C 164.390625 112.273438 164.539062 111.785156 164.640625 111.277344 C 164.742188 110.773438 164.792969 110.261719 164.792969 109.746094 L 164.792969 94.039062 C 164.789062 93.230469 164.664062 92.4375 164.417969 91.667969 C 164.171875 90.894531 163.8125 90.179688 163.34375 89.519531 C 162.875 88.859375 162.316406 88.28125 161.671875 87.792969 C 161.023438 87.304688 160.320312 86.925781 159.554688 86.65625 L 159.554688 78.332031 C 159.554688 76.789062 159.480469 75.25 159.328125 73.714844 C 159.175781 72.179688 158.953125 70.652344 158.652344 69.140625 C 158.347656 67.625 157.976562 66.132812 157.527344 64.65625 C 157.078125 63.179688 156.558594 61.726562 155.96875 60.300781 C 155.378906 58.875 154.71875 57.480469 153.992188 56.121094 C 153.265625 54.757812 152.472656 53.4375 151.613281 52.15625 C 150.757812 50.871094 149.839844 49.632812 148.859375 48.441406 C 147.882812 47.246094 146.847656 46.105469 145.753906 45.015625 C 144.664062 43.921875 143.519531 42.886719 142.328125 41.910156 C 141.136719 40.929688 139.898438 40.011719 138.613281 39.152344 C 137.332031 38.296875 136.007812 37.503906 134.648438 36.777344 C 133.289062 36.050781 131.894531 35.390625 130.46875 34.800781 C 129.042969 34.210938 127.589844 33.691406 126.113281 33.242188 C 124.636719 32.792969 123.140625 32.417969 121.628906 32.117188 C 120.113281 31.816406 118.589844 31.589844 117.054688 31.441406 C 115.519531 31.289062 113.980469 31.214844 112.4375 31.214844 C 110.894531 31.214844 109.351562 31.289062 107.816406 31.441406 C 106.28125 31.589844 104.757812 31.816406 103.242188 32.117188 C 101.730469 32.417969 100.234375 32.792969 98.757812 33.242188 C 97.28125 33.691406 95.828125 34.210938 94.402344 34.800781 C 92.976562 35.390625 91.585938 36.050781 90.222656 36.777344 C 88.863281 37.503906 87.539062 38.296875 86.257812 39.152344 C 84.972656 40.011719 83.738281 40.929688 82.542969 41.910156 C 81.351562 42.886719 80.207031 43.921875 79.117188 45.015625 C 78.027344 46.105469 76.992188 47.246094 76.011719 48.441406 C 75.03125 49.632812 74.113281 50.871094 73.257812 52.15625 C 72.398438 53.4375 71.609375 54.757812 70.878906 56.121094 C 70.152344 57.480469 69.492188 58.875 68.902344 60.300781 C 68.3125 61.726562 67.792969 63.179688 67.34375 64.65625 C 66.898438 66.132812 66.523438 67.625 66.222656 69.140625 C 65.921875 70.652344 65.695312 72.179688 65.542969 73.714844 C 65.390625 75.25 65.316406 76.789062 65.316406 78.332031 L 65.316406 86.65625 C 64.550781 86.925781 63.847656 87.304688 63.199219 87.792969 C 62.554688 88.28125 61.996094 88.859375 61.527344 89.519531 C 61.058594 90.179688 60.703125 90.894531 60.453125 91.667969 C 60.207031 92.4375 60.082031 93.230469 60.082031 94.039062 L 60.082031 109.746094 C 60.082031 110.261719 60.132812 110.773438 60.230469 111.277344 C 60.332031 111.785156 60.480469 112.273438 60.679688 112.75 C 60.875 113.226562 61.117188 113.679688 61.402344 114.109375 C 61.691406 114.539062 62.015625 114.933594 62.382812 115.300781 C 62.746094 115.664062 63.140625 115.988281 63.570312 116.277344 C 64 116.5625 64.453125 116.804688 64.929688 117 C 65.40625 117.199219 65.894531 117.347656 66.402344 117.449219 C 66.90625 117.550781 67.417969 117.597656 67.933594 117.597656 L 78.246094 117.597656 C 78.996094 119.542969 79.902344 121.410156 80.96875 123.199219 C 82.03125 124.988281 83.242188 126.675781 84.589844 128.257812 C 85.941406 129.84375 87.417969 131.304688 89.015625 132.640625 C 90.613281 133.972656 92.3125 135.164062 94.113281 136.210938 L 94.113281 141.683594 L 71.597656 146.683594 C 70.734375 146.871094 69.875 147.09375 69.027344 147.355469 C 68.183594 147.617188 67.347656 147.914062 66.527344 148.246094 C 65.703125 148.578125 64.898438 148.941406 64.105469 149.34375 C 63.316406 149.746094 62.542969 150.179688 61.789062 150.644531 C 61.035156 151.109375 60.304688 151.609375 59.59375 152.136719 C 58.882812 152.664062 58.195312 153.222656 57.53125 153.808594 C 56.867188 154.398438 56.230469 155.011719 55.617188 155.652344 C 55.003906 156.296875 54.421875 156.960938 53.867188 157.652344 C 53.3125 158.34375 52.789062 159.058594 52.292969 159.792969 C 51.800781 160.527344 51.339844 161.285156 50.910156 162.058594 C 50.480469 162.835938 50.082031 163.625 49.71875 164.433594 C 49.359375 165.246094 49.03125 166.066406 48.738281 166.902344 C 48.445312 167.742188 48.191406 168.589844 47.96875 169.445312 C 47.75 170.304688 47.566406 171.171875 47.421875 172.046875 C 47.273438 172.917969 47.164062 173.796875 47.09375 174.683594 C 47.023438 175.566406 46.988281 176.449219 46.992188 177.335938 L 46.992188 190.898438 C 46.992188 191.242188 47.058594 191.578125 47.191406 191.898438 C 47.324219 192.21875 47.511719 192.503906 47.757812 192.746094 C 48.003906 192.992188 48.289062 193.183594 48.609375 193.316406 C 48.929688 193.449219 49.261719 193.515625 49.609375 193.515625 L 175.261719 193.515625 C 175.609375 193.515625 175.945312 193.449219 176.265625 193.316406 C 176.585938 193.183594 176.867188 192.992188 177.113281 192.746094 C 177.359375 192.503906 177.546875 192.21875 177.679688 191.898438 C 177.8125 191.578125 177.878906 191.242188 177.878906 190.898438 L 177.878906 177.335938 C 177.882812 176.449219 177.851562 175.566406 177.777344 174.683594 C 177.707031 173.796875 177.597656 172.917969 177.453125 172.046875 C 177.304688 171.171875 177.121094 170.304688 176.902344 169.445312 C 176.683594 168.589844 176.425781 167.742188 176.132812 166.902344 C 175.839844 166.066406 175.515625 165.246094 175.152344 164.433594 C 174.789062 163.625 174.394531 162.835938 173.964844 162.058594 C 173.535156 161.285156 173.070312 160.527344 172.578125 159.792969 C 172.082031 159.058594 171.558594 158.34375 171.003906 157.652344 C 170.449219 156.960938 169.867188 156.296875 169.253906 155.652344 C 168.644531 155.011719 168.003906 154.398438 167.34375 153.808594 C 166.679688 153.222656 165.992188 152.664062 165.277344 152.136719 C 164.566406 151.609375 163.835938 151.109375 163.082031 150.644531 C 162.328125 150.179688 161.554688 149.746094 160.765625 149.34375 C 159.972656 148.941406 159.167969 148.578125 158.347656 148.246094 C 157.523438 147.914062 156.691406 147.617188 155.84375 147.355469 C 154.996094 147.09375 154.140625 146.871094 153.273438 146.683594 Z M 134.582031 147.886719 L 124.660156 163.777344 L 116.652344 158.960938 L 128.980469 146.65625 Z M 151.703125 120.21875 C 151.703125 120.5625 151.636719 120.898438 151.503906 121.21875 C 151.371094 121.539062 151.179688 121.824219 150.9375 122.066406 C 150.691406 122.3125 150.40625 122.503906 150.085938 122.636719 C 149.765625 122.769531 149.433594 122.835938 149.085938 122.835938 L 144.136719 122.835938 C 145.148438 121.160156 146.019531 119.414062 146.753906 117.597656 L 151.703125 117.597656 Z M 143.847656 86.1875 L 135.550781 86.1875 C 133.445312 86.1875 131.375 85.921875 129.335938 85.386719 C 127.300781 84.851562 125.363281 84.070312 123.527344 83.035156 C 121.695312 82 120.019531 80.75 118.507812 79.285156 C 117 77.816406 115.699219 76.183594 114.609375 74.378906 C 114.492188 74.183594 114.355469 74.007812 114.191406 73.847656 C 114.03125 73.6875 113.851562 73.554688 113.652344 73.441406 C 113.457031 73.328125 113.246094 73.242188 113.027344 73.183594 C 112.808594 73.128906 112.585938 73.097656 112.359375 73.097656 C 112.128906 73.097656 111.90625 73.128906 111.6875 73.183594 C 111.46875 73.242188 111.257812 73.328125 111.0625 73.441406 C 110.863281 73.554688 110.683594 73.6875 110.523438 73.847656 C 110.359375 74.007812 110.222656 74.183594 110.105469 74.378906 C 109.015625 76.183594 107.71875 77.816406 106.207031 79.285156 C 104.695312 80.75 103.019531 82 101.1875 83.035156 C 99.351562 84.070312 97.417969 84.851562 95.378906 85.386719 C 93.339844 85.921875 91.269531 86.1875 89.164062 86.1875 L 81.023438 86.1875 L 81.023438 78.332031 C 81.023438 77.304688 81.074219 76.277344 81.175781 75.253906 C 81.273438 74.230469 81.425781 73.214844 81.625 72.203125 C 81.828125 71.195312 82.078125 70.199219 82.375 69.214844 C 82.675781 68.230469 83.019531 67.261719 83.414062 66.3125 C 83.808594 65.359375 84.246094 64.433594 84.730469 63.523438 C 85.21875 62.617188 85.746094 61.734375 86.316406 60.878906 C 86.886719 60.023438 87.5 59.199219 88.152344 58.40625 C 88.804688 57.609375 89.496094 56.847656 90.222656 56.121094 C 90.949219 55.394531 91.710938 54.703125 92.507812 54.050781 C 93.304688 53.398438 94.128906 52.785156 94.984375 52.214844 C 95.839844 51.640625 96.71875 51.113281 97.628906 50.628906 C 98.535156 50.144531 99.464844 49.703125 100.414062 49.3125 C 101.363281 48.917969 102.332031 48.570312 103.316406 48.273438 C 104.300781 47.972656 105.296875 47.722656 106.308594 47.523438 C 107.316406 47.324219 108.332031 47.171875 109.355469 47.070312 C 110.382812 46.96875 111.40625 46.917969 112.4375 46.917969 C 113.464844 46.917969 114.492188 46.96875 115.515625 47.070312 C 116.539062 47.171875 117.554688 47.324219 118.5625 47.523438 C 119.574219 47.722656 120.570312 47.972656 121.554688 48.273438 C 122.539062 48.570312 123.507812 48.917969 124.457031 49.3125 C 125.40625 49.703125 126.335938 50.144531 127.242188 50.628906 C 128.152344 51.113281 129.03125 51.640625 129.886719 52.214844 C 130.742188 52.785156 131.570312 53.398438 132.363281 54.050781 C 133.160156 54.703125 133.921875 55.394531 134.648438 56.121094 C 135.375 56.847656 136.066406 57.609375 136.71875 58.40625 C 137.371094 59.199219 137.984375 60.023438 138.554688 60.878906 C 139.125 61.734375 139.65625 62.617188 140.140625 63.523438 C 140.625 64.433594 141.0625 65.359375 141.457031 66.3125 C 141.851562 67.261719 142.199219 68.230469 142.496094 69.214844 C 142.796875 70.199219 143.042969 71.195312 143.246094 72.203125 C 143.445312 73.214844 143.597656 74.230469 143.699219 75.253906 C 143.796875 76.277344 143.847656 77.304688 143.847656 78.332031 Z M 159.554688 109.746094 C 159.554688 110.09375 159.488281 110.425781 159.355469 110.746094 C 159.222656 111.070312 159.035156 111.351562 158.789062 111.597656 C 158.542969 111.84375 158.261719 112.03125 157.941406 112.164062 C 157.617188 112.296875 157.285156 112.363281 156.9375 112.363281 L 148.222656 112.363281 C 148.789062 109.777344 149.078125 107.160156 149.085938 104.511719 L 149.085938 91.421875 L 156.9375 91.421875 C 157.285156 91.421875 157.617188 91.488281 157.941406 91.621094 C 158.261719 91.753906 158.542969 91.941406 158.789062 92.1875 C 159.035156 92.433594 159.222656 92.714844 159.355469 93.039062 C 159.488281 93.359375 159.554688 93.691406 159.554688 94.039062 Z M 112.4375 36.449219 C 113.808594 36.449219 115.175781 36.515625 116.542969 36.648438 C 117.90625 36.785156 119.261719 36.984375 120.605469 37.253906 C 121.953125 37.519531 123.28125 37.855469 124.59375 38.253906 C 125.90625 38.648438 127.195312 39.113281 128.464844 39.636719 C 129.730469 40.160156 130.96875 40.746094 132.179688 41.394531 C 133.390625 42.039062 134.566406 42.746094 135.707031 43.507812 C 136.847656 44.269531 137.945312 45.085938 139.007812 45.957031 C 140.066406 46.824219 141.082031 47.746094 142.050781 48.714844 C 143.023438 49.6875 143.941406 50.703125 144.8125 51.761719 C 145.683594 52.820312 146.5 53.921875 147.261719 55.0625 C 148.023438 56.203125 148.726562 57.378906 149.375 58.589844 C 150.019531 59.796875 150.605469 61.035156 151.132812 62.304688 C 151.65625 63.570312 152.117188 64.863281 152.515625 66.175781 C 152.914062 67.488281 153.246094 68.816406 153.515625 70.160156 C 153.78125 71.507812 153.984375 72.863281 154.117188 74.226562 C 154.253906 75.59375 154.320312 76.960938 154.320312 78.332031 L 154.320312 86.1875 L 149.085938 86.1875 L 149.085938 78.332031 C 149.085938 77.132812 149.027344 75.933594 148.910156 74.742188 C 148.789062 73.546875 148.613281 72.359375 148.378906 71.183594 C 148.144531 70.003906 147.855469 68.84375 147.507812 67.695312 C 147.160156 66.546875 146.753906 65.417969 146.296875 64.308594 C 145.835938 63.199219 145.324219 62.113281 144.757812 61.054688 C 144.191406 59.996094 143.574219 58.96875 142.910156 57.972656 C 142.242188 56.972656 141.527344 56.011719 140.765625 55.082031 C 140.003906 54.15625 139.199219 53.265625 138.351562 52.417969 C 137.5 51.570312 136.613281 50.765625 135.6875 50.003906 C 134.757812 49.242188 133.796875 48.527344 132.796875 47.859375 C 131.800781 47.195312 130.769531 46.578125 129.710938 46.011719 C 128.652344 45.445312 127.570312 44.933594 126.460938 44.472656 C 125.351562 44.015625 124.222656 43.609375 123.074219 43.261719 C 121.925781 42.914062 120.761719 42.621094 119.585938 42.386719 C 118.410156 42.152344 117.222656 41.976562 116.027344 41.859375 C 114.832031 41.742188 113.636719 41.683594 112.4375 41.683594 C 111.234375 41.683594 110.039062 41.742188 108.84375 41.859375 C 107.648438 41.976562 106.464844 42.152344 105.285156 42.386719 C 104.109375 42.621094 102.945312 42.914062 101.796875 43.261719 C 100.648438 43.609375 99.519531 44.015625 98.410156 44.472656 C 97.300781 44.933594 96.21875 45.445312 95.160156 46.011719 C 94.101562 46.578125 93.074219 47.195312 92.074219 47.859375 C 91.078125 48.527344 90.113281 49.242188 89.1875 50.003906 C 88.257812 50.765625 87.371094 51.570312 86.519531 52.417969 C 85.671875 53.265625 84.867188 54.15625 84.105469 55.082031 C 83.34375 56.011719 82.628906 56.972656 81.964844 57.972656 C 81.296875 58.96875 80.679688 59.996094 80.113281 61.054688 C 79.550781 62.113281 79.035156 63.199219 78.578125 64.308594 C 78.117188 65.417969 77.714844 66.546875 77.367188 67.695312 C 77.015625 68.84375 76.726562 70.003906 76.492188 71.183594 C 76.257812 72.359375 76.082031 73.546875 75.964844 74.742188 C 75.847656 75.933594 75.789062 77.132812 75.789062 78.332031 L 75.789062 86.1875 L 70.550781 86.1875 L 70.550781 78.332031 C 70.550781 76.960938 70.617188 75.59375 70.753906 74.226562 C 70.886719 72.863281 71.089844 71.507812 71.355469 70.160156 C 71.625 68.816406 71.957031 67.488281 72.355469 66.175781 C 72.753906 64.863281 73.214844 63.570312 73.738281 62.304688 C 74.265625 61.035156 74.851562 59.796875 75.496094 58.589844 C 76.144531 57.378906 76.847656 56.203125 77.609375 55.0625 C 78.371094 53.921875 79.1875 52.820312 80.058594 51.761719 C 80.929688 50.703125 81.847656 49.6875 82.820312 48.714844 C 83.789062 47.746094 84.804688 46.824219 85.863281 45.957031 C 86.925781 45.085938 88.027344 44.269531 89.167969 43.507812 C 90.308594 42.746094 91.480469 42.039062 92.691406 41.394531 C 93.902344 40.746094 95.140625 40.160156 96.40625 39.636719 C 97.675781 39.113281 98.964844 38.648438 100.277344 38.253906 C 101.589844 37.855469 102.917969 37.519531 104.265625 37.253906 C 105.609375 36.984375 106.964844 36.785156 108.332031 36.648438 C 109.695312 36.515625 111.0625 36.449219 112.4375 36.449219 Z M 67.933594 112.363281 C 67.585938 112.363281 67.253906 112.296875 66.933594 112.164062 C 66.613281 112.03125 66.328125 111.84375 66.082031 111.597656 C 65.835938 111.351562 65.648438 111.070312 65.515625 110.746094 C 65.382812 110.425781 65.316406 110.09375 65.316406 109.746094 L 65.316406 94.039062 C 65.316406 93.691406 65.382812 93.359375 65.515625 93.039062 C 65.648438 92.71875 65.835938 92.433594 66.082031 92.1875 C 66.328125 91.941406 66.613281 91.753906 66.933594 91.621094 C 67.253906 91.488281 67.585938 91.421875 67.933594 91.421875 L 75.789062 91.421875 L 75.789062 104.511719 C 75.792969 107.160156 76.082031 109.777344 76.652344 112.363281 Z M 81.023438 104.511719 L 81.023438 91.421875 L 89.320312 91.421875 C 91.539062 91.414062 93.730469 91.164062 95.894531 90.664062 C 98.058594 90.167969 100.140625 89.4375 102.140625 88.476562 C 104.136719 87.515625 106.007812 86.34375 107.746094 84.960938 C 109.484375 83.582031 111.046875 82.027344 112.4375 80.296875 C 113.824219 82.027344 115.390625 83.582031 117.128906 84.960938 C 118.863281 86.34375 120.734375 87.515625 122.734375 88.476562 C 124.734375 89.4375 126.816406 90.167969 128.976562 90.664062 C 131.140625 91.164062 133.332031 91.414062 135.550781 91.421875 L 143.847656 91.421875 L 143.847656 104.511719 C 143.84375 107.800781 143.332031 111.011719 142.316406 114.140625 C 141.300781 117.269531 139.832031 120.167969 137.90625 122.835938 L 119.816406 122.835938 C 119.714844 122.546875 119.597656 122.265625 119.460938 121.988281 C 119.328125 121.714844 119.175781 121.449219 119.011719 121.191406 C 118.84375 120.9375 118.664062 120.6875 118.46875 120.453125 C 118.277344 120.21875 118.066406 119.992188 117.847656 119.78125 C 117.625 119.570312 117.394531 119.371094 117.148438 119.1875 C 116.90625 119.003906 116.652344 118.832031 116.386719 118.679688 C 116.125 118.523438 115.851562 118.386719 115.570312 118.261719 C 115.292969 118.140625 115.003906 118.03125 114.710938 117.941406 C 114.421875 117.855469 114.125 117.78125 113.820312 117.726562 C 113.519531 117.671875 113.21875 117.632812 112.914062 117.613281 C 112.609375 117.59375 112.300781 117.59375 111.996094 117.609375 C 111.691406 117.625 111.386719 117.660156 111.085938 117.710938 C 110.785156 117.765625 110.488281 117.832031 110.195312 117.917969 C 109.898438 118.007812 109.613281 118.109375 109.332031 118.230469 C 109.050781 118.351562 108.777344 118.484375 108.511719 118.636719 C 108.246094 118.789062 107.988281 118.957031 107.742188 119.140625 C 107.496094 119.320312 107.261719 119.515625 107.039062 119.726562 C 106.816406 119.933594 106.605469 120.15625 106.410156 120.390625 C 106.210938 120.625 106.03125 120.867188 105.859375 121.125 C 105.691406 121.378906 105.539062 121.644531 105.402344 121.917969 C 105.265625 122.191406 105.140625 122.46875 105.039062 122.757812 C 104.933594 123.046875 104.84375 123.335938 104.773438 123.636719 C 104.703125 123.933594 104.648438 124.234375 104.613281 124.539062 C 104.578125 124.839844 104.5625 125.148438 104.5625 125.453125 C 104.5625 125.757812 104.578125 126.0625 104.613281 126.367188 C 104.648438 126.671875 104.703125 126.972656 104.773438 127.269531 C 104.84375 127.566406 104.933594 127.859375 105.039062 128.148438 C 105.140625 128.433594 105.265625 128.714844 105.402344 128.988281 C 105.539062 129.261719 105.691406 129.523438 105.859375 129.78125 C 106.03125 130.035156 106.210938 130.28125 106.410156 130.515625 C 106.605469 130.75 106.816406 130.96875 107.039062 131.179688 C 107.261719 131.386719 107.496094 131.585938 107.742188 131.765625 C 107.988281 131.949219 108.246094 132.113281 108.511719 132.265625 C 108.777344 132.417969 109.050781 132.554688 109.332031 132.675781 C 109.613281 132.796875 109.898438 132.898438 110.195312 132.984375 C 110.488281 133.070312 110.785156 133.140625 111.085938 133.191406 C 111.386719 133.246094 111.691406 133.277344 111.996094 133.292969 C 112.300781 133.3125 112.609375 133.308594 112.914062 133.289062 C 113.21875 133.269531 113.519531 133.234375 113.820312 133.179688 C 114.125 133.125 114.421875 133.050781 114.710938 132.960938 C 115.003906 132.871094 115.292969 132.765625 115.570312 132.644531 C 115.851562 132.519531 116.125 132.382812 116.386719 132.226562 C 116.652344 132.070312 116.90625 131.902344 117.148438 131.71875 C 117.394531 131.53125 117.625 131.335938 117.847656 131.125 C 118.066406 130.910156 118.277344 130.6875 118.46875 130.453125 C 118.664062 130.214844 118.84375 129.96875 119.011719 129.710938 C 119.175781 129.457031 119.328125 129.1875 119.460938 128.914062 C 119.597656 128.640625 119.714844 128.359375 119.816406 128.070312 L 133.140625 128.070312 C 132.015625 129.058594 130.820312 129.960938 129.5625 130.78125 C 128.304688 131.597656 126.996094 132.324219 125.636719 132.953125 C 124.273438 133.582031 122.875 134.113281 121.4375 134.542969 C 120 134.972656 118.539062 135.296875 117.054688 135.519531 C 115.570312 135.738281 114.078125 135.855469 112.578125 135.859375 C 111.078125 135.867188 109.585938 135.765625 108.101562 135.558594 C 106.613281 135.351562 105.148438 135.042969 103.710938 134.625 C 102.269531 134.207031 100.863281 133.691406 99.496094 133.070312 C 98.128906 132.453125 96.8125 131.742188 95.546875 130.933594 C 94.285156 130.128906 93.082031 129.238281 91.945312 128.257812 C 90.808594 127.277344 89.746094 126.222656 88.761719 125.09375 C 87.773438 123.964844 86.875 122.769531 86.058594 121.507812 C 85.246094 120.25 84.523438 118.9375 83.898438 117.574219 C 83.269531 116.210938 82.742188 114.808594 82.316406 113.371094 C 81.890625 111.933594 81.570312 110.472656 81.351562 108.988281 C 81.136719 107.503906 81.027344 106.011719 81.023438 104.511719 Z M 115.054688 125.453125 C 115.054688 125.800781 114.988281 126.132812 114.855469 126.453125 C 114.722656 126.773438 114.53125 127.058594 114.285156 127.304688 C 114.042969 127.550781 113.757812 127.738281 113.4375 127.871094 C 113.117188 128.003906 112.78125 128.070312 112.4375 128.070312 C 112.089844 128.070312 111.753906 128.003906 111.433594 127.871094 C 111.113281 127.738281 110.832031 127.550781 110.585938 127.304688 C 110.339844 127.058594 110.148438 126.773438 110.015625 126.453125 C 109.882812 126.132812 109.816406 125.800781 109.816406 125.453125 C 109.816406 125.105469 109.882812 124.769531 110.015625 124.449219 C 110.148438 124.128906 110.339844 123.847656 110.585938 123.601562 C 110.832031 123.355469 111.113281 123.167969 111.433594 123.035156 C 111.753906 122.902344 112.089844 122.835938 112.4375 122.835938 C 112.78125 122.835938 113.117188 122.902344 113.4375 123.035156 C 113.757812 123.167969 114.042969 123.355469 114.285156 123.601562 C 114.53125 123.847656 114.722656 124.128906 114.855469 124.449219 C 114.988281 124.769531 115.054688 125.105469 115.054688 125.453125 Z M 112.4375 141.160156 C 116.953125 141.152344 121.316406 140.332031 125.523438 138.699219 L 125.523438 142.703125 L 112.4375 155.792969 L 99.347656 142.703125 L 99.347656 138.699219 C 103.558594 140.332031 107.921875 141.152344 112.4375 141.160156 Z M 95.890625 146.65625 L 108.222656 158.960938 L 100.210938 163.777344 L 90.289062 147.886719 Z M 52.226562 177.335938 C 52.226562 175.859375 52.351562 174.390625 52.601562 172.933594 C 52.851562 171.476562 53.21875 170.050781 53.710938 168.65625 C 54.199219 167.261719 54.804688 165.917969 55.523438 164.628906 C 56.238281 163.335938 57.0625 162.113281 57.984375 160.960938 C 58.910156 159.808594 59.925781 158.738281 61.03125 157.757812 C 62.136719 156.777344 63.316406 155.898438 64.574219 155.117188 C 65.828125 154.335938 67.140625 153.664062 68.507812 153.105469 C 69.875 152.546875 71.28125 152.109375 72.722656 151.789062 L 84.871094 149.167969 L 97.121094 168.800781 C 97.371094 169.171875 97.691406 169.457031 98.085938 169.660156 C 98.484375 169.867188 98.902344 169.964844 99.347656 169.953125 C 99.824219 169.953125 100.269531 169.832031 100.683594 169.589844 L 109.816406 164.117188 L 109.816406 188.277344 L 73.167969 188.277344 L 73.167969 175.191406 L 67.933594 175.191406 L 67.933594 188.277344 L 52.226562 188.277344 Z M 172.644531 188.277344 L 156.9375 188.277344 L 156.9375 175.191406 L 151.703125 175.191406 L 151.703125 188.277344 L 115.054688 188.277344 L 115.054688 164.117188 L 124.191406 169.589844 C 124.601562 169.832031 125.046875 169.953125 125.523438 169.953125 C 125.976562 169.957031 126.402344 169.847656 126.796875 169.628906 C 127.191406 169.410156 127.511719 169.109375 127.75 168.722656 L 140 149.011719 L 152.148438 151.628906 C 153.597656 151.953125 155.007812 152.394531 156.382812 152.957031 C 157.757812 153.519531 159.074219 154.195312 160.332031 154.980469 C 161.59375 155.765625 162.777344 156.652344 163.882812 157.640625 C 164.992188 158.628906 166.007812 159.703125 166.933594 160.863281 C 167.859375 162.023438 168.683594 163.253906 169.398438 164.554688 C 170.113281 165.855469 170.714844 167.207031 171.203125 168.609375 C 171.6875 170.015625 172.050781 171.449219 172.292969 172.914062 C 172.535156 174.378906 172.652344 175.851562 172.644531 177.335938 Z M 172.644531 188.277344 " fill-opacity="1" fill-rule="nonzero"/></g></svg>