<svg xmlns="http://www.w3.org/2000/svg" xmlns:xlink="http://www.w3.org/1999/xlink" width="300" zoomAndPan="magnify" viewBox="0 0 224.87999 225" height="300" preserveAspectRatio="xMidYMid meet" version="1.0"><defs><clipPath id="bb74feb9e8"><path d="M 0 0.0585938 L 224.703125 0.0585938 L 224.703125 224.761719 L 0 224.761719 Z M 0 0.0585938 " clip-rule="nonzero"/></clipPath><clipPath id="a1d70df2b7"><path d="M 25.394531 99 L 44 99 L 44 113 L 25.394531 113 Z M 25.394531 99 " clip-rule="nonzero"/></clipPath><clipPath id="0ff18fe266"><path d="M 78 43.082031 L 160 43.082031 L 160 85 L 78 85 Z M 78 43.082031 " clip-rule="nonzero"/></clipPath><clipPath id="17e5cf2cd7"><path d="M 117.863281 58.699219 L 199.472656 58.699219 L 199.472656 168.960938 L 117.863281 168.960938 Z M 117.863281 58.699219 " clip-rule="nonzero"/></clipPath><clipPath id="789a68ff17"><path d="M 32.253906 78.308594 L 132.199219 78.308594 L 132.199219 181.832031 L 32.253906 181.832031 Z M 32.253906 78.308594 " clip-rule="nonzero"/></clipPath><clipPath id="4fa4a6b2a5"><path d="M 151.179688 164.390625 L 180.949219 164.390625 L 180.949219 181.832031 L 151.179688 181.832031 Z M 151.179688 164.390625 " clip-rule="nonzero"/></clipPath></defs><g clip-path="url(#bb74feb9e8)"><path fill="#e72d32" d="M 112.4375 224.933594 C 50.320312 224.933594 0 174.269531 0 112.496094 C 0 50.726562 50.320312 0.0585938 112.4375 0.0585938 C 174.554688 0.0585938 224.875 50.378906 224.875 112.496094 C 224.875 174.617188 174.207031 224.933594 112.4375 224.933594 Z M 112.4375 7 C 54.136719 7 6.941406 54.195312 6.941406 112.496094 C 6.941406 170.796875 54.136719 217.996094 112.4375 217.996094 C 170.738281 217.996094 217.933594 170.796875 217.933594 112.496094 C 217.933594 54.195312 170.390625 7 112.4375 7 Z M 112.4375 7 " fill-opacity="1" fill-rule="nonzero"/></g><path fill="#e72d32" d="M 165.851562 126.132812 C 168.636719 126.863281 170.6875 128.703125 171.335938 131.054688 C 172.320312 134.609375 169.988281 138.453125 165.996094 140.304688 L 162.253906 125.777344 C 164.421875 125.769531 165.773438 126.113281 165.851562 126.132812 Z M 152.160156 120.378906 C 150.519531 119.582031 149.378906 118.289062 148.949219 116.738281 C 148.511719 115.144531 148.855469 113.410156 149.921875 111.847656 C 150.570312 110.894531 151.4375 110.074219 152.460938 109.433594 L 155.394531 120.8125 C 154.140625 120.867188 153.007812 120.773438 152.160156 120.378906 Z M 161.453125 108.664062 C 163.167969 109.457031 164.355469 110.769531 164.792969 112.363281 C 165.203125 113.851562 166.742188 114.722656 168.226562 114.3125 C 169.710938 113.902344 170.582031 112.367188 170.175781 110.878906 C 169.289062 107.675781 167.023438 105.089844 163.792969 103.597656 C 161.53125 102.554688 158.980469 102.140625 156.40625 102.378906 L 155.597656 99.453125 C 155.1875 97.96875 153.652344 97.09375 152.164062 97.503906 C 150.679688 97.914062 149.808594 99.453125 150.21875 100.9375 L 151.027344 103.863281 C 148.695312 104.980469 146.71875 106.644531 145.3125 108.703125 C 143.304688 111.640625 142.6875 115.023438 143.570312 118.226562 C 144.433594 121.351562 146.628906 123.902344 149.746094 125.410156 C 149.753906 125.414062 149.761719 125.417969 149.769531 125.421875 C 151.980469 126.464844 154.457031 126.527344 156.8125 126.308594 L 160.699219 141.394531 C 156.96875 141.269531 153.789062 139.265625 152.925781 136.140625 C 152.515625 134.652344 150.976562 133.78125 149.492188 134.191406 C 148.007812 134.601562 147.132812 136.140625 147.546875 137.625 C 148.035156 139.40625 148.921875 141.015625 150.175781 142.410156 C 151.363281 143.726562 152.820312 144.789062 154.511719 145.570312 C 156.796875 146.628906 159.347656 147.09375 161.945312 146.957031 L 162.792969 150.035156 C 163.203125 151.523438 164.742188 152.394531 166.226562 151.984375 C 167.710938 151.574219 168.582031 150.035156 168.171875 148.550781 L 167.40625 145.769531 C 170.457031 144.570312 173.046875 142.550781 174.8125 139.96875 C 175.863281 138.425781 176.570312 136.765625 176.910156 135.027344 C 177.273438 133.1875 177.207031 131.351562 176.71875 129.570312 C 175.53125 125.28125 172 121.976562 167.265625 120.734375 C 166.742188 120.597656 164.34375 120.039062 160.824219 120.238281 L 157.644531 107.894531 C 158.992188 107.871094 160.292969 108.128906 161.453125 108.664062 " fill-opacity="1" fill-rule="nonzero"/><path fill="#e72d32" d="M 72.457031 133.738281 L 70.59375 137.703125 L 48.082031 135.464844 L 48.082031 130.324219 Z M 78.777344 130.316406 C 78.375 129.570312 77.632812 129.058594 76.796875 128.9375 L 45.773438 124.59375 C 45.652344 124.574219 45.527344 124.566406 45.402344 124.566406 C 44.757812 124.566406 44.132812 124.800781 43.644531 125.222656 C 43.0625 125.734375 42.726562 126.46875 42.726562 127.246094 L 42.726562 137.890625 C 42.726562 139.273438 43.761719 140.417969 45.136719 140.554688 L 71.949219 143.21875 C 72.039062 143.226562 72.128906 143.230469 72.214844 143.230469 C 73.246094 143.230469 74.199219 142.628906 74.636719 141.691406 L 78.847656 132.730469 C 79.207031 131.964844 79.183594 131.058594 78.777344 130.316406 " fill-opacity="1" fill-rule="nonzero"/><path fill="#e72d32" d="M 77.382812 160.207031 C 77.714844 160.351562 78.070312 160.421875 78.429688 160.421875 C 79.507812 160.421875 80.472656 159.785156 80.894531 158.796875 L 86.632812 145.351562 L 120.429688 145.332031 C 121.898438 145.332031 123.097656 144.136719 123.097656 142.664062 C 123.097656 141.195312 121.898438 139.996094 120.429688 139.996094 L 84.863281 139.996094 C 83.789062 139.996094 82.820312 140.636719 82.398438 141.625 L 75.96875 156.691406 C 75.6875 157.351562 75.679688 158.078125 75.949219 158.742188 C 76.214844 159.40625 76.722656 159.925781 77.382812 160.207031 " fill-opacity="1" fill-rule="nonzero"/><g clip-path="url(#a1d70df2b7)"><path fill="#e72d32" d="M 43.738281 102.207031 C 43.738281 100.730469 42.539062 99.53125 41.0625 99.53125 L 28.082031 99.53125 C 26.605469 99.53125 25.402344 100.730469 25.402344 102.207031 L 25.402344 109.902344 C 25.402344 111.378906 26.605469 112.578125 28.082031 112.578125 C 29.558594 112.578125 30.757812 111.378906 30.757812 109.902344 L 30.757812 104.886719 L 41.0625 104.886719 C 42.539062 104.886719 43.738281 103.683594 43.738281 102.207031 " fill-opacity="1" fill-rule="nonzero"/></g><path fill="#e72d32" d="M 146.855469 77.183594 C 146.863281 76.464844 146.59375 75.789062 146.09375 75.277344 C 145.585938 74.757812 144.90625 74.46875 144.175781 74.46875 C 143.472656 74.46875 142.808594 74.742188 142.308594 75.230469 C 139.871094 77.605469 138.878906 81.128906 139.722656 84.421875 C 140.351562 86.890625 141.90625 88.964844 144.097656 90.261719 C 145.574219 91.136719 147.25 91.601562 148.945312 91.601562 C 149.742188 91.601562 150.539062 91.5 151.320312 91.300781 C 154.738281 90.425781 157.382812 87.753906 158.222656 84.324219 C 158.574219 82.890625 157.691406 81.4375 156.257812 81.085938 C 156.050781 81.035156 155.835938 81.007812 155.621094 81.007812 C 154.382812 81.007812 153.316406 81.847656 153.019531 83.050781 C 152.652344 84.554688 151.492188 85.726562 149.996094 86.109375 C 149.652344 86.199219 149.300781 86.242188 148.953125 86.242188 C 148.210938 86.242188 147.476562 86.039062 146.828125 85.65625 C 145.867188 85.085938 145.1875 84.179688 144.910156 83.097656 C 144.542969 81.652344 144.976562 80.109375 146.046875 79.066406 C 146.558594 78.566406 146.84375 77.898438 146.855469 77.183594 " fill-opacity="1" fill-rule="nonzero"/><g clip-path="url(#0ff18fe266)"><path fill="#e72d32" d="M 80.78125 72.929688 C 80.800781 72.929688 80.820312 72.929688 80.839844 72.929688 C 94.28125 72.640625 107.71875 65.226562 119.574219 58.683594 C 125.890625 55.199219 131.855469 51.90625 137.125 50.058594 C 140.050781 49.03125 142.511719 48.535156 144.648438 48.535156 C 146.472656 48.535156 148.042969 48.894531 149.453125 49.640625 C 151.949219 50.953125 153.488281 52.863281 154.164062 55.484375 C 156.683594 65.222656 146.820312 80.441406 146.71875 80.59375 C 145.910156 81.828125 146.257812 83.492188 147.492188 84.300781 C 147.929688 84.589844 148.4375 84.742188 148.957031 84.742188 C 149.863281 84.742188 150.703125 84.289062 151.199219 83.53125 C 151.3125 83.355469 154.019531 79.214844 156.390625 73.621094 C 159.6875 65.855469 160.683594 59.304688 159.351562 54.152344 C 158.292969 50.042969 155.800781 46.929688 151.949219 44.902344 C 149.585938 43.65625 146.867188 43.082031 143.886719 43.199219 C 141.328125 43.296875 138.535156 43.886719 135.351562 45.003906 C 129.660156 47 123.503906 50.398438 116.984375 53.992188 C 105.671875 60.238281 92.847656 67.3125 80.726562 67.574219 C 79.25 67.605469 78.074219 68.832031 78.105469 70.308594 C 78.136719 71.753906 79.339844 72.929688 80.78125 72.929688 " fill-opacity="1" fill-rule="nonzero"/></g><g clip-path="url(#17e5cf2cd7)"><path fill="#e72d32" d="M 199.324219 147.621094 C 199.308594 147.507812 199.289062 147.402344 199.265625 147.300781 L 181.402344 77.421875 L 181.398438 77.40625 C 180.707031 74.765625 179.339844 72.886719 177.441406 71.976562 L 177.382812 71.949219 C 177.375 71.945312 177.363281 71.941406 177.351562 71.9375 L 177.332031 71.925781 C 177.324219 71.921875 177.316406 71.917969 177.304688 71.914062 L 164.402344 66.402344 C 164.066406 66.257812 163.714844 66.183594 163.351562 66.183594 C 162.277344 66.183594 161.3125 66.824219 160.890625 67.8125 C 160.609375 68.46875 160.601562 69.195312 160.867188 69.859375 C 161.132812 70.523438 161.640625 71.042969 162.296875 71.324219 L 175.132812 76.808594 C 175.464844 76.976562 175.925781 77.640625 176.21875 78.757812 L 194.019531 148.414062 C 194.03125 148.484375 194.046875 148.546875 194.058594 148.609375 C 194.183594 149.113281 194.105469 149.632812 193.835938 150.074219 C 193.570312 150.519531 193.144531 150.832031 192.640625 150.957031 C 192.550781 150.976562 192.457031 151.003906 192.363281 151.039062 L 143.632812 163.515625 C 143.480469 163.550781 143.324219 163.570312 143.171875 163.570312 C 142.273438 163.570312 141.5 162.964844 141.285156 162.09375 L 141.28125 162.078125 L 123.382812 91.949219 L 123.375 91.921875 C 123.375 91.914062 123.371094 91.90625 123.371094 91.898438 C 123.148438 91.09375 123.320312 90.226562 123.605469 89.878906 C 123.691406 89.777344 123.769531 89.667969 123.839844 89.550781 L 142.890625 65.332031 C 142.894531 65.328125 142.898438 65.320312 142.902344 65.316406 L 142.910156 65.308594 C 143.253906 64.859375 143.980469 64.105469 144.976562 64.105469 C 145.285156 64.105469 145.601562 64.179688 145.917969 64.324219 C 145.929688 64.328125 145.9375 64.332031 145.953125 64.339844 L 145.960938 64.34375 C 145.96875 64.347656 145.976562 64.351562 145.984375 64.355469 L 147.757812 65.109375 C 148.09375 65.253906 148.445312 65.328125 148.808594 65.328125 C 149.882812 65.328125 150.847656 64.6875 151.269531 63.699219 C 151.550781 63.042969 151.558594 62.316406 151.292969 61.652344 C 151.027344 60.988281 150.519531 60.46875 149.863281 60.1875 L 148.089844 59.429688 L 148.074219 59.421875 C 147.070312 58.972656 146.023438 58.746094 144.964844 58.746094 C 142.589844 58.746094 140.300781 59.933594 138.695312 62 C 138.691406 62.007812 138.683594 62.011719 138.679688 62.019531 L 119.421875 86.503906 C 119.34375 86.601562 119.273438 86.710938 119.207031 86.820312 C 117.980469 88.554688 117.589844 91.019531 118.191406 93.261719 L 118.191406 93.265625 L 136.09375 163.398438 C 136.09375 163.40625 136.097656 163.414062 136.097656 163.421875 C 136.570312 165.292969 137.742188 166.875 139.394531 167.875 C 140.539062 168.5625 141.839844 168.929688 143.15625 168.929688 C 143.746094 168.929688 144.335938 168.855469 144.914062 168.714844 C 144.917969 168.714844 144.925781 168.710938 144.925781 168.710938 L 144.929688 168.710938 L 193.949219 156.164062 C 194.046875 156.136719 194.148438 156.105469 194.246094 156.066406 C 195.992188 155.550781 197.476562 154.410156 198.417969 152.847656 C 199.371094 151.273438 199.691406 149.417969 199.324219 147.621094 " fill-opacity="1" fill-rule="nonzero"/></g><path fill="#e72d32" d="M 113.019531 107.234375 L 56.507812 107.222656 C 55.03125 107.222656 53.832031 108.425781 53.832031 109.902344 C 53.832031 111.378906 55.03125 112.578125 56.507812 112.578125 L 113.503906 112.578125 L 113.5 112.523438 C 114.75 112.296875 115.6875 111.199219 115.6875 109.902344 C 115.6875 108.429688 114.492188 107.234375 113.019531 107.234375 " fill-opacity="1" fill-rule="nonzero"/><g clip-path="url(#789a68ff17)"><path fill="#e72d32" d="M 57.882812 169.796875 L 57.882812 176.550781 L 38.957031 176.550781 L 38.957031 169.796875 Z M 129.464844 164.417969 L 60.558594 164.441406 L 38.8125 164.441406 L 38.210938 142.976562 C 38.210938 142.957031 38.207031 142.933594 38.207031 142.910156 C 37.871094 136.628906 37.707031 125.777344 37.6875 124.457031 C 37.785156 123.585938 37.917969 122.648438 37.988281 122.320312 C 38.816406 120.398438 43.300781 115.792969 49.429688 110.566406 C 49.558594 110.457031 49.675781 110.335938 49.78125 110.203125 L 49.839844 110.132812 C 49.949219 109.996094 50.042969 109.851562 50.125 109.695312 C 50.25 109.457031 53.214844 103.792969 56.375 97.972656 C 61.429688 88.667969 63.167969 85.984375 63.714844 85.230469 C 64.625 85.011719 67.660156 84.53125 77.351562 84.160156 C 84.714844 83.878906 94.445312 83.722656 104.746094 83.722656 C 105.574219 83.722656 106.402344 83.722656 107.230469 83.722656 L 107.242188 83.722656 C 108.070312 83.722656 108.894531 83.722656 109.722656 83.722656 C 109.820312 83.722656 110.34375 83.71875 110.875 83.714844 C 111.417969 83.707031 111.96875 83.703125 112.074219 83.703125 C 113.542969 83.703125 114.742188 82.507812 114.742188 81.035156 C 114.742188 79.722656 113.789062 78.621094 112.519531 78.40625 L 112.523438 78.371094 L 112.203125 78.367188 C 110.558594 78.363281 108.894531 78.363281 107.234375 78.367188 C 106.40625 78.367188 105.574219 78.367188 104.746094 78.367188 C 93.933594 78.367188 83.820312 78.535156 76.269531 78.84375 C 72.152344 79.007812 68.832031 79.214844 66.398438 79.453125 C 62.566406 79.832031 61.363281 80.234375 60.574219 80.804688 C 59.875 81.308594 59.003906 81.9375 51.949219 94.902344 C 49.109375 100.121094 46.402344 105.261719 45.59375 106.800781 C 44.179688 108.015625 41.488281 110.371094 39.03125 112.796875 C 34.535156 117.238281 33.410156 119.304688 32.960938 120.476562 C 32.867188 120.71875 32.648438 121.285156 32.34375 124.035156 C 32.332031 124.140625 32.328125 124.253906 32.328125 124.363281 C 32.335938 124.851562 32.5 136.425781 32.855469 143.160156 L 33.53125 167.195312 C 33.539062 167.371094 33.558594 167.546875 33.601562 167.71875 L 33.601562 179.230469 C 33.601562 180.707031 34.800781 181.90625 36.277344 181.90625 L 60.558594 181.90625 C 62.035156 181.90625 63.238281 180.707031 63.238281 179.230469 L 63.238281 169.796875 L 129.464844 169.753906 C 130.933594 169.753906 132.128906 168.554688 132.128906 167.085938 C 132.128906 165.613281 130.933594 164.417969 129.464844 164.417969 " fill-opacity="1" fill-rule="nonzero"/></g><g clip-path="url(#4fa4a6b2a5)"><path fill="#e72d32" d="M 178.226562 164.417969 C 176.753906 164.417969 175.558594 165.613281 175.558594 167.085938 L 175.539062 176.550781 L 156.609375 176.550781 L 156.589844 172.308594 C 156.589844 170.835938 155.394531 169.640625 153.921875 169.640625 C 152.453125 169.640625 151.257812 170.835938 151.257812 172.308594 L 151.257812 179.230469 C 151.257812 180.707031 152.457031 181.90625 153.933594 181.90625 L 178.214844 181.90625 C 179.691406 181.90625 180.894531 180.707031 180.894531 179.230469 L 180.894531 167.085938 C 180.894531 165.613281 179.695312 164.417969 178.226562 164.417969 " fill-opacity="1" fill-rule="nonzero"/></g></svg>