<svg xmlns="http://www.w3.org/2000/svg" xmlns:xlink="http://www.w3.org/1999/xlink" width="300" zoomAndPan="magnify" viewBox="0 0 224.87999 225" height="300" preserveAspectRatio="xMidYMid meet" version="1.0"><defs><clipPath id="d724ede8d9"><path d="M 0 0.0585938 L 224.703125 0.0585938 L 224.703125 224.761719 L 0 224.761719 Z M 0 0.0585938 " clip-rule="nonzero"/></clipPath><clipPath id="487bb738f5"><path d="M 53.90625 38 L 177.921875 38 L 177.921875 187 L 53.90625 187 Z M 53.90625 38 " clip-rule="nonzero"/></clipPath></defs><g clip-path="url(#d724ede8d9)"><path fill="#e72d32" d="M 112.4375 224.933594 C 50.320312 224.933594 0 174.269531 0 112.496094 C 0 50.726562 50.320312 0.0585938 112.4375 0.0585938 C 174.554688 0.0585938 224.875 50.378906 224.875 112.496094 C 224.875 174.617188 174.207031 224.933594 112.4375 224.933594 Z M 112.4375 7 C 54.136719 7 6.941406 54.195312 6.941406 112.496094 C 6.941406 170.796875 54.136719 217.992188 112.4375 217.992188 C 170.738281 217.992188 217.933594 170.796875 217.933594 112.496094 C 217.933594 54.195312 170.390625 7 112.4375 7 Z M 112.4375 7 " fill-opacity="1" fill-rule="nonzero"/></g><path fill="#e72d32" d="M 71.046875 164.484375 L 147.429688 164.484375 L 147.429688 168.957031 L 71.046875 168.957031 Z M 71.046875 164.484375 " fill-opacity="1" fill-rule="nonzero"/><path fill="#e72d32" d="M 71.046875 145.839844 L 147.429688 145.839844 L 147.429688 150.3125 L 71.046875 150.3125 Z M 71.046875 145.839844 " fill-opacity="1" fill-rule="nonzero"/><path fill="#e72d32" d="M 71.046875 127.203125 L 147.429688 127.203125 L 147.429688 131.679688 L 71.046875 131.679688 Z M 71.046875 127.203125 " fill-opacity="1" fill-rule="nonzero"/><path fill="#e72d32" d="M 71.046875 108.558594 L 147.429688 108.558594 L 147.429688 113.035156 L 71.046875 113.035156 Z M 71.046875 108.558594 " fill-opacity="1" fill-rule="nonzero"/><path fill="#e72d32" d="M 105.191406 89.917969 L 147.429688 89.917969 L 147.429688 94.394531 L 105.191406 94.394531 Z M 105.191406 89.917969 " fill-opacity="1" fill-rule="nonzero"/><path fill="#e72d32" d="M 105.191406 71.28125 L 147.429688 71.28125 L 147.429688 75.753906 L 105.191406 75.753906 Z M 105.191406 71.28125 " fill-opacity="1" fill-rule="nonzero"/><path fill="#e72d32" d="M 76.53125 91.222656 L 74.773438 95.34375 C 78.382812 96.878906 81.320312 97.472656 83.628906 97.648438 L 83.628906 101.523438 L 88.101562 101.523438 L 88.101562 97.429688 C 88.269531 97.394531 88.511719 97.363281 88.652344 97.320312 C 93.664062 96.003906 96.054688 92.527344 95.222656 87.773438 C 94.550781 83.964844 91.277344 82.339844 88.109375 81.234375 L 88.109375 71.925781 C 90.320312 72.191406 92.539062 72.855469 93.550781 73.230469 L 95.132812 69.042969 C 94.621094 68.855469 91.527344 67.761719 88.101562 67.453125 L 88.101562 63.695312 L 83.628906 63.695312 L 83.628906 67.683594 C 83.386719 67.75 83.121094 67.769531 82.890625 67.847656 C 79.929688 68.789062 77.636719 71.003906 76.75 73.78125 C 75.941406 76.289062 76.40625 78.886719 78.042969 81.085938 C 79.316406 82.800781 81.433594 83.695312 83.625 84.441406 L 83.625 93.171875 C 81.839844 92.996094 79.476562 92.492188 76.53125 91.222656 Z M 88.101562 86.066406 C 89.605469 86.730469 90.632812 87.457031 90.820312 88.550781 C 91.148438 90.457031 90.777344 91.917969 88.101562 92.804688 Z M 81.640625 78.40625 C 80.667969 77.117188 80.761719 75.921875 81.015625 75.140625 C 81.398438 73.960938 82.375 72.960938 83.628906 72.378906 L 83.628906 79.679688 C 82.734375 79.300781 81.996094 78.875 81.640625 78.40625 Z M 81.640625 78.40625 " fill-opacity="1" fill-rule="nonzero"/><g clip-path="url(#487bb738f5)"><path fill="#e72d32" d="M 169.507812 38.109375 L 75.070312 38.109375 C 70.601562 38.109375 66.960938 41.75 66.960938 46.226562 L 66.960938 48.882812 L 62.015625 48.882812 C 57.546875 48.882812 53.90625 52.527344 53.90625 57 L 53.90625 178.734375 C 53.90625 183.222656 57.546875 186.863281 62.015625 186.863281 L 156.457031 186.863281 C 160.9375 186.863281 164.582031 183.222656 164.582031 178.734375 L 164.582031 176.085938 L 169.511719 176.085938 C 173.992188 176.085938 177.636719 172.441406 177.636719 167.957031 L 177.636719 46.226562 C 177.632812 41.75 173.988281 38.109375 169.507812 38.109375 Z M 160.101562 178.734375 C 160.101562 180.746094 158.460938 182.390625 156.453125 182.390625 L 62.015625 182.390625 C 60.015625 182.390625 58.378906 180.746094 58.378906 178.734375 L 58.378906 57 C 58.378906 54.992188 60.015625 53.355469 62.015625 53.355469 L 156.457031 53.355469 C 158.46875 53.355469 160.105469 54.992188 160.105469 57 L 160.105469 178.734375 Z M 173.15625 167.957031 C 173.15625 169.964844 171.519531 171.609375 169.507812 171.609375 L 164.574219 171.609375 L 164.574219 57 C 164.574219 52.527344 160.933594 48.882812 156.453125 48.882812 L 71.4375 48.882812 L 71.4375 46.226562 C 71.4375 44.214844 73.070312 42.582031 75.070312 42.582031 L 169.511719 42.582031 C 171.523438 42.582031 173.164062 44.214844 173.164062 46.226562 L 173.164062 167.957031 Z M 173.15625 167.957031 " fill-opacity="1" fill-rule="nonzero"/></g></svg>