<svg xmlns="http://www.w3.org/2000/svg" xmlns:xlink="http://www.w3.org/1999/xlink" width="300" zoomAndPan="magnify" viewBox="0 0 224.87999 225" height="300" preserveAspectRatio="xMidYMid meet" version="1.0"><defs><clipPath id="f177c534d2"><path d="M 1 0.0585938 L 224.410156 0.0585938 L 224.410156 224 L 1 224 Z M 1 0.0585938 " clip-rule="nonzero"/></clipPath></defs><g clip-path="url(#f177c534d2)"><path fill="#1ba553" d="M 112.269531 0.265625 C 50.035156 0.472656 0.296875 51.117188 1.109375 113.398438 C 1.183594 119.667969 1.78125 125.886719 2.90625 132.054688 C 4.03125 138.21875 5.667969 144.25 7.8125 150.140625 C 9.957031 156.03125 12.578125 161.699219 15.683594 167.148438 C 18.785156 172.59375 22.324219 177.742188 26.296875 182.589844 C 26.921875 183.355469 27.421875 184.199219 27.796875 185.117188 C 28.167969 186.039062 28.398438 186.992188 28.484375 187.980469 C 28.570312 188.96875 28.511719 189.945312 28.300781 190.914062 C 28.09375 191.886719 27.75 192.800781 27.265625 193.667969 L 17.65625 210.902344 C 14.992188 215.679688 19.332031 221.328125 24.628906 219.980469 L 57.175781 211.6875 C 58.3125 211.398438 59.460938 211.3125 60.625 211.433594 C 61.792969 211.550781 62.902344 211.867188 63.953125 212.382812 C 71.148438 215.882812 78.636719 218.570312 86.414062 220.449219 C 94.191406 222.328125 102.082031 223.351562 110.082031 223.523438 C 172.648438 224.941406 224.007812 174.902344 224.203125 112.265625 C 224.394531 50.3125 174.171875 0.0546875 112.269531 0.265625 Z M 112.652344 209.796875 C 111.050781 209.796875 109.453125 209.757812 107.851562 209.679688 C 106.253906 209.601562 104.65625 209.484375 103.066406 209.324219 C 101.472656 209.167969 99.882812 208.972656 98.300781 208.738281 C 96.71875 208.503906 95.140625 208.230469 93.570312 207.917969 C 92 207.605469 90.441406 207.253906 88.886719 206.863281 C 87.335938 206.476562 85.792969 206.046875 84.261719 205.582031 C 82.726562 205.117188 81.210938 204.617188 79.703125 204.074219 C 78.195312 203.535156 76.703125 202.960938 75.222656 202.347656 C 73.746094 201.734375 72.28125 201.085938 70.835938 200.398438 C 69.386719 199.714844 67.957031 198.996094 66.546875 198.238281 C 65.132812 197.484375 63.742188 196.695312 62.371094 195.871094 C 60.996094 195.046875 59.644531 194.191406 58.3125 193.300781 C 56.984375 192.410156 55.675781 191.488281 54.390625 190.535156 C 53.101562 189.582031 51.839844 188.59375 50.605469 187.578125 C 49.367188 186.5625 48.15625 185.515625 46.96875 184.441406 C 45.78125 183.363281 44.625 182.261719 43.492188 181.128906 C 42.359375 179.996094 41.257812 178.835938 40.183594 177.648438 C 39.105469 176.460938 38.0625 175.246094 37.046875 174.007812 C 36.03125 172.769531 35.046875 171.507812 34.09375 170.222656 C 33.140625 168.933594 32.21875 167.625 31.328125 166.292969 C 30.441406 164.960938 29.582031 163.609375 28.761719 162.234375 C 27.9375 160.859375 27.148438 159.46875 26.394531 158.054688 C 25.640625 156.640625 24.921875 155.210938 24.234375 153.761719 C 23.550781 152.3125 22.902344 150.851562 22.289062 149.371094 C 21.679688 147.890625 21.101562 146.394531 20.5625 144.886719 C 20.023438 143.378906 19.523438 141.859375 19.058594 140.324219 C 18.59375 138.792969 18.164062 137.25 17.777344 135.695312 C 17.386719 134.140625 17.035156 132.578125 16.726562 131.007812 C 16.414062 129.433594 16.140625 127.859375 15.902344 126.273438 C 15.667969 124.6875 15.472656 123.097656 15.316406 121.503906 C 15.160156 119.910156 15.042969 118.3125 14.964844 116.710938 C 14.882812 115.113281 14.84375 113.511719 14.84375 111.910156 C 14.84375 57.847656 58.636719 14.019531 112.652344 14.019531 C 166.460938 14.019531 210.117188 57.507812 210.457031 111.28125 C 210.796875 165.234375 166.5625 209.796875 112.652344 209.796875 Z M 112.652344 209.796875 " fill-opacity="1" fill-rule="nonzero"/></g><path fill="#1ba553" d="M 95.171875 64.320312 L 95.214844 64.410156 L 101.050781 75.988281 C 101.363281 76.609375 101.625 77.253906 101.835938 77.917969 C 102.046875 78.585938 102.199219 79.261719 102.300781 79.953125 C 102.402344 80.640625 102.445312 81.335938 102.433594 82.035156 C 102.425781 82.730469 102.355469 83.421875 102.234375 84.109375 C 102.113281 84.796875 101.933594 85.46875 101.703125 86.125 C 101.472656 86.785156 101.191406 87.417969 100.855469 88.03125 C 100.523438 88.644531 100.140625 89.226562 99.714844 89.777344 C 99.289062 90.328125 98.820312 90.839844 98.308594 91.316406 C 97.800781 91.785156 97.335938 92.296875 96.910156 92.84375 C 96.480469 93.390625 96.101562 93.96875 95.769531 94.574219 C 95.4375 95.183594 95.152344 95.8125 94.921875 96.464844 C 94.6875 97.121094 94.511719 97.789062 94.386719 98.46875 C 94.261719 99.152344 94.191406 99.839844 94.175781 100.53125 C 94.164062 101.226562 94.203125 101.914062 94.300781 102.601562 C 94.398438 103.289062 94.546875 103.960938 94.75 104.625 C 94.957031 105.289062 95.214844 105.929688 95.519531 106.550781 C 99.023438 113.589844 105.089844 123.289062 114.347656 130.289062 C 115.386719 131.078125 116.515625 131.695312 117.738281 132.144531 C 118.964844 132.589844 120.226562 132.851562 121.527344 132.917969 C 122.828125 132.984375 124.109375 132.859375 125.375 132.542969 C 126.636719 132.226562 127.828125 131.726562 128.941406 131.050781 L 132.695312 128.765625 C 133.539062 128.25 134.429688 127.839844 135.367188 127.53125 C 136.300781 127.21875 137.261719 127.019531 138.242188 126.929688 C 139.226562 126.839844 140.203125 126.859375 141.183594 126.992188 C 142.160156 127.125 143.109375 127.367188 144.03125 127.71875 L 158.964844 133.402344 C 159.757812 133.703125 160.515625 134.082031 161.238281 134.53125 C 161.957031 134.984375 162.628906 135.503906 163.246094 136.085938 C 163.867188 136.671875 164.421875 137.308594 164.914062 138.003906 C 165.40625 138.699219 165.828125 139.433594 166.175781 140.210938 C 166.527344 140.984375 166.796875 141.789062 166.984375 142.617188 C 167.175781 143.449219 167.285156 144.289062 167.308594 145.140625 C 167.332031 145.992188 167.273438 146.835938 167.132812 147.675781 C 166.992188 148.515625 166.769531 149.332031 166.46875 150.128906 C 166.292969 150.585938 166.09375 151.03125 165.871094 151.464844 L 161.734375 159.492188 C 161.398438 160.140625 161.011719 160.757812 160.574219 161.339844 C 160.132812 161.925781 159.648438 162.46875 159.117188 162.96875 C 158.585938 163.472656 158.019531 163.925781 157.410156 164.328125 C 156.804688 164.734375 156.167969 165.085938 155.5 165.386719 C 154.832031 165.683594 154.148438 165.921875 153.441406 166.105469 C 152.734375 166.285156 152.015625 166.40625 151.289062 166.46875 C 150.558594 166.527344 149.832031 166.527344 149.105469 166.464844 C 148.378906 166.402344 147.660156 166.277344 146.953125 166.09375 C 123.503906 160.023438 67.609375 138.914062 63.105469 75.085938 C 63.015625 73.816406 63.109375 72.566406 63.390625 71.324219 C 63.667969 70.085938 64.117188 68.914062 64.738281 67.804688 C 65.363281 66.699219 66.128906 65.707031 67.042969 64.824219 C 67.957031 63.945312 68.980469 63.210938 70.105469 62.632812 L 77.722656 58.714844 C 78.480469 58.328125 79.265625 58.015625 80.085938 57.78125 C 80.902344 57.546875 81.734375 57.394531 82.585938 57.324219 C 83.433594 57.253906 84.277344 57.269531 85.125 57.367188 C 85.96875 57.460938 86.796875 57.640625 87.605469 57.902344 C 88.417969 58.160156 89.195312 58.496094 89.9375 58.910156 C 90.679688 59.324219 91.378906 59.804688 92.027344 60.355469 C 92.675781 60.90625 93.265625 61.515625 93.792969 62.183594 C 94.324219 62.851562 94.78125 63.5625 95.171875 64.320312 Z M 95.171875 64.320312 " fill-opacity="1" fill-rule="nonzero"/></svg>